<?xml version="1.0" encoding="utf-8"?>
<!-- Generator: Adobe Illustrator 27.5.0, SVG Export Plug-In . SVG Version: 6.00 Build 0)  -->
<svg version="1.1" id="Layer_1" xmlns="http://www.w3.org/2000/svg" xmlns:xlink="http://www.w3.org/1999/xlink" x="0px" y="0px"
	 viewBox="0 0 500 500" style="enable-background:new 0 0 500 500;" xml:space="preserve">
<g>
	<defs>
		<rect id="SVGID_1_" width="500" height="500"/>
	</defs>
	<clipPath id="SVGID_00000113352412218057567080000001449002958422365593_">
		<use xlink:href="#SVGID_1_"  style="overflow:visible;"/>
	</clipPath>
	<g style="clip-path:url(#SVGID_00000113352412218057567080000001449002958422365593_);">
		<rect style="fill:#FFFFFF;" width="500" height="500"/>
		<g>
			<g>
				<g>
					<g>
						<path style="fill:#FFFFFF;" d="M202.474,349.534c-5.366-3.346-11.895-2.724-17.307,0.19
							c-4.778,2.573-8.981,7.482-8.044,13.327c0.391,2.441,1.639,4.784,3.711,6.148c2.079,1.368,4.643,1.385,7.019,1.681
							c2.461,0.306,5.217,1.134,5.725,3.999c0.541,3.052-1.58,6.061-3.75,7.914c-4.226,3.606-9.998,4.839-15.39,4.153
							c-5.803-0.738-10.973-3.615-14.949-7.947c-9.256-10.085-10.602-24.651-9.493-37.772c0.308-3.643,0.786-7.268,1.302-10.885
							c0.479-3.361,1.192-6.836,0.595-10.228c-0.462-2.623-1.904-5.117-4.243-6.43c-2.153-1.208-4.76-0.989-6.426,0.936
							c-0.415,0.48-0.749,1.03-0.978,1.613c-0.228-0.085-0.534-0.01-0.63,0.295c-4.147,13.154-6.333,27.228-4.266,40.992
							c1.98,13.185,7.852,25.928,18.015,34.594c9.063,7.728,20.951,11.758,32.724,9.605c5.92-1.083,11.614-3.663,16.221-7.62
							c4.375-3.756,7.576-8.693,9.274-14.256C214.812,369.265,212.318,355.673,202.474,349.534z"/>
						<g>
							<path style="fill:#221F1F;" d="M202.682,349.131c-4.744-2.908-10.544-2.888-15.597-0.813
								c-4.473,1.838-8.807,5.342-10.156,10.246c-0.701,2.549-0.423,5.33,0.759,7.687c1.312,2.616,3.646,4.136,6.444,4.633
								c2.481,0.441,5.541,0.146,7.649,1.797c2.362,1.85,1.405,5.258-0.05,7.36c-3.609,5.211-10.583,7.098-16.548,6.533
								c-5.715-0.541-11.013-3.327-14.997-7.49c-9.121-9.529-10.734-23.649-9.862-36.334c0.246-3.579,0.69-7.142,1.182-10.694
								c0.449-3.239,1.162-6.521,1.051-9.807c-0.098-2.883-0.98-5.783-3.105-7.794c-1.888-1.786-4.682-2.625-7.066-1.348
								c-1.161,0.622-2.027,1.696-2.536,2.913c0.165-0.077,0.331-0.155,0.496-0.232c-0.452-0.099-0.844,0.039-1.086,0.449
								c-0.399,0.677-0.546,1.689-0.769,2.444c-0.472,1.596-0.912,3.202-1.318,4.817c-0.835,3.319-1.524,6.677-2.036,10.063
								c-1,6.622-1.329,13.368-0.71,20.045c1.209,13.038,6.081,25.993,15.113,35.502c8.091,8.518,19.493,13.973,31.245,13.625
								c12.758-0.377,25.208-7.732,30.222-19.953c4.136-10.083,3.078-23.442-5.115-31.175
								C204.905,350.673,203.825,349.853,202.682,349.131c-0.49-0.309-0.902,0.498-0.415,0.806
								c9.323,5.888,11.895,18.541,9.174,28.777c-1.515,5.698-4.723,10.89-9.099,14.761c-4.977,4.402-11.336,7.154-17.853,8.04
								c-11.102,1.509-22.323-2.491-30.822-9.739c-9.551-8.145-15.316-20.029-17.554-32.369
								c-2.308-12.728-0.801-25.873,2.602-38.249c0.117-0.424,1.154-4.544,1.431-4.484c0.181,0.039,0.419-0.047,0.496-0.232
								c1.295-3.093,4.69-3.851,7.349-2.013c2.582,1.784,3.597,4.938,3.676,7.985c0.089,3.404-0.675,6.814-1.133,10.172
								c-0.461,3.386-0.869,6.784-1.103,10.195c-0.842,12.248,0.628,25.648,8.711,35.354c3.521,4.229,8.176,7.419,13.497,8.746
								c5.719,1.427,12.16,0.737,17.098-2.682c2.095-1.45,4.012-3.433,4.911-5.888c0.819-2.235,0.597-4.926-1.415-6.419
								c-2.008-1.49-4.639-1.449-6.995-1.759c-1.386-0.182-2.787-0.473-3.999-1.215c-1.313-0.803-2.32-2.072-2.95-3.483
								c-2.364-5.297,0.584-10.748,4.856-13.897c4.3-3.169,10.091-4.705,15.291-3.284c1.355,0.37,2.631,0.945,3.831,1.681
								C202.76,350.24,203.173,349.432,202.682,349.131z"/>
						</g>
					</g>
					<g>
						<path style="fill:#FFFFFF;" d="M228.212,145.994c-3.386-4.237-8.34-6.868-13.589-7.795c-5.39-0.953-11.007-0.225-15.96,2.144
							c-5.531,2.645-10.063,7.008-13.515,12.092c-6.076,8.949-8.326,19.58-9.188,30.266c-5.856-3.331-12.062-6.121-18.518-8.284
							c-2.849-0.954-5.744-1.778-8.672-2.477c-1.016-0.242-1.478,0.975-0.822,1.488c-10.709,15.473-21.419,30.946-32.128,46.419
							l-9.129,13.19c-7.63-0.818-15.454,0.346-21.43,4.902c-2.937,1.854-5.408,4.404-7.041,7.647
							c-2.712,5.387-2.875,11.697-0.376,17.202c2.375,5.231,7.56,10.27,13.599,9.972c2.649-0.13,4.945-1.44,6.38-3.721
							c1.345-2.138,1.831-4.681,2.729-7.017c1.129-2.934,3.228-4.823,6.381-5.178c3.205-0.361,6.347,0.968,9.226,2.232
							c5.108,2.243,10.811,6.56,14.237,13.574c-0.39,7.712-2.493,15.405-3.63,22.973c-3.308-0.165-6.696,0.265-9.975,1.023
							c-4.698,1.087-9.418,2.798-13.55,5.282c-7.698,4.626-12.197,12.248-12.992,20.31c-0.414,4.202,0.155,8.676,2.614,12.134
							c2.099,2.953,5.673,4.978,9.693,5.045c4.459,0.074,8.16-2.707,10.682-6.001c2.698-3.524,4.14-7.785,7.288-11.035
							c1.081-0.556,2.28-0.862,3.541-0.968c2.084-0.175,4.16-0.007,6.216-0.031c1.348,2.188,3.01,4.219,4.964,6.034
							c4.467,4.151,10.165,7.086,16.254,8.731c-1.235,0.895-2.493,1.757-3.777,2.579c-4.322,2.766-8.879,4.907-13.66,6.705
							c-4.498,1.692-9.26,3.467-12.603,7.131c-2.764,3.03-4.569,7.322-3.52,11.47c1.057,4.178,4.903,7.036,8.888,7.961
							c0.585,0.136,1.173,0.233,1.762,0.297c3.622,1.036,7.718,0.738,11.435-0.076c7.663-1.677,15.016-4.947,21.77-8.948
							c6.973-4.131,13.398-9.162,19.413-14.621c5.497-4.988,10.715-10.326,15.509-16.018c8.606-10.217,15.935-21.852,19.754-34.813
							c1.51-3.242,2.811-6.568,3.899-9.947c3.624-11.262,4.89-23.247,3.683-35.046c-1.199-11.712-4.84-23.196-10.864-33.676
							c-3.898-6.781-8.744-13.114-14.329-18.831c-0.697-8.018-0.563-16.826,2.686-24.043c2.872-4.534,6.901-8.461,11.846-10.476
							c1.385-0.564,2.836-0.995,4.311-1.229c1.73-0.274,3.487-0.255,5.227-0.436c2.965-0.309,5.807-1.352,7.409-4.06
							C232.931,155.682,231.17,149.696,228.212,145.994z"/>
						<g>
							<path style="fill:#73392B;" d="M211.347,241.801c2.156,0.986,4.446,1.254,6.78,0.925c1.346-0.189,2.707-0.551,4.075-0.837
								c-1.871-7.887-4.882-15.551-9.016-22.743c-0.264-0.459-0.533-0.916-0.806-1.371c-5.641,1.992-9.973,7.862-8.767,14.209
								C204.422,236.242,207.475,240.031,211.347,241.801z"/>
							<path style="fill:#73392B;" d="M216.468,297.815c1.51-3.242,2.811-6.568,3.899-9.947c0.153-0.477,0.301-0.955,0.446-1.434
								c-1.288-0.333-2.583-0.62-3.915-0.662c-4.313-0.137-8.592,1.919-11.481,5.132c-2.945,3.274-4.263,7.675-3.38,12.045
								c0.874,4.321,3.724,8.211,7.484,10.383c0.127,0.073,0.255,0.144,0.383,0.212
								C212.607,308.543,214.852,303.298,216.468,297.815z"/>
							<path style="fill:#73392B;" d="M130.257,274.632c-0.527,6.118-1.987,12.219-3.044,18.25c2.259,0.458,4.561,0.536,6.786-0.211
								c3.359-1.127,6.192-4.077,5.931-7.874c-0.299-4.357-3.803-7.405-7.429-9.144
								C131.779,275.306,131.026,274.956,130.257,274.632z"/>
							<path style="fill:#73392B;" d="M223.963,252.025c-1.922,0.177-3.879,0.172-5.757,0.589c-2.41,0.535-4.6,1.849-6.304,3.655
								c-3.316,3.515-4.57,8.684-2.843,13.281c0.837,2.229,2.261,4.243,4.092,5.737c1.978,1.614,4.268,2.457,6.767,2.785
								c0.943,0.124,1.93,0.186,2.918,0.278c1.667-8.378,2.087-17.001,1.215-25.527
								C224.023,252.556,223.993,252.291,223.963,252.025z"/>
						</g>
						<path style="fill:#221F1F;" d="M228.619,145.727c-7.008-8.63-19.623-10.522-29.451-6.155
							c-10.143,4.507-16.941,14.453-20.33,24.877c-1.836,5.647-2.771,11.544-3.292,17.456c-5.109-2.85-10.433-5.283-15.929-7.253
							c-2.929-1.05-5.903-1.964-8.913-2.741c-0.927-0.239-2.338-0.926-3.154-0.095c-0.455,0.464-0.476,1.099-0.194,1.614
							c-7.648,11.05-15.296,22.101-22.945,33.151c-4.601,6.647-9.201,13.294-13.802,19.941c-1.384,1.999-2.767,3.999-4.151,5.998
							c-5.089-0.489-10.315-0.189-15.157,1.587c-2.39,0.876-4.481,2.154-6.577,3.591c-1.973,1.351-3.758,2.908-5.196,4.849
							c-5.481,7.398-5.108,17.958,0.742,25.012c2.475,2.984,5.901,5.355,9.81,5.668c2.134,0.171,4.316-0.314,6.053-1.63
							c1.879-1.424,2.886-3.528,3.64-5.727c0.773-2.255,1.276-4.732,2.961-6.505c1.744-1.835,4.311-2.322,6.723-1.992
							c2.459,0.336,4.819,1.358,7.059,2.402c1.928,0.899,3.766,2.01,5.454,3.318c2.102,1.63,3.992,3.548,5.558,5.716
							c0.775,1.074,1.624,2.243,2.142,3.475c0.306,0.726,0.182,1.44,0.117,2.216c-0.079,0.938-0.182,1.874-0.301,2.808
							c-0.763,5.985-2.201,11.852-3.131,17.809c-3.954-0.12-7.882,0.526-11.697,1.556c-3.95,1.066-7.817,2.566-11.362,4.65
							c-5.538,3.256-9.908,8.34-12.098,14.478c-2.268,6.356-2.581,14.752,2.214,20.022c2.096,2.304,5.054,3.724,8.113,4.023
							c3.519,0.345,6.813-1.009,9.465-3.315c3.128-2.72,4.858-6.439,6.983-9.932c0.582-0.956,1.202-1.887,1.906-2.754
							c0.929-1.146,2.021-1.626,3.452-1.853c2.198-0.348,4.469-0.125,6.687-0.119c4.668,7.317,12.248,12.038,20.363,14.463
							c-5.176,3.619-10.725,6.458-16.623,8.683c-5.175,1.952-10.614,4.089-13.953,8.824c-2.8,3.97-3.765,9.387-0.834,13.577
							c1.397,1.997,3.432,3.489,5.66,4.388c1.265,0.511,2.524,0.7,3.847,0.961c1.373,0.271,2.694,0.575,4.1,0.647
							c6.092,0.312,12.338-1.709,17.931-3.971c5.946-2.405,11.596-5.559,16.906-9.183c10.541-7.194,20.061-16.177,28.428-25.864
							c7.621-8.822,14.322-18.642,18.693-29.562c1.104-2.759,1.874-5.65,3.072-8.363c1.295-2.932,2.427-5.941,3.391-9.003
							c1.805-5.732,3.001-11.657,3.575-17.647c1.211-12.624-0.377-25.473-4.687-37.38c-2.232-6.167-5.176-12.058-8.726-17.546
							c-1.736-2.685-3.613-5.275-5.612-7.763c-0.975-1.213-1.977-2.403-3.007-3.568c-0.503-0.569-1.012-1.132-1.527-1.688
							c-0.5-0.541-1.456-1.213-1.704-1.906c-0.195-0.546-0.109-1.387-0.146-1.969c-0.046-0.719-0.083-1.438-0.111-2.158
							c-0.056-1.451-0.073-2.904-0.04-4.356c0.068-2.953,0.347-5.906,0.967-8.794c0.285-1.327,0.64-2.64,1.084-3.921
							c0.535-1.541,1.197-2.808,2.163-4.113c1.774-2.396,3.886-4.551,6.334-6.234c2.594-1.783,5.592-3.054,8.71-3.447
							c2.886-0.364,5.864-0.123,8.595-1.318c4.637-2.028,5.957-7.209,4.763-11.868C231.065,149.588,230.016,147.508,228.619,145.727
							z M229.906,159.842c-1.571,2.626-4.517,3.572-7.369,3.832c-3.087,0.282-6.008,0.373-8.945,1.513
							c-4.93,1.913-8.963,5.63-11.926,10.013c-1.444,2.135-2.134,4.926-2.661,7.435c-0.556,2.645-0.832,5.348-0.932,8.049
							c-0.103,2.781-0.012,5.567,0.194,8.34c0.034,0.463-0.038,1.14,0.182,1.557c0.28,0.531,0.985,1.032,1.397,1.47
							c1.125,1.197,2.221,2.422,3.286,3.675c4.035,4.748,7.617,9.911,10.608,15.404c6.112,11.224,9.628,23.852,10.188,36.672
							c0.53,12.122-1.546,24.34-6.062,35.572c-0.548,1.362-1.187,2.682-1.746,4.038c-0.514,1.249-0.833,2.603-1.281,3.882
							c-0.966,2.759-2.098,5.457-3.358,8.09c-2.493,5.21-5.497,10.161-8.845,14.846c-7.035,9.845-15.49,18.698-24.594,26.571
							c-9.535,8.245-20.309,15.43-32.298,19.342c-2.955,0.964-6.004,1.792-9.094,2.143c-1.361,0.154-2.735,0.217-4.104,0.147
							c-1.557-0.08-3.028-0.477-4.556-0.715c-5.131-0.799-9.985-4.724-9.868-10.373c0.119-5.747,4.606-10.143,9.315-12.593
							c2.634-1.37,5.445-2.312,8.196-3.399c2.867-1.132,5.682-2.412,8.397-3.883c2.686-1.454,5.249-3.117,7.73-4.907
							c0.343-0.248,0.257-0.783-0.153-0.895c-4.257-1.167-8.349-2.941-12.027-5.429c-1.829-1.237-3.549-2.657-5.094-4.246
							c-0.882-0.907-1.703-1.872-2.456-2.892c-0.454-0.615-1.005-2.01-1.765-2.211c-0.431-0.114-1.004-0.001-1.454-0.008
							c-0.609-0.01-1.217-0.028-1.826-0.036c-1.227-0.016-2.468-0.02-3.684,0.163c-0.926,0.139-1.868,0.373-2.71,0.799
							c-0.888,0.449-1.554,1.498-2.132,2.299c-2.517,3.486-4.067,7.621-7.091,10.731c-3.266,3.358-7.726,4.977-12.258,3.512
							c-4.191-1.355-7.012-4.919-8.018-9.204c-1.859-7.919,1.346-16.682,6.82-22.367c3.478-3.611,7.929-6.03,12.564-7.742
							c5.189-1.917,10.765-3.159,16.306-2.92c0.051,0.002,0.103-0.009,0.154-0.029c1.576,0.08,3.126,0.33,4.653,0.745
							c0.604,0.164,0.819-0.797,0.218-0.96c-1.467-0.399-2.959-0.644-4.47-0.746c0.815-5.153,1.994-10.238,2.784-15.395
							c0.187-1.218,0.352-2.44,0.483-3.666c0.057-0.531,0.108-1.063,0.152-1.595c0.05-0.594,0.24-1.378,0.102-1.966
							c-0.242-1.031-1.19-2.252-1.759-3.124c-0.623-0.956-1.307-1.871-2.039-2.744c-2.67-3.184-6.027-5.771-9.742-7.565
							c-3.779-1.825-8.537-3.876-12.697-2.149c-1.747,0.725-3.109,2.071-3.994,3.755c-1.107,2.105-1.482,4.526-2.464,6.688
							c-1.044,2.298-2.788,4.086-5.259,4.691c-2.165,0.53-4.512,0.113-6.511-0.824c-8.242-3.864-11.656-14.573-8.774-22.978
							c1.876-5.473,6.223-9.396,11.194-11.985c5.438-2.831,11.774-3.371,17.771-2.753c0.16,0.017,0.362,0.004,0.466-0.148
							c2.855-4.125,5.71-8.25,8.566-12.376c6.537-9.445,13.074-18.889,19.611-28.334c4.36-6.3,8.721-12.6,13.081-18.899
							c0.157-0.226,0.173-0.487-0.031-0.696c-0.845-0.867,0.912-0.516,0.936-0.51c0.305,0.074,0.609,0.15,0.913,0.227
							c0.607,0.154,1.214,0.314,1.818,0.479c1.208,0.33,2.411,0.683,3.606,1.058c2.41,0.757,4.792,1.605,7.14,2.541
							c4.484,1.788,8.84,3.894,13.048,6.278c0.349,0.197,0.68-0.103,0.709-0.453c0.845-10.304,3.04-20.747,8.762-29.465
							c3.002-4.573,6.912-8.604,11.619-11.349c4.914-2.865,10.649-4.083,16.279-3.402c5.64,0.682,11.048,3.294,14.701,7.792
							C230.655,149.896,232.473,155.554,229.906,159.842z"/>
					</g>
					<g>
						<g>
							<g>
								<g>
									<g>
										<g>
											<g>
												<path style="fill:#FFFFFF;" d="M100.934,234.576c-3.307-3.161-6.104-6.874-8.521-10.772
													c-2.484-4.007-4.547-8.297-6.022-12.794c-0.591-1.803-1.081-3.643-1.46-5.504c-0.086-0.24-0.167-0.483-0.246-0.726
													c-6.186-6.822-12.076-14.019-15.858-22.517c-1.596-3.586-3.191-8.463-0.52-11.957c3.009-3.936,8.956-3.385,13.21-2.562
													c3.711,0.718,7.287,2.038,10.583,3.888c0.643-0.907,1.316-1.791,2.017-2.649c0.667-0.817,1.359-1.607,2.07-2.377
													c1.729-2.054,3.687-3.937,5.58-5.752c4.181-4.009,8.622-7.815,13.578-10.788c-1.115-3.958-1.708-8.052-1.735-12.178
													c-0.026-3.997-0.045-9.786,4.284-11.584c3.934-1.634,8.6,0.417,12.179,2.08c4.492,2.087,8.687,4.83,12.426,8.113
													c2.589,2.273,4.948,4.794,7.049,7.525c1.625,0.585,3.198,1.313,4.684,2.187c1.736,0.7,3.432,1.508,5.076,2.41
													c4.099,2.252,7.896,5.058,11.347,8.238c3.357,3.094,6.47,6.536,8.96,10.396c2.403,3.724,4.215,7.892,4.831,12.327
													c0.594,4.284,0.009,8.635-1.299,12.728c-1.977,6.185-5.443,11.885-9.469,17.053
													c-9.192,11.535-16.355,17.362-24.771,22.743c-7.353,4.819-15.64,9.056-24.33,10.318
													c-4.187,0.608-8.498,0.447-12.542-0.886C107.848,240.16,104.125,237.626,100.934,234.576z"/>
												<path style="fill:#221F1F;" d="M175.588,161.181c-5.472-6.204-12.231-11.507-19.769-14.831
													c-1.854-0.818-3.61-1.833-5.506-2.562c-0.824-0.316-1.354-1.296-1.919-1.967c-0.697-0.828-1.419-1.634-2.165-2.417
													c-2.835-2.975-6.009-5.608-9.436-7.847c-3.19-2.084-6.633-3.871-10.199-5.189c-3.082-1.139-6.894-1.903-9.86-0.011
													c-2.377,1.516-3.196,4.428-3.465,7.109c-0.351,3.495-0.179,7.124,0.317,10.591c0.279,1.952,0.683,3.88,1.196,5.781
													c-4.404,2.698-8.399,6.013-12.176,9.55c-3.826,3.584-7.549,7.343-10.643,11.611c-2.866-1.554-5.921-2.735-9.089-3.469
													c-2.887-0.669-5.981-1.141-8.937-0.721c-2.708,0.385-5.313,1.666-6.656,4.201c-1.232,2.326-1.008,5.092-0.333,7.554
													c0.791,2.887,2.168,5.639,3.603,8.241c1.723,3.126,3.721,6.088,5.874,8.921c2.187,2.877,4.533,5.627,6.94,8.314
													c0.609,0.68,1.007,1.16,1.203,2.077c0.21,0.98,0.45,1.954,0.72,2.92c0.509,1.826,1.126,3.62,1.828,5.379
													c3.035,7.606,7.618,14.869,13.494,20.524c2.773,2.632,5.917,4.9,9.436,6.375c3.563,1.494,7.412,2.077,11.253,1.914
													c3.474-0.147,6.888-0.832,10.208-1.883c0.248-0.078,0.393-0.34,0.333-0.598l-0.002-0.01
													c-0.065-0.281-0.351-0.445-0.622-0.359c-1.259,0.398-2.537,0.746-3.836,1.034c-3.803,0.842-7.757,1.156-11.616,0.527
													c-3.683-0.601-7.127-2.097-10.213-4.213c-1.525-1.046-2.945-2.239-4.289-3.514c-5.012-4.824-9.013-10.845-11.963-17.173
													c-1.535-3.292-2.767-6.742-3.599-10.288c-0.167-0.711-0.231-1.6-0.607-2.237c-0.374-0.635-1.081-1.205-1.571-1.756
													c-1.139-1.281-2.263-2.575-3.359-3.894c-4.334-5.211-8.322-10.85-11.038-17.123c-0.98-2.264-1.846-4.729-1.759-7.239
													c0.1-2.909,1.911-5.268,4.598-6.219c3.005-1.065,6.387-0.653,9.445-0.058c3.67,0.714,7.189,2.021,10.466,3.844
													c0.171,0.095,0.46,0.068,0.582-0.104c3.078-4.313,6.808-8.098,10.645-11.707c3.867-3.639,7.966-7.036,12.504-9.776
													c0.186-0.112,0.257-0.358,0.2-0.561c-1.126-4.05-1.694-8.202-1.715-12.41c-0.013-2.667-0.036-5.595,1.177-8.033
													c1.569-3.156,5.107-3.662,8.233-3.004c3.548,0.747,7.015,2.524,10.156,4.315c3.371,1.922,6.525,4.228,9.394,6.863
													c1.483,1.362,2.89,2.811,4.211,4.336c0.622,0.718,1.182,1.668,1.879,2.303c0.283,0.258,0.631,0.333,0.991,0.474
													c0.535,0.21,1.065,0.437,1.586,0.681c0.826,0.385,1.604,0.875,2.427,1.257c0.939,0.437,1.903,0.812,2.836,1.266
													c1.782,0.866,3.509,1.848,5.18,2.918c3.321,2.125,6.403,4.618,9.254,7.358c5.932,5.701,11.365,12.912,12.548,21.354
													c0.828,5.913-0.62,11.81-3.059,17.188c-0.108,0.238-0.016,0.52,0.211,0.643c0.004,0.002,0.007,0.004,0.011,0.006
													c0.245,0.132,0.55,0.029,0.667-0.227c1.93-4.243,3.222-8.769,3.359-13.442
													C185.402,175.167,181.08,167.409,175.588,161.181z"/>
											</g>
											<path style="fill:#EFC3B9;" d="M153.645,170.969c4.736-0.154,7.899-5.515,6.938-10.009
												c-0.001-0.004-0.002-0.008-0.003-0.012c0.012-0.755-0.126-1.517-0.432-2.232c-0.941-2.199-3.223-3.576-5.523-3.772
												c-4.281-0.366-9.972,2.939-9.722,7.804C145.13,167.186,149.295,171.11,153.645,170.969z"/>
											<path style="fill:#EFC3B9;" d="M103.392,207.521c-4.754-0.556-8.35,5.018-8.258,9.391
												c0.049,2.349,1.257,4.753,3.355,5.846c0.682,0.355,1.421,0.543,2.162,0.578c0.004,0.001,0.007,0.003,0.011,0.004
												c4.346,1.256,9.801-1.623,10.246-6.425C111.317,212.504,107.729,208.028,103.392,207.521z"/>
											<path style="fill:#211E1F;" d="M127.46,142.902c-1.196-2.38-2.085-4.895-2.652-7.506
												c-0.103-0.472,0.617-0.642,0.72-0.168c0.554,2.549,1.418,4.998,2.586,7.323
												C128.33,142.981,127.678,143.335,127.46,142.902z"/>
											<path style="fill:#211E1F;" d="M77.824,181.769c2.949-0.054,5.836,0.843,8.251,2.566c0.388,0.277,0.005,0.92-0.385,0.642
												c-2.321-1.656-5.055-2.508-7.89-2.457C77.324,182.529,77.349,181.778,77.824,181.769z"/>
										</g>
									</g>
								</g>
							</g>
							<g>
								<g>
									<path style="fill:#221F1F;" d="M156.642,226.026c-0.081,0.064-0.162,0.128-0.244,0.192
										C156.48,226.154,156.561,226.09,156.642,226.026z"/>
									<path style="fill:#221F1F;" d="M155.665,226.785c-0.074,0.057-0.148,0.113-0.222,0.17
										C155.518,226.898,155.591,226.842,155.665,226.785z"/>
									<path style="fill:#221F1F;" d="M152.227,229.299c0.127-0.091,0.256-0.18,0.385-0.268
										C152.484,229.121,152.355,229.209,152.227,229.299z"/>
								</g>
							</g>
						</g>
						<path style="fill:#211E1F;" d="M140.557,190.271c-1.771-3.151-3.778-6.181-5.679-9.253c3.58-2.53,4.795-7.554,2.813-11.517
							c-1.224-2.449-3.408-4.296-5.962-5.152c-0.65-0.218-0.977,0.813-0.325,1.032c5.078,1.703,7.959,7.757,4.928,12.563
							c-1.335,2.116-3.593,3.482-6.095,3.355c-1.981-0.1-3.879-1.025-5.105-2.58c0.639-0.81,1.186-1.709,1.63-2.624
							c0.516-1.063,0.833-2.318,0.293-3.44c-1.284-2.667-4.422-0.682-5.943,0.563c-1.171,0.959-2.227,2.069-3.118,3.301
							c-0.735,1.017-1.687,2.289-1.812,3.587c-0.232,2.405,1.816,2.376,3.779,1.764c1.517-0.144,2.983-0.902,4.125-1.991
							c0.067-0.064,0.131-0.132,0.197-0.199c1.219,1.778,1.962,3.887,1.868,6.084c-0.111,2.607-1.483,5.235-3.751,6.535
							c-2.209,1.267-5,1.125-7.239,0.007c-2.714-1.355-4.548-4.046-5.492-6.903c-0.216-0.654-1.261-0.441-1.043,0.219
							c1.572,4.758,5.511,8.94,10.769,8.643c2.729-0.155,4.992-1.69,6.37-3.862c2.135,1.933,4.657,3.282,7.334,4.276
							c1.409,0.523,2.85,0.949,4.301,1.332c0.726,0.191,1.455,0.371,2.186,0.547c0.62,0.149,1.33,0.432,1.975,0.356
							C144.09,196.617,141.165,191.353,140.557,190.271z M141.271,195.895c-0.256,0.067-0.698-0.143-0.952-0.204
							c-4.988-1.184-10.18-2.574-14.05-6.187c0.689-1.413,1.032-3.023,0.934-4.667c-0.076-1.278-0.388-2.511-0.881-3.666
							c2.292,1.406,5.269,1.653,7.706,0.373c1.597,2.583,3.206,5.158,4.789,7.749c0.708,1.159,1.402,2.335,1.929,3.592
							c0.278,0.664,0.507,1.346,0.664,2.051C141.493,195.312,141.674,195.79,141.271,195.895z"/>
						<path style="fill:#211E1F;" d="M146.492,151.862c-2.987,0.021-5.82,1.142-8.018,3.208c-0.503,0.473,0.207,1.28,0.711,0.806
							c1.986-1.867,4.543-2.912,7.249-2.932C147.118,152.939,147.179,151.857,146.492,151.862z"/>
						<path style="fill:#211E1F;" d="M101.175,195.081c-3.733,1.118-6.496,4.41-6.993,8.339c-0.088,0.693,0.976,0.747,1.063,0.058
							c0.431-3.414,2.899-6.364,6.144-7.336C102.043,195.946,101.832,194.884,101.175,195.081z"/>
					</g>
					<path style="fill:#221F1F;" d="M147.321,324.082c-1.071,0.32-2.161,0.52-3.258,0.599c-0.548-1.164-0.959-2.396-1.224-3.676
						c-0.129-0.62-1.052-0.323-0.924,0.293c0.247,1.189,0.618,2.333,1.102,3.422c-0.846,0.002-1.694-0.068-2.54-0.211
						c-0.613-0.104-0.833,0.856-0.218,0.96c1.075,0.182,2.154,0.256,3.227,0.223c0.64,1.224,1.427,2.37,2.351,3.419
						c0.415,0.471,1.066-0.259,0.652-0.728c-0.751-0.852-1.399-1.778-1.944-2.76c1.031-0.1,2.054-0.3,3.063-0.602
						C148.207,324.844,147.919,323.904,147.321,324.082z"/>
				</g>
				<path style="fill:#F6E7DD;" d="M192.645,236.131c-2.896-4.677-6.438-9.092-10.986-12.193c-4.42-3.014-9.79-4.391-15.012-2.972
					c-5.458,1.483-9.997,5.56-12.94,10.369c-6.817,11.14-4.842,25.151-4.7,37.585c0.013,1.125,0.01,2.25-0.011,3.376
					c-0.093,1.627-0.232,3.25-0.446,4.866c-0.435,3.29-1.263,6.473-2.176,9.654c-1.707,5.952-3.231,11.918-1.779,18.105
					c1.309,5.577,4.566,10.673,8.98,14.224c8.994,7.233,22.128,7.156,31.617,0.952c9.522-6.225,14.844-17.409,17.165-28.362
					c2.658-12.54,1.952-25.778-1.78-38.016C198.696,247.542,196.033,241.602,192.645,236.131z"/>
			</g>
			<g>
				<g>
					<path style="fill:#FFFFFF;" d="M389.816,343.48c-4.354-1.573-8.708-3.146-13.063-4.719c0.308-0.631,0.625-1.259,0.956-1.883
						c0.396-0.745-0.901-1.112-1.297-0.366c-3.427,6.457-5.583,13.299-6.411,20.128c-0.827,6.829-0.34,13.624,1.454,20.053
						c0.935,3.352,2.252,6.57,3.886,9.655c1.875,3.541,4.055,6.948,5.57,10.652c1.119,2.737,1.825,5.984,1.618,9.199
						c-0.215,0.921-0.518,1.822-0.913,2.686c-0.841,1.842-2.039,3.491-3.516,4.859c-1.605,1.486-3.528,2.449-5.52,3.278
						c-3.646,1.518-7.925,3.208-9.337,7.352c-1.217,3.573,0.955,7.163,4.061,8.822c3.845,2.053,8.272,0.815,11.922-1.163
						c1.088-0.405,2.139-0.902,3.195-1.382c5.41-2.461,9.86-6.612,12.115-11.474c2.774-5.981,3.072-12.484,2.099-18.448
						c-1.032-6.327-3.63-12.109-6.27-17.893c-1.359-2.977-2.682-5.978-3.641-9.106c-0.311-1.566-0.571-3.146-0.765-4.742
						c-0.794-6.542-0.503-13.405,2.006-20.001c0.612-1.61,1.354-3.193,2.211-4.739C390.358,343.921,390.141,343.597,389.816,343.48z
						"/>
					<g>
						<path style="fill:#221F1F;" d="M389.925,343c-4.354-1.573-8.709-3.146-13.063-4.719c0.107,0.236,0.213,0.473,0.32,0.709
							c0.415-0.846,1.995-2.983,0.208-3.352c-0.527-0.109-1.023,0.114-1.335,0.542c-0.573,0.785-0.959,1.825-1.374,2.706
							c-1.634,3.468-2.947,7.099-3.883,10.825c-1.962,7.807-2.229,16.043-0.583,23.935c0.859,4.118,2.265,8.09,4.138,11.842
							c1.96,3.924,4.434,7.582,6.095,11.66c0.762,1.87,1.299,3.848,1.517,5.863c0.103,0.949,0.193,1.96,0.095,2.913
							c-0.109,1.07-0.584,2.153-1.051,3.106c-0.874,1.785-2.109,3.413-3.617,4.692c-1.585,1.343-3.471,2.211-5.364,2.999
							c-2.751,1.145-5.696,2.363-7.674,4.723c-2.065,2.463-2.538,5.791-0.942,8.639c1.59,2.836,4.656,4.521,7.818,4.653
							c3.478,0.145,6.505-1.477,9.604-2.831c3.394-1.483,6.565-3.261,9.279-5.847c2.557-2.437,4.48-5.383,5.708-8.721
							c2.607-7.088,2.163-14.952,0.031-22.101c-1.292-4.331-3.157-8.449-5.025-12.547c-0.875-1.92-1.738-3.848-2.497-5.82
							c-0.377-0.979-0.759-1.973-1.05-2.984c-0.338-1.176-0.494-2.429-0.669-3.641c-1.137-7.918-0.617-16.116,2.795-23.423
							c0.374-0.802,0.901-1.582,1.219-2.405c0.233-0.602-0.045-1.092-0.585-1.374c-0.555-0.289-1.005,0.583-0.45,0.873
							c0.244,0.127-0.977,2.31-1.102,2.58c-0.405,0.876-0.773,1.768-1.106,2.674c-0.628,1.71-1.127,3.465-1.491,5.252
							c-0.699,3.432-0.915,6.959-0.761,10.457c0.169,3.842,0.617,7.78,1.941,11.395c1.393,3.801,3.206,7.42,4.812,11.128
							c3.05,7.044,5.339,14.508,4.648,22.293c-0.317,3.578-1.259,7.19-2.974,10.345c-1.589,2.925-3.913,5.414-6.566,7.365
							c-1.438,1.057-2.979,1.967-4.592,2.718c-1.675,0.78-3.363,1.55-5.053,2.29c-2.857,1.251-6.175,1.931-9.147,0.669
							c-2.963-1.258-5.416-4.475-4.688-7.868c0.667-3.108,3.366-5.026,6.012-6.324c3.016-1.479,6.265-2.404,8.822-4.715
							c2.371-2.143,4.65-5.541,4.699-8.87c0.119-8.016-5.027-14.338-8.295-21.204c-6.718-14.116-5.798-30.784,0.786-44.758
							c0.372-0.789,0.752-1.577,1.167-2.344c0.07-0.129,0.248-0.559,0.505-0.377c0.132,0.094-0.137,0.423-0.209,0.563
							c-0.23,0.446-0.454,0.896-0.676,1.347c-0.152,0.309,0.026,0.603,0.32,0.709c4.354,1.573,8.709,3.146,13.063,4.719
							C390.295,344.172,390.506,343.21,389.925,343z"/>
					</g>
				</g>
				<g>
					<g>
						<path style="fill:#FFFFFF;" d="M386.738,255.162c-3.361-3.209-7.27-5.846-11.595-7.498
							c-7.961-3.042-17.938,0.011-24.409,6.167c-5.487,5.22-8.444,10.432-5.983,17.729c-0.022,0.079-0.023,0.169,0.01,0.27
							c1.429,4.326,4.943,7.739,9.219,9.093c4.334,1.373,5.107,1.171,8.611-1.697c1.855-1.518,3.705-4.273,8.076-6.66
							c1.565,1.027,3.007,2.307,4.347,3.541c2.831,2.607,5.852,5.442,9.681,6.36c3.865,0.926,7.556-0.825,9.594-4.246
							c2.188-3.674,2.023-8.052,0.482-11.937C393.081,262.022,390.003,258.279,386.738,255.162z"/>
						<g>
							<g>
								<path style="fill:#221F1F;" d="M387.064,254.798c-5.038-4.777-11.541-8.803-18.615-8.816
									c-6.647-0.012-13.242,2.942-18.072,7.517c-4.087,3.871-7.615,8.792-6.881,14.768c0.375,3.058,1.435,6.009,3.394,8.394
									c2.226,2.71,5.191,4.309,8.51,5.196c1.293,0.346,2.655,0.576,3.948,0.105c1.425-0.519,2.691-1.603,3.824-2.593
									c1.008-0.881,1.899-1.895,2.872-2.816c1.479-1.402,3.111-2.59,4.886-3.573c-0.162,0.007-0.324,0.015-0.487,0.022
									c5.595,3.733,10.881,11.999,18.622,9.893c3.295-0.896,5.702-3.661,6.75-6.891c1.075-3.316,0.615-6.965-0.692-10.139
									C393.361,261.581,390.356,257.958,387.064,254.798c-0.453-0.435-1.107,0.292-0.652,0.728
									c4.883,4.688,10.205,11.473,8.831,18.801c-0.622,3.317-2.766,6.405-6,7.486c-3.327,1.112-6.716-0.296-9.435-2.258
									c-3.142-2.266-5.685-5.272-8.915-7.427c-0.148-0.099-0.344-0.057-0.487,0.022c-2.542,1.408-4.644,3.271-6.682,5.336
									c-0.91,0.922-1.872,1.757-2.917,2.518c-0.935,0.681-1.916,1.253-3.096,1.247c-1.424-0.006-2.948-0.537-4.268-1.034
									c-1.523-0.574-2.943-1.429-4.176-2.503c-2.419-2.108-3.771-4.794-4.51-7.882c-0.62-2.588-0.513-5.297,0.47-7.778
									c0.994-2.51,2.689-4.656,4.535-6.572c4.42-4.59,10.228-7.793,16.571-8.412c3.597-0.351,7.051,0.267,10.343,1.764
									c3.603,1.64,6.854,3.958,9.736,6.691C386.868,255.959,387.521,255.232,387.064,254.798z"/>
								<path style="fill:#221F1F;" d="M389.455,282.951c-0.115,0.037-0.231,0.071-0.348,0.102
									c-5.685,1.546-9.985-2.345-14.143-6.108c-1.482-1.342-2.888-2.614-4.325-3.613c-1.63,0.941-3.137,2.063-4.485,3.341
									c-0.396,0.375-0.786,0.773-1.162,1.159c-0.547,0.559-1.114,1.137-1.714,1.662c-1.059,0.926-2.377,2.078-3.874,2.623
									c-1.364,0.501-2.811,0.229-4.044-0.1c-3.69-0.986-6.501-2.703-8.593-5.249c-1.838-2.238-3.025-5.17-3.431-8.479
									c-0.617-5.03,1.65-9.907,6.931-14.909c5.086-4.817,11.713-7.573,18.182-7.561c7.765,0.014,14.465,4.822,18.719,8.855
									c0.002,0.002,0.004,0.004,0.006,0.006c0.002,0.002,0.004,0.004,0.006,0.005c3.912,3.756,6.559,7.393,8.091,11.118
									c1.45,3.524,1.698,7.166,0.696,10.254C394.868,279.449,392.448,282,389.455,282.951z M370.953,273.155
									c1.408,0.995,2.78,2.237,4.225,3.546c4.094,3.705,8.328,7.537,13.845,6.036c3.047-0.829,5.53-3.365,6.638-6.783
									c0.977-3.013,0.733-6.572-0.687-10.024c-1.462-3.554-3.957-7.032-7.617-10.619c-0.03,0.109-0.087,0.21-0.163,0.293
									c-0.076,0.083-0.173,0.149-0.278,0.186c6.71,6.571,9.564,12.817,8.484,18.569c-0.688,3.665-3.028,6.581-6.108,7.611
									c-3.626,1.211-7.21-0.571-9.579-2.28c-1.47-1.06-2.828-2.298-4.141-3.496c-1.272-1.159-2.58-2.352-3.994-3.386l-0.571,0.316
									C370.989,273.135,370.971,273.145,370.953,273.155z M370.482,271.94c0.181-0.057,0.36-0.04,0.499,0.052
									c1.737,1.159,3.297,2.581,4.806,3.957c1.307,1.191,2.658,2.423,4.113,3.473c2.309,1.665,5.798,3.403,9.292,2.235
									c2.969-0.993,5.226-3.813,5.892-7.361c1.078-5.746-1.877-12.021-8.783-18.651c-3.027-2.871-6.288-5.112-9.691-6.66
									c-3.305-1.504-6.757-2.093-10.262-1.751c-5.991,0.585-11.84,3.555-16.471,8.363c-2.223,2.308-3.653,4.38-4.5,6.518
									c-0.939,2.369-1.099,5.024-0.463,7.678c0.797,3.326,2.255,5.877,4.458,7.796c1.232,1.074,2.621,1.906,4.127,2.474
									c1.306,0.492,2.816,1.018,4.213,1.024c1.162,0.005,2.129-0.582,3.001-1.217c1.025-0.747,1.973-1.565,2.897-2.501
									c1.766-1.79,3.946-3.827,6.719-5.363C370.38,271.979,370.431,271.957,370.482,271.94z M361.108,247.306
									c-3.855,1.224-7.526,3.383-10.621,6.314c-5.2,4.925-7.435,9.71-6.831,14.628c0.398,3.247,1.559,6.12,3.358,8.309
									c2.047,2.492,4.804,4.174,8.427,5.142c1.184,0.316,2.567,0.574,3.853,0.109c1.441-0.525,2.734-1.655,3.773-2.563
									c0.591-0.516,1.152-1.09,1.695-1.645c0.379-0.387,0.771-0.788,1.171-1.167c1.328-1.259,2.807-2.368,4.405-3.305
									l-0.402-0.268l1.615-0.072c-0.246-0.179-0.495-0.353-0.747-0.522c-0.09-0.06-0.229-0.022-0.321,0.029
									c-2.737,1.517-4.895,3.534-6.645,5.308c-0.936,0.949-1.897,1.779-2.937,2.536c-0.916,0.667-1.937,1.284-3.19,1.278
									c-1.45-0.006-2.992-0.542-4.323-1.045c-1.542-0.581-2.964-1.433-4.225-2.532c-2.257-1.966-3.749-4.572-4.562-7.968
									c-0.652-2.721-0.487-5.445,0.477-7.879c0.864-2.18,2.316-4.286,4.569-6.626c4.684-4.864,10.604-7.869,16.671-8.46
									c3.561-0.347,7.068,0.251,10.424,1.778c3.284,1.495,6.436,3.626,9.375,6.341c0.056-0.223,0.222-0.411,0.432-0.489
									c-4.226-3.91-10.678-8.378-18.1-8.392C365.994,246.142,363.514,246.542,361.108,247.306z M386.522,255.407
									c0.162,0.154,0.337,0.082,0.437-0.027c0.082-0.09,0.174-0.287,0-0.456c-0.002-0.002-0.004-0.003-0.005-0.005
									c-0.001-0.001-0.003-0.003-0.004-0.004c-0.084-0.078-0.175-0.103-0.272-0.073c-0.001,0-0.002,0.001-0.003,0.001
									c-0.117,0.037-0.218,0.149-0.247,0.273C386.41,255.189,386.412,255.301,386.522,255.407z"/>
							</g>
						</g>
					</g>
					<g>
						<path style="fill:#FFFFFF;" d="M428.451,317.585c-0.499-0.64-1.027-1.255-1.568-1.846c-2.185-2.998-4.903-5.671-7.759-7.981
							c-3.731-3.684-7.814-6.996-12.172-9.882c-3.034-2.009-6.203-3.807-9.479-5.372c-1.612-0.77-3.252-1.545-4.943-2.118
							c-0.715-0.242-1.46-0.424-2.208-0.494c-2.003-0.978-4.034-1.866-6.032-2.738c-1.015-0.444-2.065-0.902-3.087-1.362
							c-5.536-2.493-10.103-5.283-13.963-8.53c-8.314-6.993-14.617-16.625-17.751-27.121c-0.75-2.512-1.326-5.162-1.713-7.876
							c-0.082-0.575-0.406-1.075-0.89-1.372c-0.497-0.306-1.1-0.366-1.658-0.166c-10.265,3.69-20.915,6.411-31.653,8.089
							c-5.364,0.838-10.827,1.428-16.235,1.754c-4.474,0.27-9.033,0.252-13.441,0.235c-0.875-0.003-1.75-0.007-2.626-0.008
							c-3.239-0.005-7.137,0.274-10.047,2.208c-0.161-0.149-0.35-0.27-0.561-0.355c-0.646-0.262-1.386-0.153-1.93,0.284
							c-0.524,0.421-0.779,1.082-0.681,1.768c0.076,0.529,0.152,1.057,0.23,1.585c-0.099,0.196-0.191,0.394-0.274,0.594
							c-0.287,0.692-0.164,1.461,0.323,2.009c0.116,0.131,0.247,0.243,0.389,0.337c2.128,14.036,4.49,25.325,7.415,35.465
							c3.836,13.291,8.922,25.174,15.117,35.318c6.843,11.204,15.037,20.407,24.354,27.354c8.702,6.488,18.684,11.067,28.866,13.241
							c1.894,0.404,3.788,0.721,5.676,0.954c9.167,2.077,18.709,2.231,28.037,1.08c6.01-0.742,11.954-1.997,17.791-3.622
							c5.672-1.579,11.392-3.363,16.672-6.033c4.968-2.511,9.873-6.13,12.49-11.251c1.199-2.347,1.952-5.312,1.036-7.892
							c-0.057-0.162-0.121-0.319-0.19-0.472c-0.07-0.266-0.147-0.531-0.239-0.792c-0.849-2.403-2.7-4.465-5.042-5.418
							c-2.753-1.12-5.603-0.388-8.231,0.739c-1.526,0.655-3.039,1.325-4.56,1.972c1.248-3.021,2.163-6.138,2.726-9.297
							c1.681,1.332,3.354,2.674,5.121,3.881c2.475,1.69,5.389,3.196,8.457,2.972c1.207-0.088,2.331-0.449,3.328-1.025
							c2.548-1.03,4.555-3.488,5.164-6.313C433.726,325.385,431.531,320.958,428.451,317.585z"/>
						<path style="fill:#C87629;" d="M384.149,352.116c-3.895-1.302-8.038-0.984-12.023-0.343c-3.94,0.634-7.872,1.579-11.886,1.38
							c-3.285-0.163-6.776-1.055-9.21-3.432c-3.041-2.97-3.174-7.444-3.712-11.423c-0.498-3.681-1.494-7.225-4.271-9.804
							c-4.871-4.524-12.597-4.872-18.365-2.073c-7.214,3.501-11.942,10.78-15.394,17.843c-0.896,1.834-1.71,3.741-2.308,5.708
							c2.755,2.691,5.633,5.158,8.628,7.392c8.702,6.488,18.684,11.067,28.866,13.241c1.894,0.404,3.788,0.721,5.676,0.954
							c9.167,2.077,18.709,2.231,28.037,1.08c6.01-0.742,11.954-1.997,17.791-3.622c0.287-0.08,0.573-0.161,0.86-0.242
							c-0.206-3.732-1.479-7.396-3.827-10.379C390.719,355.482,387.637,353.283,384.149,352.116z"/>
						<path style="fill:#434244;" d="M320.673,337.872c-2.231-2.004-4.006-4.451-5.576-7.008
							c-3.199-5.211-5.604-10.951-9.654-15.581c-3.399-3.885-8.321-6.943-13.591-6.677c-3.555,0.18-7.011,2.191-8.899,5.252
							c2.489,5.777,5.262,11.175,8.303,16.153c6.843,11.204,15.037,20.407,24.354,27.354c2.258,1.684,4.603,3.237,7.014,4.655
							c3.208-1.138,5.956-3.46,7.498-6.655c0.964-1.997,1.355-4.244,0.912-6.437c-0.499-2.469-2.108-4.505-3.953-6.106
							C325.037,341.048,322.688,339.681,320.673,337.872z"/>
						<g>
							<path style="fill:#221F1F;" d="M428.814,317.262c-1.908-2.414-3.858-4.831-6.07-6.966c-1.161-1.12-2.46-2.09-3.611-3.214
								c-1.132-1.106-2.297-2.177-3.491-3.214c-4.821-4.184-10.127-7.804-15.777-10.723c-2.691-1.39-5.608-3.02-8.596-3.61
								c-1.597-0.316-3.073-1.194-4.565-1.856c-1.476-0.655-2.96-1.293-4.436-1.948c-5.586-2.481-10.923-5.501-15.556-9.567
								c-9.3-8.162-15.875-19.566-18.122-31.87c-0.23-1.258-0.159-2.865-1.283-3.699c-1.202-0.892-2.467-0.247-3.707,0.186
								c-3.172,1.107-6.376,2.122-9.605,3.042c-6.565,1.869-13.237,3.355-19.972,4.427c-6.663,1.06-13.403,1.77-20.146,1.983
								c-3.331,0.105-6.663,0.092-9.995,0.08c-2.97-0.011-5.972-0.1-8.884,0.595c-1.324,0.316-2.592,0.809-3.759,1.515
								c-1.37-0.817-3.279-0.231-3.64,1.499c-0.196,0.939,0.338,1.83-0.018,2.731c-0.337,0.852-0.245,1.79,0.344,2.504
								c0.115,0.139,0.276,0.247,0.361,0.41c0.119,0.227,0.108,0.708,0.148,0.965c0.082,0.53,0.165,1.059,0.248,1.588
								c0.203,1.284,0.412,2.566,0.627,3.848c0.396,2.358,0.813,4.712,1.257,7.061c1.623,8.587,3.6,17.117,6.202,25.454
								c5.564,17.832,14.078,35.015,26.797,48.691c11.998,12.901,27.865,22.235,45.283,24.707c2.313,0.328,4.59,0.877,6.906,1.203
								c2.343,0.33,4.701,0.549,7.063,0.665c4.649,0.228,9.315,0.053,13.942-0.45c9.892-1.074,19.812-3.454,29.168-6.893
								c7.717-2.836,16.494-7.186,20.028-15.262c0.822-1.878,1.326-3.986,1.023-6.045c-0.135-0.918-0.463-1.799-0.769-2.669
								c-0.353-1.004-0.87-1.955-1.522-2.79c-0.498-0.639-1.072-1.216-1.706-1.711c0.839,0.049,1.692-0.01,2.558-0.209
								c2.458-0.566,4.837-2.132,6.252-4.257c1.517-2.277,1.929-5.111,1.467-7.793C432.708,322.46,430.945,319.635,428.814,317.262z
								 M431.379,332.274c-1.175,2.152-3.269,3.643-5.562,4.353c-2.489,0.771-5.083,0.071-7.333-1.096
								c-2.722-1.412-5.118-3.42-7.517-5.321c-0.087-0.069-0.195-0.108-0.302-0.115c-1.292-0.97-2.583-1.939-3.875-2.909
								c-0.496-0.372-1.155,0.351-0.652,0.728c1.317,0.989,2.634,1.977,3.95,2.965c-0.57,2.981-1.432,5.888-2.575,8.695
								c-1.547,0.88-3.23,1.417-5.009,1.588c-0.618,0.059-0.589,1.045,0.032,0.985c2.082-0.2,4.051-0.851,5.838-1.943
								c3.688-1.616,8.05-4.226,12.107-2.609c1.879,0.749,3.43,2.264,4.354,4.078c0.925,1.817,1.471,3.915,1.166,5.958
								c-0.608,4.067-3.392,7.605-6.385,10.203c-3.219,2.794-7.037,4.804-10.929,6.435c-4.364,1.829-8.904,3.197-13.457,4.443
								c-4.644,1.271-9.354,2.308-14.111,3.028c-8.839,1.337-17.884,1.589-26.726,0.142c-2.18-0.357-4.34-0.793-6.521-1.144
								c-2.158-0.347-4.299-0.803-6.414-1.359c-4.026-1.058-7.956-2.476-11.747-4.215c-7.589-3.481-14.546-8.234-20.698-13.932
								c-12.735-11.795-21.792-27.171-27.987-43.407c-3.046-7.983-5.417-16.215-7.335-24.548c-0.937-4.067-1.767-8.159-2.52-12.265
								c-0.43-2.346-0.835-4.698-1.219-7.052c-0.188-1.154-0.371-2.308-0.549-3.463c-0.065-0.417-0.042-1.03-0.219-1.418
								c-0.262-0.576-0.878-0.734-0.842-1.509c0.021-0.453,0.329-0.754,0.414-1.174c0.106-0.52-0.185-1.184-0.217-1.713
								c-0.081-1.32,1.257-2.22,2.361-1.317c0.17,0.139,0.398,0.173,0.588,0.05c2.673-1.72,5.905-2.077,9.001-2.124
								c3.112-0.048,6.226,0.028,9.338,0.001c6.652-0.057,13.285-0.549,19.881-1.426c6.478-0.861,12.909-2.09,19.252-3.68
								c3.207-0.804,6.392-1.7,9.549-2.687c1.603-0.501,3.198-1.026,4.786-1.573c0.731-0.252,1.499-0.629,2.257-0.775
								c1.113-0.214,1.649,0.588,1.81,1.596c1.916,11.988,7.525,23.096,16.03,31.636c4.111,4.128,8.861,7.468,14.007,10.119
								c2.845,1.465,5.797,2.692,8.719,3.986c0.689,0.305,1.377,0.614,2.061,0.929c0.699,0.322,1.43,0.799,2.175,0.968
								c1.553,0.352,2.981,0.773,4.453,1.42c5.816,2.556,11.338,5.816,16.397,9.697c2.506,1.923,4.902,3.994,7.171,6.201
								c1.084,1.055,2.297,1.971,3.398,3.013c1.16,1.099,2.268,2.257,3.296,3.485c1.004,1.2,2.006,2.419,2.976,3.647
								c0.012,0.015,0.025,0.027,0.038,0.04c0.013,0.02,0.026,0.039,0.043,0.058C431.508,321.698,434.052,327.38,431.379,332.274z
								 M417.42,336.123c-1.064,0.043-2.127,0.259-3.144,0.576c-1.876,0.585-3.676,1.448-5.48,2.252
								c0.926-2.434,1.654-4.937,2.165-7.497C412.918,333.025,415.087,334.819,417.42,336.123z"/>
							<path style="fill:#221F1F;" d="M400.57,368.414c-7.838,2.488-15.817,4.182-23.793,5.048
								c-4.778,0.519-9.477,0.67-13.967,0.451c-2.392-0.117-4.773-0.341-7.077-0.666c-1.169-0.165-2.344-0.389-3.482-0.606
								c-1.12-0.214-2.279-0.435-3.425-0.597c-16.607-2.357-32.723-11.15-45.378-24.757c-11.604-12.477-20.632-28.881-26.833-48.754
								c-2.376-7.615-4.406-15.947-6.206-25.473c-0.425-2.246-0.848-4.623-1.257-7.064c-0.214-1.277-0.426-2.573-0.628-3.849
								c-0.084-0.53-0.166-1.059-0.248-1.589c-0.013-0.086-0.021-0.191-0.029-0.303c-0.016-0.215-0.035-0.484-0.102-0.61
								c-0.041-0.078-0.113-0.148-0.188-0.221c-0.052-0.05-0.105-0.102-0.154-0.161c-0.603-0.732-0.742-1.73-0.37-2.671
								c0.178-0.452,0.111-0.91,0.04-1.394c-0.062-0.42-0.126-0.855-0.031-1.309c0.169-0.809,0.664-1.435,1.395-1.764
								c0.765-0.343,1.654-0.301,2.4,0.109c1.113-0.661,2.365-1.161,3.725-1.485c2.669-0.637,5.439-0.62,8.119-0.603
								c0.268,0.002,0.535,0.003,0.803,0.004l0.022,0c3.268,0.012,6.647,0.025,9.967-0.08c6.354-0.201,13.125-0.867,20.126-1.981
								c6.65-1.058,13.363-2.546,19.954-4.423c3.209-0.914,6.438-1.936,9.596-3.039c0.146-0.051,0.292-0.105,0.439-0.159
								c1.125-0.414,2.287-0.843,3.416-0.005c0.944,0.701,1.095,1.912,1.229,2.981c0.036,0.288,0.07,0.561,0.118,0.82
								c2.232,12.225,8.649,23.509,18.068,31.776c4.115,3.611,9.19,6.732,15.515,9.54c0.74,0.329,1.481,0.652,2.223,0.976
								c0.738,0.323,1.476,0.645,2.213,0.972c0.397,0.176,0.799,0.371,1.189,0.559c1.076,0.52,2.189,1.058,3.343,1.286
								c2.707,0.535,5.303,1.888,7.814,3.197c0.277,0.144,0.552,0.288,0.825,0.429c5.621,2.904,10.94,6.518,15.808,10.744
								c1.194,1.036,2.371,2.12,3.498,3.22c0.584,0.57,1.22,1.112,1.834,1.635c0.592,0.505,1.205,1.027,1.776,1.578
								c2.205,2.127,4.135,4.515,6.082,6.978c2.481,2.762,3.989,5.618,4.483,8.487c0.5,2.906-0.03,5.716-1.493,7.913
								c-1.41,2.118-3.784,3.735-6.35,4.325c-0.687,0.158-1.398,0.235-2.117,0.229c0.493,0.427,0.948,0.906,1.356,1.429
								c0.664,0.85,1.184,1.805,1.547,2.837l0.075,0.212c0.283,0.801,0.575,1.629,0.702,2.488c0.276,1.873-0.072,3.938-1.035,6.136
								c-3.719,8.497-13.264,12.83-20.121,15.35C404.187,367.221,402.382,367.839,400.57,368.414z M269.205,252.334
								c-0.081,0.026-0.16,0.056-0.237,0.091c-0.634,0.285-1.063,0.829-1.21,1.532c-0.083,0.396-0.026,0.783,0.034,1.193
								c0.074,0.507,0.151,1.031-0.06,1.565c-0.326,0.826-0.208,1.7,0.318,2.337c0.037,0.045,0.082,0.088,0.129,0.134
								c0.087,0.084,0.185,0.179,0.251,0.304c0.098,0.187,0.12,0.481,0.139,0.74c0.008,0.104,0.015,0.203,0.026,0.276
								c0.082,0.53,0.165,1.059,0.248,1.588c0.202,1.275,0.413,2.569,0.627,3.846c0.409,2.439,0.832,4.813,1.256,7.057
								c1.798,9.513,3.825,17.834,6.197,25.436c6.186,19.826,15.19,36.186,26.76,48.628c12.605,13.554,28.653,22.311,45.188,24.658
								c1.153,0.164,2.316,0.385,3.439,0.6c1.133,0.216,2.305,0.44,3.466,0.603c2.295,0.323,4.666,0.547,7.049,0.663
								c4.473,0.219,9.155,0.068,13.917-0.449c9.794-1.063,19.596-3.379,29.131-6.884c6.801-2.5,16.267-6.792,19.936-15.174
								c0.937-2.141,1.277-4.144,1.01-5.954c-0.121-0.827-0.409-1.639-0.686-2.425l-0.075-0.212
								c-0.351-0.998-0.854-1.922-1.496-2.744c-0.494-0.633-1.058-1.199-1.678-1.683l-0.416-0.325l0.524,0.031
								c0.855,0.05,1.701-0.019,2.513-0.206c2.487-0.572,4.789-2.139,6.154-4.189c1.415-2.126,1.927-4.85,1.442-7.672
								c-0.483-2.808-1.966-5.61-4.406-8.326l-0.007-0.008c-1.94-2.456-3.864-4.835-6.055-6.949
								c-0.564-0.544-1.173-1.063-1.761-1.565c-0.618-0.527-1.258-1.072-1.85-1.65c-1.122-1.096-2.294-2.175-3.483-3.207
								c-4.849-4.209-10.146-7.809-15.745-10.701c-0.273-0.141-0.548-0.284-0.826-0.429c-2.491-1.298-5.066-2.64-7.728-3.167
								c-1.194-0.236-2.326-0.783-3.42-1.312c-0.387-0.187-0.786-0.38-1.179-0.555c-0.736-0.327-1.474-0.649-2.211-0.971
								c-0.742-0.324-1.484-0.649-2.225-0.977c-6.355-2.822-11.457-5.96-15.597-9.593c-4.664-4.093-8.614-8.946-11.74-14.423
								c-3.154-5.526-5.319-11.428-6.435-17.541c-0.049-0.269-0.084-0.546-0.121-0.839c-0.132-1.052-0.268-2.14-1.099-2.757
								c-0.99-0.735-2.023-0.355-3.116,0.048c-0.148,0.055-0.296,0.109-0.444,0.161c-3.165,1.104-6.399,2.129-9.614,3.044
								c-6.603,1.88-13.329,3.371-19.991,4.431c-7.014,1.116-13.799,1.784-20.166,1.985c-3.326,0.105-6.708,0.092-9.979,0.08h-0.022
								c-0.268-0.001-0.535-0.003-0.804-0.004c-2.661-0.016-5.412-0.033-8.043,0.594c-1.359,0.325-2.609,0.828-3.714,1.496
								l-0.082,0.049l-0.082-0.049C270.569,252.213,269.842,252.132,269.205,252.334z M401.528,367.044
								c-2.184,0.693-4.302,1.294-6.256,1.828c-4.845,1.326-9.599,2.346-14.13,3.032c-9.528,1.442-18.537,1.49-26.775,0.142
								c-1.053-0.172-2.118-0.366-3.148-0.553c-1.104-0.201-2.246-0.409-3.373-0.59c-2.127-0.342-4.29-0.801-6.429-1.363
								c-3.984-1.047-7.945-2.468-11.773-4.224c-7.451-3.418-14.428-8.114-20.74-13.96c-11.742-10.876-21.173-25.501-28.029-43.469
								c-2.859-7.492-5.26-15.53-7.342-24.57c-0.895-3.887-1.719-7.901-2.521-12.272c-0.417-2.275-0.827-4.649-1.22-7.056
								c-0.187-1.147-0.372-2.313-0.549-3.465c-0.022-0.14-0.033-0.295-0.046-0.46c-0.024-0.318-0.052-0.678-0.16-0.915
								c-0.087-0.192-0.222-0.334-0.363-0.484c-0.243-0.257-0.518-0.548-0.493-1.101c0.013-0.29,0.126-0.517,0.234-0.736
								c0.077-0.155,0.15-0.302,0.183-0.464c0.058-0.285-0.023-0.643-0.102-0.988c-0.052-0.228-0.105-0.464-0.119-0.681
								c-0.044-0.716,0.305-1.377,0.888-1.685c0.552-0.292,1.202-0.207,1.735,0.229c0.099,0.081,0.255,0.133,0.401,0.04
								c2.821-1.815,6.175-2.105,9.085-2.15c1.7-0.026,3.428-0.015,5.099-0.005c1.39,0.009,2.827,0.018,4.24,0.005
								c6.486-0.056,13.169-0.535,19.862-1.424c6.451-0.857,12.922-2.094,19.235-3.677c3.197-0.801,6.407-1.705,9.54-2.685
								c1.589-0.497,3.198-1.025,4.781-1.572c0.236-0.081,0.471-0.174,0.72-0.272c0.508-0.201,1.034-0.408,1.559-0.508
								c0.473-0.091,0.881-0.018,1.212,0.218c0.403,0.287,0.675,0.81,0.787,1.512c1.902,11.902,7.578,23.105,15.984,31.546
								c3.928,3.944,8.627,7.339,13.966,10.089c2.212,1.139,4.528,2.151,6.769,3.13c0.648,0.283,1.296,0.566,1.942,0.852
								c0.806,0.357,1.462,0.653,2.063,0.93c0.217,0.1,0.439,0.216,0.654,0.328c0.487,0.254,0.991,0.517,1.489,0.629
								c1.756,0.398,3.138,0.839,4.482,1.429c5.848,2.57,11.376,5.839,16.431,9.717c2.505,1.922,4.922,4.012,7.185,6.214
								c0.569,0.553,1.186,1.079,1.783,1.588c0.536,0.457,1.091,0.93,1.613,1.424c1.216,1.151,2.33,2.328,3.309,3.499
								c1.16,1.386,2.106,2.546,2.979,3.651c0.003,0.004,0.008,0.008,0.012,0.012l0.033,0.037c0.014,0.021,0.021,0.031,0.029,0.041
								c3.374,3.739,6.007,9.516,3.276,14.515c-1.119,2.049-3.178,3.662-5.656,4.43c-2.21,0.685-4.717,0.312-7.453-1.107
								c-2.427-1.259-4.613-3.002-6.726-4.688c-0.273-0.217-0.545-0.434-0.817-0.65c-0.059-0.047-0.135-0.075-0.214-0.081
								l-0.047-0.003l-0.038-0.028l-3.875-2.909c-0.209-0.158-0.426-0.025-0.513,0.095c-0.046,0.064-0.134,0.228,0.052,0.368
								l4.033,3.027l-0.02,0.102c-0.57,2.981-1.44,5.917-2.585,8.727l-0.022,0.053l-0.049,0.028
								c-1.574,0.895-3.281,1.436-5.073,1.608c-0.244,0.023-0.314,0.248-0.301,0.394c0.006,0.068,0.047,0.289,0.303,0.264
								c2.067-0.198,4.008-0.844,5.77-1.92l0.019-0.01c0.525-0.23,1.055-0.477,1.616-0.737c3.315-1.54,7.073-3.285,10.614-1.874
								c1.852,0.738,3.47,2.253,4.439,4.156c0.737,1.446,1.539,3.671,1.182,6.059c-0.67,4.476-3.871,8.073-6.44,10.303
								c-2.831,2.458-6.317,4.511-10.972,6.462C406.347,365.429,403.898,366.291,401.528,367.044z M269.611,253.22
								c-0.067,0.021-0.133,0.049-0.197,0.083c-0.47,0.248-0.75,0.787-0.714,1.373c0.012,0.19,0.06,0.402,0.111,0.627
								c0.086,0.38,0.176,0.774,0.103,1.129c-0.041,0.204-0.128,0.378-0.211,0.545c-0.098,0.197-0.19,0.383-0.2,0.603
								c-0.019,0.412,0.167,0.609,0.403,0.858c0.154,0.163,0.314,0.331,0.424,0.574c0.132,0.291,0.162,0.682,0.189,1.028
								c0.012,0.158,0.024,0.307,0.043,0.434c0.178,1.151,0.363,2.316,0.549,3.462c0.392,2.405,0.802,4.776,1.219,7.049
								c0.801,4.366,1.624,8.376,2.518,12.257c2.078,9.026,4.475,17.049,7.329,24.526c6.838,17.921,16.24,32.504,27.945,43.345
								c6.286,5.822,13.236,10.5,20.656,13.903c3.811,1.748,7.755,3.163,11.721,4.205c2.129,0.559,4.282,1.016,6.399,1.356
								c1.131,0.182,2.274,0.39,3.38,0.591c1.029,0.187,2.092,0.381,3.142,0.552c8.206,1.342,17.181,1.294,26.676-0.143
								c4.518-0.684,9.26-1.701,14.093-3.024c4.064-1.112,8.84-2.51,13.438-4.436c4.622-1.937,8.081-3.973,10.886-6.408
								c2.526-2.193,5.675-5.727,6.33-10.103c0.344-2.301-0.435-4.455-1.15-5.858c-0.934-1.833-2.49-3.291-4.27-4.001
								c-3.414-1.361-7.105,0.354-10.362,1.867c-0.559,0.26-1.087,0.505-1.613,0.736c-1.801,1.098-3.785,1.757-5.897,1.96
								c-0.41,0.039-0.627-0.263-0.654-0.561c-0.031-0.334,0.167-0.711,0.592-0.752c1.728-0.166,3.375-0.684,4.897-1.54
								c1.113-2.741,1.962-5.603,2.525-8.509l-3.868-2.904c-0.275-0.206-0.324-0.547-0.121-0.828
								c0.206-0.283,0.622-0.422,0.965-0.165l3.84,2.883c0.125,0.017,0.244,0.068,0.34,0.144c0.272,0.216,0.545,0.433,0.818,0.651
								c2.101,1.676,4.274,3.409,6.674,4.654c2.659,1.379,5.085,1.744,7.213,1.085c2.392-0.735,4.389-2.3,5.468-4.276l0.141,0.08
								l-0.141-0.08c2.647-4.846,0.066-10.479-3.232-14.134c-0.018-0.02-0.033-0.041-0.047-0.062
								c-0.017-0.017-0.029-0.029-0.04-0.043c-0.871-1.103-1.816-2.261-2.973-3.644c-0.972-1.161-2.076-2.329-3.283-3.471
								c-0.516-0.488-1.067-0.958-1.601-1.413c-0.601-0.512-1.222-1.041-1.798-1.602c-2.254-2.193-4.661-4.275-7.156-6.189
								c-5.034-3.862-10.539-7.117-16.364-9.677c-1.324-0.582-2.689-1.017-4.424-1.41c-0.538-0.122-1.06-0.394-1.566-0.658
								c-0.222-0.116-0.431-0.224-0.64-0.321c-0.6-0.277-1.254-0.571-2.059-0.928c-0.646-0.286-1.293-0.569-1.941-0.852
								c-2.245-0.981-4.566-1.995-6.787-3.138c-5.369-2.766-10.095-6.18-14.047-10.148c-4.24-4.258-7.778-9.159-10.516-14.567
								c-2.732-5.397-4.603-11.17-5.56-17.16c-0.068-0.427-0.237-0.999-0.654-1.296c-0.257-0.183-0.582-0.239-0.967-0.165
								c-0.496,0.096-1.008,0.297-1.502,0.492c-0.241,0.095-0.491,0.193-0.733,0.277c-1.587,0.547-3.2,1.077-4.79,1.575
								c-3.139,0.982-6.355,1.887-9.557,2.689c-6.324,1.586-12.807,2.825-19.27,3.684c-6.706,0.891-13.402,1.371-19.901,1.427
								c-1.415,0.012-2.853,0.003-4.244-0.006c-1.669-0.011-3.396-0.021-5.092,0.005c-2.865,0.044-6.165,0.328-8.918,2.099
								c-0.239,0.153-0.543,0.129-0.775-0.061C270.426,253.192,270.003,253.096,269.611,253.22z M418.007,336.263l-0.58,0.024
								c-0.976,0.04-2.02,0.231-3.103,0.569c-1.566,0.486-3.104,1.183-4.593,1.855c-0.29,0.131-0.58,0.262-0.87,0.391l-0.355,0.158
								l0.14-0.368c0.929-2.441,1.655-4.954,2.158-7.47l0.052-0.261l0.655,0.527c1.801,1.45,3.842,3.093,5.987,4.292
								L418.007,336.263z M411.067,331.749c-0.478,2.32-1.144,4.636-1.982,6.894c0.172-0.077,0.343-0.155,0.515-0.232
								c1.497-0.676,3.042-1.373,4.629-1.868c0.912-0.285,1.798-0.468,2.642-0.547c-1.994-1.18-3.881-2.699-5.56-4.051
								L411.067,331.749z"/>
						</g>
					</g>
					<g>
						<path style="fill:#FFFFFF;" d="M333.794,290.925c-1.551-4.417-3.846-8.579-6.953-12.059
							c-5.718-6.406-12.722-8.569-21.215-6.787c-7.355,1.543-15.459,6.288-16.542,13.923c-0.055,0.06-0.096,0.139-0.112,0.245
							c-0.669,4.513,0.927,9.183,4.123,12.374c3.241,3.236,6.623,4.448,11.026,3.525c2.331-0.489,4.001-3.765,7.27-5.233
							c0.932,1.641,1.939,5.477,2.578,7.197c1.35,3.635,2.765,7.561,5.76,10.157c3.023,2.62,7.093,2.778,10.441,0.681
							c3.595-2.252,5.411-6.224,5.783-10.397C336.36,299.975,335.3,295.215,333.794,290.925z"/>
						<g>
							<path style="fill:#221F1F;" d="M334.256,290.778c-2.417-6.804-6.655-13.511-12.979-17.146
								c-5.274-3.031-11.482-3.203-17.246-1.68c-4.457,1.178-9.133,3.456-12.217,7.093c-0.168,0.198-0.155,0.494,0.031,0.675
								c0.002,0.002,0.005,0.005,0.007,0.007c0.196,0.191,0.51,0.176,0.688-0.033c2.644-3.11,6.565-5.171,10.322-6.375
								c5.34-1.712,11.31-2,16.488,0.418c6.896,3.22,11.478,10.285,13.982,17.335c2.363,6.788,4.146,16.185-1.474,21.9
								c-2.455,2.496-6.146,3.705-9.468,2.367c-3.637-1.465-5.602-5.329-6.987-8.811c-0.679-1.709-1.276-3.437-1.831-5.191
								c-0.5-1.582-0.972-3.231-1.773-4.689c-0.092-0.168-0.37-0.289-0.551-0.204c-1.399,0.654-2.574,1.592-3.701,2.649
								c-0.192,0.18-0.385,0.37-0.581,0.563c-0.187,0.184-0.199,0.484-0.028,0.683l0.006,0.007c0.173,0.2,0.473,0.218,0.666,0.038
								c1.12-1.042,2.213-2.103,3.571-2.822c0.706,1.415,1.13,3.004,1.602,4.503c0.534,1.696,1.132,3.366,1.797,5.014
								c1.441,3.572,3.484,7.43,7.145,9.043c3.325,1.465,7.105,0.678,9.879-1.602c2.735-2.248,4.284-5.631,4.74-9.135
								C336.989,300.446,335.87,295.415,334.256,290.778z"/>
							<path style="fill:#221F1F;" d="M328.195,316.569c-2.166,0.688-4.473,0.609-6.533-0.298c-3.822-1.684-5.872-5.764-7.23-9.131
								c-0.658-1.63-1.264-3.321-1.801-5.026c-0.087-0.277-0.173-0.557-0.259-0.838c-0.36-1.175-0.731-2.388-1.26-3.49
								c-1.18,0.656-2.183,1.591-3.154,2.497l-0.238,0.222c-0.125,0.117-0.288,0.176-0.457,0.166
								c-0.17-0.009-0.326-0.086-0.439-0.217c-0.235-0.272-0.219-0.672,0.031-0.917l0.02-0.019c0.19-0.187,0.377-0.371,0.564-0.546
								c0.918-0.861,2.172-1.943,3.742-2.677c0.274-0.124,0.633,0.042,0.76,0.273c0.719,1.309,1.176,2.771,1.618,4.184
								c0.056,0.179,0.112,0.357,0.168,0.535c0.609,1.925,1.206,3.619,1.827,5.18c1.31,3.294,3.278,7.262,6.897,8.72
								c3.047,1.227,6.695,0.313,9.294-2.33c5.495-5.587,3.814-14.9,1.436-21.729c-1.71-4.814-5.79-13.456-13.897-17.241
								c-4.635-2.164-10.448-2.305-16.372-0.411c-3.054,0.98-7.311,2.872-10.248,6.326c-0.115,0.135-0.275,0.215-0.451,0.223
								c-0.176,0.008-0.343-0.055-0.471-0.179c-0.255-0.247-0.273-0.643-0.048-0.908c2.745-3.237,7.113-5.772,12.298-7.144
								c4.505-1.191,11.175-1.863,17.366,1.696c5.615,3.228,10.25,9.348,13.051,17.234l0,0.001
								c1.964,5.639,2.65,10.441,2.097,14.681c-0.498,3.824-2.202,7.106-4.798,9.241
								C330.631,315.53,329.436,316.176,328.195,316.569z M311.253,297.338l0.074,0.148c0.581,1.167,0.974,2.45,1.354,3.691
								c0.086,0.28,0.171,0.559,0.258,0.836c0.535,1.697,1.138,3.38,1.792,5.002c1.335,3.309,3.344,7.318,7.06,8.955
								c3.13,1.379,6.852,0.773,9.714-1.579c2.532-2.082,4.194-5.288,4.681-9.029c0.545-4.187-0.135-8.939-2.081-14.527
								c-2.775-7.811-7.358-13.87-12.907-17.059c-6.097-3.504-12.678-2.839-17.126-1.664c-5.123,1.353-9.432,3.854-12.135,7.041
								c-0.112,0.132-0.104,0.329,0.02,0.449c0.07,0.068,0.152,0.099,0.24,0.095c0.086-0.004,0.165-0.043,0.222-0.11
								c2.986-3.512,7.302-5.432,10.395-6.424c0.028-0.009,0.056-0.018,0.084-0.027c5.971-1.895,11.834-1.736,16.52,0.452
								c8.214,3.835,12.339,12.566,14.066,17.429c2.409,6.919,4.102,16.364-1.512,22.072c-2.69,2.736-6.475,3.679-9.641,2.404
								c-3.733-1.504-5.743-5.548-7.077-8.902c-0.623-1.567-1.224-3.269-1.835-5.202c-0.056-0.178-0.112-0.357-0.168-0.536
								c-0.437-1.398-0.889-2.843-1.592-4.123c-0.057-0.103-0.25-0.178-0.343-0.135c-1.529,0.715-2.759,1.776-3.659,2.62
								c-0.185,0.173-0.37,0.356-0.558,0.54l-0.02,0.019c-0.125,0.123-0.134,0.323-0.019,0.456c0.061,0.071,0.138,0.109,0.221,0.113
								c0.083,0.005,0.161-0.024,0.222-0.081l0.237-0.221c1.026-0.957,2.087-1.947,3.368-2.625L311.253,297.338z"/>
						</g>
					</g>
					<g>
						<path style="fill:#221F1F;" d="M405.406,331.03c-0.581,0.787-1.213,1.523-1.89,2.21c-0.362-0.833-0.777-1.644-1.251-2.426
							c-0.327-0.539-1.142-0.008-0.814,0.533c0.509,0.841,0.947,1.714,1.318,2.615c-0.669,0.612-1.378,1.18-2.131,1.699
							c-0.515,0.354,0.006,1.186,0.524,0.829c0.693-0.477,1.353-0.994,1.981-1.547c0.245,0.701,0.451,1.419,0.617,2.152
							c0.14,0.618,1.063,0.322,0.924-0.293c-0.199-0.88-0.458-1.738-0.769-2.575c0.799-0.78,1.538-1.624,2.208-2.532
							C406.492,331.191,405.781,330.521,405.406,331.03z"/>
						<path style="fill:#221F1F;" d="M404.373,337.568c-0.018,0.006-0.035,0.01-0.054,0.015c-0.344,0.08-0.639-0.105-0.717-0.451
							c-0.144-0.639-0.324-1.28-0.534-1.908c-0.581,0.501-1.191,0.972-1.816,1.402c-0.19,0.13-0.41,0.151-0.603,0.055
							c-0.215-0.106-0.365-0.336-0.383-0.584c-0.016-0.23,0.087-0.438,0.281-0.572c0.696-0.479,1.378-1.019,2.028-1.607
							c-0.362-0.864-0.786-1.699-1.261-2.484c-0.22-0.363-0.054-0.729,0.223-0.903c0.269-0.169,0.653-0.155,0.866,0.198
							c0.426,0.703,0.817,1.451,1.164,2.227c0.618-0.643,1.193-1.322,1.71-2.023l0,0c0.207-0.28,0.544-0.327,0.82-0.116
							c0.275,0.21,0.407,0.633,0.153,0.978c-0.645,0.874-1.367,1.707-2.149,2.477c0.303,0.825,0.551,1.664,0.738,2.495
							C404.932,337.17,404.676,337.471,404.373,337.568z M403.215,334.661l0.079,0.227c0.249,0.712,0.458,1.442,0.622,2.17
							c0.056,0.248,0.267,0.219,0.331,0.204c0.146-0.032,0.335-0.174,0.279-0.424c-0.192-0.85-0.449-1.709-0.763-2.553l-0.038-0.102
							l0.077-0.075c0.798-0.779,1.535-1.624,2.19-2.512c0.155-0.21,0.028-0.429-0.089-0.518c-0.063-0.049-0.227-0.141-0.368,0.051
							l0,0c-0.572,0.775-1.213,1.525-1.905,2.228l-0.167,0.169l-0.095-0.219c-0.365-0.84-0.782-1.65-1.241-2.406
							c-0.115-0.19-0.3-0.168-0.422-0.091c-0.105,0.066-0.248,0.235-0.118,0.451c0.504,0.833,0.951,1.72,1.329,2.638l0.044,0.108
							l-0.085,0.078c-0.687,0.628-1.41,1.204-2.148,1.713c-0.126,0.086-0.146,0.198-0.14,0.277c0.009,0.129,0.092,0.258,0.202,0.312
							c0.091,0.045,0.186,0.034,0.281-0.032c0.679-0.468,1.341-0.984,1.966-1.535L403.215,334.661z"/>
					</g>
					<g>
						<g>
							<path style="fill:#FFFFFF;" d="M280.181,267.049c-2.684-0.482-5.339-1.107-7.935-1.899
								c-6.596-2.011-12.701-5.458-17.005-11.039c-9.321-12.085-8.765-28.312-6.079-42.607c0.269-1.433,0.559-2.862,0.86-4.288
								c-2.835-3.828-5.568-7.773-7.496-12.158c-1.728-3.932-3.626-9.414-1.239-13.476c2.342-3.985,7.71-4.583,11.808-4.951
								c4.654-0.418,9.356-0.297,13.982,0.363c3.307,0.471,6.574,1.216,9.761,2.223c9.101-3.651,18.912-5.36,28.69-4.998
								c1.562,0.058,3.121,0.173,4.676,0.338c7.671-4.557,16.175-7.624,24.976-8.938c4.266-0.637,9.327-1.452,12.403,2.385
								c2.674,3.334,3.159,8.242,2.888,12.385c-0.274,4.194-1.552,8.296-3.688,11.885c3.14,5.579,5.647,11.511,7.472,17.658
								c2.542,6.421,4.019,13.172,3.456,20.313c-0.522,6.622-3.055,12.811-7.308,17.85c-4.259,5.045-9.811,8.817-15.666,11.685
								c-3.05,1.494-6.203,2.787-9.428,3.885"/>
							<g>
								<path style="fill:#C87629;" d="M335.18,165.621c-8.801,1.314-17.305,4.38-24.976,8.937c-1.554-0.165-3.113-0.28-4.676-0.338
									c-4.689-0.174-9.385,0.13-14.008,0.895c0.034,6.372,2.777,12.673,7.586,16.823c4.971,4.29,11.919,6.137,18.31,4.813
									c3.123-0.647,6.146-1.918,9.347-2.139c1.546-0.107,3.106,0.097,4.494,0.83c1.533,0.809,2.644,2.188,3.508,3.679
									c1.794,3.096,2.757,6.575,4.88,9.494c2.131,2.929,5.07,5.265,8.584,6.153c2.538,0.641,5.179,0.443,7.514-0.626
									c-0.44-1.419-0.939-2.822-1.488-4.209c-1.825-6.147-4.332-12.08-7.472-17.658c2.136-3.589,3.414-7.691,3.688-11.885
									c0.27-4.143-0.215-9.051-2.888-12.385C344.507,164.169,339.445,164.985,335.18,165.621z"/>
								<path style="fill:#434244;" d="M248.358,216.322c1.319,0.303,2.666,0.475,4.018,0.505c3.025,0.066,6.022-0.638,8.686-2.104
									c3.188-1.755,5.781-4.421,7.984-7.314c2.164-2.842,4.099-5.919,5.785-9.079c1.636-3.067,2.988-6.329,3.66-9.764
									c0.632-3.228,0.557-6.68-0.343-9.856c-0.438,0.166-0.875,0.334-1.31,0.509c-3.187-1.007-6.454-1.752-9.761-2.223
									c-4.626-0.659-9.329-0.781-13.982-0.363c-4.098,0.368-9.465,0.966-11.808,4.951c-2.387,4.062-0.49,9.544,1.239,13.476
									c1.928,4.385,4.661,8.33,7.496,12.158c-0.301,1.426-0.59,2.855-0.86,4.288C248.864,213.09,248.592,214.698,248.358,216.322z
									"/>
							</g>
							<path style="fill:#221F1F;" d="M344.943,165.244c-2.292-0.981-4.887-0.877-7.306-0.594
								c-6.853,0.802-13.592,2.602-19.934,5.368c-1.685,0.735-3.342,1.537-4.965,2.403c-0.427,0.228-0.852,0.461-1.275,0.698
								c-0.391,0.219-0.835,0.583-1.261,0.725c-0.388,0.129-0.847,0.003-1.247-0.032c-0.438-0.038-0.876-0.073-1.314-0.103
								c-3.521-0.241-7.063-0.203-10.579,0.09c-6.934,0.577-13.763,2.203-20.247,4.764c-5.134-1.587-10.451-2.531-15.815-2.745
								c-2.433-0.097-4.874-0.049-7.302,0.141c-2.047,0.16-4.114,0.357-6.113,0.853c-1.938,0.481-3.884,1.251-5.37,2.647
								c-1.337,1.256-2.178,2.911-2.504,4.725c-0.641,3.563,0.62,7.283,1.991,10.514c1.945,4.582,4.736,8.693,7.667,12.67
								c-1.222,5.838-2.215,11.73-2.467,17.704c-0.436,10.331,1.41,20.999,7.785,29.33c6.166,8.057,15.879,11.535,25.432,13.268
								c0.778,0.141,0.896-1.1,0.125-1.24c-2.073-0.376-4.131-0.83-6.164-1.392c-7.143-1.974-13.935-5.478-18.537-11.545
								c-4.836-6.374-6.985-14.284-7.406-22.234c-0.217-4.094,0.009-8.208,0.489-12.275c0.231-1.957,0.522-3.907,0.861-5.848
								c0.183-1.049,0.381-2.096,0.588-3.141c0.104-0.524,0.21-1.048,0.318-1.572c0.072-0.35,0.302-0.944,0.234-1.303
								c-0.087-0.458-0.572-0.893-0.841-1.261c-0.352-0.481-0.701-0.965-1.046-1.451c-0.575-0.81-1.14-1.629-1.688-2.459
								c-1.255-1.901-2.416-3.868-3.406-5.925c-1.38-2.868-2.639-5.994-2.85-9.214c-0.1-1.519,0.098-3.089,0.773-4.462
								c0.792-1.614,2.196-2.75,3.789-3.479c3.319-1.519,7.326-1.682,10.91-1.819c4.144-0.158,8.308,0.125,12.396,0.823
								c2.052,0.35,4.085,0.807,6.091,1.37c0.579,0.163,1.152,0.375,1.735,0.516c0.45,0.109,0.686-0.01,1.122-0.181
								c0.913-0.357,1.832-0.696,2.759-1.014c7.87-2.709,16.233-3.982,24.537-3.743c1.163,0.033,2.324,0.098,3.484,0.192
								c0.44,0.036,0.88,0.087,1.32,0.123c0.422,0.035,0.843-0.07,1.211-0.285c1.938-1.131,3.928-2.168,5.963-3.107
								c3.905-1.801,7.97-3.238,12.136-4.27c3.452-0.855,7.058-1.571,10.616-1.753c3.227-0.166,6.233,0.654,8.088,3.529
								c2.152,3.335,2.426,7.723,2.099,11.589c-0.33,3.912-1.559,7.71-3.54,11.076c-0.105,0.178-0.167,0.421-0.057,0.617
								c1.738,3.101,3.293,6.305,4.639,9.601c1.321,3.236,2.333,6.578,3.516,9.863c3.668,10.186,4.228,21.818-1.399,31.393
								c-3.178,5.408-7.831,9.593-13.097,12.878c-0.295,0.184-0.373,0.585-0.165,0.866c0.003,0.005,0.007,0.009,0.01,0.014
								c0.181,0.245,0.516,0.311,0.772,0.15c1.24-0.777,2.451-1.603,3.623-2.484c4.417-3.319,8.252-7.45,10.798-12.428
								c2.421-4.733,3.544-10.012,3.514-15.334c-0.033-5.939-1.464-11.601-3.525-17.12c-0.564-1.511-0.979-3.087-1.52-4.609
								c-0.545-1.533-1.134-3.05-1.765-4.549c-1.224-2.908-2.612-5.741-4.143-8.493c3.45-6.067,4.893-13.969,2.665-20.719
								C349.263,168.872,347.581,166.373,344.943,165.244z"/>
						</g>
						<path style="fill:#221F1F;" d="M340.782,177.184c-2.161,1.509-3.888,3.535-5.064,5.918c-0.217,0.44,0.468,0.751,0.684,0.312
							c1.12-2.269,2.767-4.179,4.823-5.615C341.623,177.522,341.18,176.906,340.782,177.184z"/>
						<path style="fill:#221F1F;" d="M257.974,194.702c-2.131-1.913-4.576-3.41-7.235-4.429c-0.45-0.172-0.76,0.523-0.307,0.696
							c2.605,0.998,4.984,2.453,7.072,4.327C257.866,195.622,258.336,195.027,257.974,194.702z"/>
						<path style="fill:#211E1F;" d="M323.225,214.118c-0.423-0.532-1.274,0.096-0.847,0.632c1.342,1.688,1.048,4.142-0.162,5.823
							c-1.337,1.858-3.477,2.918-5.556,3.678c-2.091,0.764-4.518,1.27-6.676,0.476c-1.458-0.536-2.725-1.659-3.253-3.115
							c1.112-1.805,3.33-2.69,4.143-4.729c0.66-1.655-0.031-3.69-1.916-3.939c-1.075-0.142-2.204,0.192-3.246,0.418
							c-1.216,0.264-2.453,0.528-3.64,0.908c-1.682,0.538-3.615,2.137-2.622,4.135c0.549,1.105,1.51,1.557,2.571,1.853
							c1.211,0.549,2.422,1.098,3.632,1.646c0.124,1.585-0.423,3.136-1.435,4.377c-1.32,1.618-3.325,2.458-5.342,2.691
							c-3.725,0.431-9.247-1.125-9.113-5.854c0.019-0.687-1.026-0.578-1.045,0.101c-0.15,5.328,6.002,7.309,10.258,6.817
							c2.298-0.266,4.56-1.246,6.061-3.085c0.797-0.977,1.357-2.155,1.581-3.393c0.393,0.506,0.866,0.952,1.393,1.32
							c1.613,1.126,3.564,1.452,5.486,1.244c2.131-0.231,4.261-1.01,6.142-2.038c1.711-0.935,3.327-2.268,4.126-4.118
							C324.583,218.072,324.537,215.767,323.225,214.118z"/>
						<path style="fill:#211E1F;" d="M277.88,215.306c-2.401-1.97-5.62-2.562-8.554-1.618c-0.921,0.296-0.384,1.722,0.534,1.426
							c1.885-0.606,3.919-0.413,5.66,0.462c-1.618,0.442-3.191,1.025-4.711,1.767c-0.864,0.421-0.338,1.852,0.534,1.426
							c1.958-0.955,4.01-1.673,6.139-2.109C278.094,216.535,278.428,215.755,277.88,215.306z"/>
						<path style="fill:#211E1F;" d="M339.875,202.112c-3.528,0.001-6.861,1.459-9.373,3.959c-0.404,0.401-0.057,1.168,0.461,1.232
							c2.424,0.297,4.83,0.709,7.216,1.235c0.946,0.209,1.187-1.298,0.247-1.506c-1.85-0.408-3.711-0.746-5.584-1.016
							c2.061-1.559,4.589-2.382,7.176-2.383C340.983,203.632,340.832,202.112,339.875,202.112z"/>
					</g>
					<path style="fill:#EFC3B9;" d="M280.212,226.382c-1.906-4.754-7.664-4.955-11.789-3.603c-2.538,0.832-5.402,1.932-7.299,3.913
						c-0.599,0.626-1.075,1.378-1.385,2.188c-0.05,0.087-0.1,0.174-0.147,0.265c-0.916,1.788-0.905,4.144,0.226,5.837
						c1.239,1.856,3.453,2.305,5.523,2.099c2.576-0.257,5.163-0.995,7.621-1.792c2.183-0.708,4.908-1.438,6.473-3.268
						C280.754,230.478,280.958,228.243,280.212,226.382z"/>
					<path style="fill:#EFC3B9;" d="M349.401,215.204c-1.348-2.23-3.852-3.631-6.365-3.968c-0.476-0.064-0.956-0.091-1.435-0.091
						c-0.307-0.057-0.613-0.103-0.914-0.135c-2.997-0.323-6.2-0.125-8.842,1.494c-2.288,1.402-4.017,3.873-3.931,6.668
						c0.083,2.706,1.772,4.964,4.35,5.655c1.43,0.383,2.95,0.347,4.416,0.38c1.766,0.039,3.533,0.083,5.299,0.117
						c2.869,0.056,5.938-0.288,7.538-3.039C350.766,220.14,350.673,217.309,349.401,215.204z"/>
				</g>
			</g>
		</g>
		<path style="fill:#A9AAAD;" d="M72.744,55.285c-2.562,0-2.567,4.053,0,4.053C75.306,59.338,75.311,55.285,72.744,55.285z"/>
		<path style="fill:#A9AAAD;" d="M190.619,124.193c-2.562,0-2.567,4.053,0,4.053C193.181,128.246,193.186,124.193,190.619,124.193z"
			/>
		<path style="fill:#A9AAAD;" d="M350.52,67.228l-0.796-0.811c-0.361-0.368-0.897-0.594-1.408-0.594
			c-0.488,0-1.072,0.221-1.408,0.594c-0.348,0.386-0.607,0.893-0.583,1.433c0.024,0.538,0.202,1.045,0.583,1.433
			c0.266,0.27,0.531,0.54,0.797,0.811c0.361,0.368,0.897,0.594,1.408,0.594c0.488,0,1.072-0.221,1.408-0.594
			c0.348-0.386,0.607-0.893,0.583-1.433C351.08,68.123,350.901,67.616,350.52,67.228z"/>
		<path style="fill:#A9AAAD;" d="M416.811,167.97c-2.562,0-2.567,4.053,0,4.053C419.373,172.023,419.378,167.97,416.811,167.97z"/>
		<path style="fill:#A9AAAD;" d="M292.564,395.773c-2.562,0-2.567,4.054,0,4.054C295.127,399.827,295.131,395.773,292.564,395.773z"
			/>
		<path style="fill:#A9AAAD;" d="M98.046,418.255c-0.39-0.364-0.868-0.594-1.408-0.594h-0.796c-0.511,0-1.047,0.226-1.408,0.594
			c-0.345,0.352-0.605,0.928-0.583,1.433c0.023,0.524,0.192,1.068,0.583,1.433c0.39,0.364,0.868,0.594,1.408,0.594h0.796
			c0.511,0,1.047-0.226,1.408-0.594c0.345-0.352,0.605-0.928,0.583-1.433C98.606,419.164,98.437,418.621,98.046,418.255z"/>
		<path style="fill:#A9AAAD;" d="M177.378,439.551c-2.562,0-2.567,4.053,0,4.053C179.94,443.604,179.944,439.551,177.378,439.551z"
			/>
		<path style="fill:#A9AAAD;" d="M454.856,475.004c-0.345-0.352-0.912-0.616-1.408-0.594c-0.515,0.024-1.049,0.196-1.408,0.594
			c-0.357,0.397-0.583,0.884-0.583,1.433v0.811c0,0.52,0.222,1.066,0.583,1.433c0.345,0.352,0.912,0.616,1.408,0.594
			c0.515-0.024,1.049-0.196,1.408-0.594c0.358-0.397,0.583-0.884,0.583-1.433v-0.811
			C455.439,475.917,455.217,475.371,454.856,475.004z"/>
		<path style="fill:#A9AAAD;" d="M478.138,252.282c-2.562,0-2.567,4.053,0,4.053C480.7,256.335,480.704,252.282,478.138,252.282z"/>
		<path style="fill:#A9AAAD;" d="M489.103,15.344c-0.345-0.352-0.912-0.616-1.408-0.594c-0.515,0.023-1.049,0.196-1.408,0.594
			c-0.358,0.396-0.583,0.884-0.583,1.433v0.811c0,0.52,0.222,1.066,0.583,1.433c0.345,0.351,0.912,0.616,1.408,0.594
			c0.515-0.023,1.049-0.196,1.408-0.594c0.358-0.397,0.583-0.884,0.583-1.433v-0.811C489.686,16.257,489.464,15.711,489.103,15.344z
			"/>
		<path style="fill:#A9AAAD;" d="M226.459,40.692c-2.562,0-2.567,4.054,0,4.054C229.021,44.746,229.026,40.692,226.459,40.692z"/>
		<path style="fill:#A9AAAD;" d="M46.66,215.395c-0.121-2.745-2.187-5.067-4.978-5.067c-2.604,0-5.098,2.33-4.978,5.067
			c0.121,2.745,2.187,5.067,4.978,5.067C44.286,220.462,46.781,218.132,46.66,215.395z"/>
		<path style="fill:#A9AAAD;" d="M160.748,54.714c-0.266-0.54-0.533-1.08-0.799-1.62c-0.313-0.59-0.74-1.064-1.282-1.422
			c-0.481-0.448-1.045-0.75-1.693-0.907c-0.662-0.211-1.323-0.241-1.985-0.091c-0.663,0.031-1.279,0.231-1.851,0.601
			c-1.063,0.698-1.998,1.736-2.287,3.028l-0.178,1.347c0.003,0.915,0.229,1.767,0.68,2.557c0.267,0.54,0.533,1.08,0.799,1.62
			c0.313,0.59,0.74,1.064,1.282,1.422c0.481,0.448,1.045,0.75,1.693,0.907c0.662,0.211,1.323,0.241,1.985,0.09
			c0.662-0.031,1.279-0.231,1.851-0.601c1.063-0.698,1.998-1.736,2.288-3.028l0.178-1.347
			C161.425,56.356,161.199,55.504,160.748,54.714z"/>
		<path style="fill:#A9AAAD;" d="M309.489,148.166c-0.121-2.745-2.187-5.067-4.978-5.067c-2.604,0-5.098,2.331-4.978,5.067
			c0.121,2.745,2.187,5.067,4.978,5.067C307.115,153.233,309.609,150.902,309.489,148.166z"/>
		<path style="fill:#A9AAAD;" d="M364.444,37.855l-0.178-1.347c-0.237-0.858-0.663-1.604-1.28-2.236
			c-0.336-0.264-0.672-0.528-1.008-0.792c-0.776-0.458-1.614-0.689-2.512-0.692h-0.796c-0.685-0.026-1.325,0.119-1.918,0.436
			c-0.617,0.204-1.151,0.554-1.602,1.048c-0.485,0.459-0.828,1.002-1.029,1.631c-0.312,0.604-0.455,1.255-0.429,1.952l0.178,1.347
			c0.236,0.858,0.663,1.604,1.28,2.236c0.336,0.264,0.672,0.528,1.007,0.792c0.776,0.458,1.614,0.689,2.513,0.692h0.796
			c0.685,0.026,1.325-0.119,1.918-0.436c0.617-0.204,1.151-0.554,1.602-1.048c0.485-0.459,0.828-1.002,1.029-1.631
			C364.327,39.203,364.47,38.552,364.444,37.855z"/>
		<path style="fill:#A9AAAD;" d="M452.054,262.415c-0.121-2.745-2.187-5.067-4.978-5.067c-2.604,0-5.098,2.331-4.978,5.067
			c0.121,2.745,2.187,5.067,4.978,5.067C449.68,267.482,452.174,265.151,452.054,262.415z"/>
		<path style="fill:#A9AAAD;" d="M261.702,369.426c-0.121-2.745-2.187-5.067-4.978-5.067c-2.604,0-5.098,2.331-4.978,5.067
			c0.121,2.745,2.187,5.067,4.978,5.067C259.328,374.493,261.822,372.162,261.702,369.426z"/>
		<path style="fill:#A9AAAD;" d="M76.129,468.33c-0.121-2.745-2.187-5.067-4.978-5.067c-2.604,0-5.098,2.331-4.978,5.067
			c0.121,2.745,2.187,5.067,4.978,5.067C73.755,473.397,76.249,471.066,76.129,468.33z"/>
		<path style="fill:#A9AAAD;" d="M428.957,448.873c-0.121-2.745-2.187-5.067-4.978-5.067c-2.604,0-5.098,2.33-4.978,5.067
			c0.121,2.745,2.187,5.067,4.978,5.067C426.583,453.94,429.077,451.61,428.957,448.873z"/>
		<path style="fill:#FFFFFF;" d="M64.182,352.401l-0.178-1.347c-0.237-0.858-0.663-1.604-1.28-2.236
			c-0.336-0.264-0.672-0.528-1.007-0.792c-0.776-0.458-1.614-0.689-2.513-0.692h-0.796c-0.685-0.026-1.325,0.119-1.918,0.437
			c-0.617,0.204-1.151,0.553-1.602,1.048c-0.485,0.459-0.828,1.002-1.029,1.631c-0.312,0.604-0.455,1.255-0.429,1.952l0.178,1.347
			c0.236,0.858,0.663,1.604,1.28,2.236c0.336,0.264,0.672,0.528,1.007,0.792c0.776,0.458,1.614,0.689,2.512,0.692h0.796
			c0.685,0.026,1.325-0.119,1.918-0.436c0.617-0.204,1.151-0.553,1.602-1.048c0.485-0.459,0.828-1.003,1.029-1.631
			C64.065,353.75,64.208,353.099,64.182,352.401z"/>
		<path style="fill:#FFFFFF;" d="M218.098,17.182c-0.121-2.745-2.187-5.067-4.978-5.067c-2.604,0-5.098,2.33-4.978,5.067
			c0.121,2.745,2.187,5.067,4.978,5.067C215.724,22.249,218.219,19.918,218.098,17.182z"/>
		<path style="fill:#FFFFFF;" d="M84.461,89.408c-0.201-0.628-0.544-1.172-1.029-1.631c-0.451-0.494-0.985-0.843-1.602-1.048
			c-0.593-0.317-1.233-0.463-1.918-0.436l-1.323,0.181c-0.843,0.241-1.576,0.675-2.197,1.303c-0.259,0.342-0.519,0.684-0.778,1.026
			c-0.45,0.79-0.677,1.643-0.679,2.557v0.811c-0.026,0.698,0.117,1.348,0.429,1.952c0.201,0.628,0.544,1.172,1.029,1.631
			c0.451,0.494,0.985,0.843,1.602,1.048c0.593,0.317,1.232,0.463,1.918,0.436c0.441-0.06,0.882-0.121,1.323-0.181
			c0.843-0.241,1.576-0.675,2.197-1.303c0.259-0.342,0.519-0.684,0.778-1.025c0.45-0.79,0.677-1.643,0.68-2.557V91.36
			C84.916,90.662,84.773,90.012,84.461,89.408z"/>
		<path style="fill:#FFFFFF;" d="M434.532,215.395c-0.121-2.745-2.187-5.067-4.978-5.067c-2.604,0-5.098,2.33-4.978,5.067
			c0.121,2.745,2.187,5.067,4.978,5.067C432.158,220.462,434.652,218.132,434.532,215.395z"/>
		<path style="fill:#FFFFFF;" d="M448.868,76.768c-0.121-2.745-2.187-5.067-4.978-5.067c-2.604,0-5.098,2.331-4.978,5.067
			c0.121,2.745,2.187,5.067,4.978,5.067C446.494,81.835,448.988,79.504,448.868,76.768z"/>
		<path style="fill:#FFFFFF;" d="M322.232,451.305c-0.121-2.745-2.187-5.067-4.978-5.067c-2.604,0-5.098,2.331-4.978,5.067
			c0.121,2.745,2.187,5.067,4.978,5.067C319.858,456.372,322.353,454.042,322.232,451.305z"/>
		<path style="fill:#FFFFFF;" d="M463.005,419.081c-1.562,0-3.059,1.398-2.987,3.04c0.072,1.647,1.312,3.04,2.987,3.04
			c1.562,0,3.059-1.398,2.987-3.04C465.919,420.474,464.679,419.081,463.005,419.081z"/>
		<path style="fill:#FFFFFF;" d="M389.731,214.787c-1.562,0-3.059,1.398-2.987,3.04c0.072,1.647,1.312,3.04,2.987,3.04
			c1.562,0,3.059-1.398,2.987-3.04C392.646,216.18,391.406,214.787,389.731,214.787z"/>
		<path style="fill:#FFFFFF;" d="M263.096,130.476c-1.562,0-3.059,1.398-2.987,3.04c0.073,1.647,1.312,3.04,2.987,3.04
			c1.562,0,3.059-1.398,2.987-3.04C266.01,131.869,264.77,130.476,263.096,130.476z"/>
		<path style="fill:#FFFFFF;" d="M122.124,23.465c-1.562,0-3.059,1.398-2.987,3.04c0.073,1.647,1.312,3.04,2.987,3.04
			c1.562,0,3.059-1.398,2.987-3.04C125.038,24.858,123.798,23.465,122.124,23.465z"/>
		<path style="fill:#FFFFFF;" d="M46.461,153.986c-1.562,0-3.059,1.398-2.987,3.04c0.073,1.647,1.312,3.04,2.987,3.04
			c1.562,0,3.059-1.398,2.987-3.04C49.375,155.379,48.136,153.986,46.461,153.986z"/>
		<path style="fill:#FFFFFF;" d="M146.814,421.513c-1.562,0-3.059,1.398-2.987,3.04c0.072,1.647,1.312,3.04,2.987,3.04
			c1.562,0,3.059-1.398,2.987-3.04C149.728,422.906,148.488,421.513,146.814,421.513z"/>
		<path style="fill:#FFFFFF;" d="M72.744,296.059c-2.562,0-2.567,4.054,0,4.054C75.306,300.112,75.311,296.059,72.744,296.059z"/>
		<path style="fill:#FFFFFF;" d="M263.707,313.677c-0.345-0.352-0.912-0.616-1.408-0.594c-0.515,0.023-1.049,0.196-1.408,0.594
			c-0.358,0.397-0.583,0.884-0.583,1.433v0.811c0,0.52,0.222,1.066,0.583,1.433c0.345,0.352,0.912,0.616,1.408,0.594
			c0.515-0.023,1.049-0.196,1.408-0.594c0.357-0.397,0.583-0.884,0.583-1.433v-0.811C264.29,314.59,264.068,314.044,263.707,313.677
			z"/>
		<path style="fill:#FFFFFF;" d="M245.574,439.551c-2.562,0-2.567,4.053,0,4.053C248.136,443.604,248.141,439.551,245.574,439.551z"
			/>
		<path style="fill:#FFFFFF;" d="M366.634,480.896c-2.562,0-2.567,4.053,0,4.053C369.197,484.949,369.201,480.896,366.634,480.896z"
			/>
		<path style="fill:#FFFFFF;" d="M372.21,150.135c-2.562,0-2.567,4.053,0,4.053C374.772,154.188,374.776,150.135,372.21,150.135z"/>
		<path style="fill:#FFFFFF;" d="M418.404,43.124c-2.562,0-2.567,4.053,0,4.053C420.966,47.178,420.97,43.124,418.404,43.124z"/>
		<path style="fill:#FFFFFF;" d="M305.919,37.232c-0.345-0.352-0.912-0.616-1.408-0.594c-0.515,0.023-1.049,0.196-1.408,0.594
			c-0.358,0.397-0.583,0.884-0.583,1.433v0.811c0,0.52,0.222,1.066,0.583,1.433c0.345,0.352,0.912,0.616,1.408,0.594
			c0.515-0.023,1.049-0.196,1.408-0.594c0.358-0.397,0.583-0.884,0.583-1.433v-0.811C306.502,38.146,306.28,37.6,305.919,37.232z"/>
		<path style="fill:#FFFFFF;" d="M171.504,84.469c-2.562,0-2.567,4.053,0,4.053C174.066,88.523,174.071,84.469,171.504,84.469z"/>
		<ellipse style="fill:#A9AAAD;" cx="164.946" cy="468.836" rx="24.999" ry="3.722"/>
		<ellipse style="fill:#A9AAAD;" cx="355.744" cy="463.263" rx="37.433" ry="5.573"/>
		<g>
			<path style="fill:#010101;" d="M215.058,129.952c-0.582-0.535-0.873-1.17-0.873-1.904c0-0.508,0.111-1.128,0.333-1.862
				c0.167-0.79,0.25-1.382,0.25-1.778c0-5.022-0.278-14.671-0.831-28.948c-0.555-12.189-0.832-21.809-0.832-28.863
				c0-0.508,0.193-0.917,0.582-1.227c0.387-0.309,0.859-0.465,1.414-0.465c0.665,0,1.247,0.241,1.746,0.72
				c0.499,0.48,0.749,1.058,0.749,1.735c0,3.386,0.166,8.464,0.499,15.236c0.277,7.506,0.416,12.584,0.416,15.236l0.083,1.016v1.016
				v0.592v0.423c0.166,4.91,0.249,12.246,0.249,22.007v2.201h6.403c1.164,0.846,1.746,1.693,1.746,2.539
				c0,0.622-0.208,1.172-0.624,1.651c-0.416,0.48-0.902,0.719-1.455,0.719c-0.166,0-0.472-0.057-0.915-0.169l-0.332-0.084
				c-0.333,0.057-0.86,0.084-1.58,0.084h-1.414c-0.389-0.055-0.831-0.084-1.33-0.084c-0.555,0.677-1.331,1.015-2.328,1.015
				C216.291,130.756,215.64,130.488,215.058,129.952z"/>
			<path style="fill:#010101;" d="M234.27,129.91c-0.943-0.282-1.414-1.071-1.414-2.37V78.363c0-0.959-0.166-2.398-0.499-4.317
				c-0.389-1.748-0.582-3.187-0.582-4.317v-0.254c0.942-1.579,1.635-2.595,2.079-3.047c0.775,0,1.801-0.113,3.077-0.339
				c1.164-0.225,2.189-0.339,3.077-0.339c0.886,0,1.746,0.268,2.578,0.804c0.831,0.537,1.247,1.172,1.247,1.905
				c0,1.693-1.276,2.539-3.825,2.539h-1.164c-0.333-0.055-0.721-0.084-1.164-0.084c-0.499,0-0.804,0.029-0.915,0.084
				c0,1.919,0.111,4.232,0.333,6.941l0.166,2.37l0.166,4.655c0,1.073-0.083,2.709-0.249,4.91l-0.166,4.74l1.164-0.254
				c1.108-0.339,2.023-0.508,2.744-0.508c0.609,0,1.164,0.24,1.663,0.719c0.499,0.48,0.748,1.03,0.748,1.651
				c0,0.677-0.208,1.284-0.624,1.82c-0.416,0.537-0.929,0.804-1.538,0.804l-0.998-0.085h-1.081c-0.831,0-1.413,0.199-1.746,0.592
				v26.155l4.657-0.254c3.16,0,4.74,0.734,4.74,2.201v0.339c-0.333,0.677-0.943,1.227-1.829,1.651
				c-0.887,0.423-1.746,0.69-2.578,0.804l-2.744,0.085h-2.578C235.96,130.333,235.045,130.192,234.27,129.91z"/>
			<path style="fill:#010101;" d="M258.823,129.191c-0.472-0.817-0.707-1.82-0.707-3.005c0-1.862,0.111-4.148,0.333-6.856
				l0.166-2.201l0.167-4.486c0-1.975-0.195-6.376-0.582-13.204c-0.388-6.827-0.582-11.228-0.582-13.204
				c0-0.169,0.013-0.493,0.042-0.973c0.027-0.479,0.042-1.227,0.042-2.243c0.055-1.128,0.083-2.51,0.083-4.147
				c0-4.118-0.278-6.742-0.832-7.872c-0.333,0-1.054,0.085-2.162,0.254l-2.328,0.169c-0.721,0-1.359-0.211-1.912-0.635
				c-0.555-0.423-0.832-0.974-0.832-1.651c0-0.677,0.665-1.27,1.996-1.777c1.94-0.677,5.239-1.156,9.896-1.439
				c1.884-0.112,3.021-0.169,3.409-0.169c0.665,0,1.275,0.226,1.829,0.677c0.554,0.452,0.832,1.015,0.832,1.693
				c0,0.677-0.236,1.227-0.707,1.651c-0.472,0.423-1.068,0.635-1.788,0.635l-1.497-0.085c-0.444-0.055-0.943-0.085-1.497-0.085
				h-0.832c0.387,3.838,0.582,7.309,0.582,10.411l-0.083,5.417c-0.056,1.637-0.083,3.47-0.083,5.502
				c0,2.709,0.111,5.954,0.333,9.734c0.277,4.685,0.416,7.929,0.416,9.734c0,2.145,0.111,4.685,0.333,7.618
				c0.221,2.992,0.333,5.531,0.333,7.618c0,2.766-0.804,4.147-2.411,4.147C259.946,130.418,259.293,130.008,258.823,129.191z"/>
			<path style="fill:#010101;" d="M272.893,83.61c0-1.185,0.304-3.216,0.915-6.094c0.609-2.878,1.441-5.614,2.495-8.21
				c1.108-2.878,2.245-4.317,3.409-4.317c0.998,0,1.497,0.622,1.497,1.862c0,2.37-0.403,5.008-1.206,7.914
				c-0.804,2.907-1.816,5.375-3.035,7.406c-1.276,1.976-2.411,2.963-3.409,2.963C273.115,85.022,272.893,84.514,272.893,83.61z"/>
			<path style="fill:#010101;" d="M289.022,130.587c-0.887-0.508-1.331-1.1-1.331-1.778c0-0.677,0.167-1.227,0.499-1.65
				c0.332-0.423,0.803-0.635,1.413-0.635c0.553,0,1.358,0.226,2.411,0.677c1.164,0.452,1.884,0.677,2.162,0.677
				c1.052,0,2.009-0.465,2.869-1.396c0.859-0.931,1.538-2.159,2.037-3.682c0.998-2.821,1.497-5.36,1.497-7.618
				c0-2.426-0.374-4.979-1.123-7.66c-0.748-2.68-1.76-5.29-3.035-7.83l-1.331-2.709c-1.386-2.821-2.453-5.049-3.202-6.687
				c-0.748-1.636-1.401-3.414-1.954-5.333c-0.832-2.709-1.247-5.332-1.247-7.872c0-2.031,0.346-3.949,1.04-5.756
				c0.693-1.805,1.732-3.329,3.118-4.571c1.385-1.354,3.104-2.031,5.156-2.031c0.998,0,1.967,0.296,2.91,0.889
				c0.942,0.592,1.607,1.341,1.996,2.243l-1.413,1.778c-1.442,0-2.523-0.282-3.243-0.846c-0.998,0.114-1.871,0.607-2.619,1.481
				c-0.748,0.876-1.318,1.877-1.705,3.005c-0.333,1.073-0.499,2.145-0.499,3.216c0,2.145,0.291,4.331,0.873,6.56
				c0.582,2.23,1.344,4.332,2.287,6.306l5.821,11.85c0.942,2.031,1.691,4.317,2.245,6.856c0.554,2.54,0.832,5.079,0.832,7.618
				c0,3.724-0.887,7.224-2.661,10.496c-0.943,1.693-2.162,3.034-3.659,4.021c-1.497,0.986-3.16,1.481-4.99,1.481
				C292.182,131.688,290.463,131.32,289.022,130.587z"/>
			<path style="fill:#010101;" d="M333.172,137.867c0,0-0.278-0.226-0.832-0.677c-0.555-0.452-0.832-1.1-0.832-1.947
				c0-0.622,0.333-1.27,0.998-1.947c0.665-0.677,1.414-1.185,2.245-1.524c0.832-1.072,1.593-2.736,2.287-4.994
				c0.692-2.256,1.039-4.571,1.039-6.941l0.083-4.148c0.055-1.185,0.083-2.539,0.083-4.063l-0.083-3.47l-0.416-8.549
				c-0.388-11.173-0.998-21.019-1.829-29.54c-0.166,0.114-0.528,0.198-1.081,0.254c-0.888,0.283-1.719,0.423-2.495,0.423
				c-0.555,0-1.039-0.211-1.455-0.635c-0.416-0.423-0.624-0.917-0.624-1.481c0-1.974,3.298-2.962,9.896-2.962h1.081
				c0.776,0,1.385,0.042,1.829,0.127c0.443,0.085,0.859,0.296,1.247,0.635c0.443,0.338,0.665,0.846,0.665,1.523
				c0,1.468-1.164,2.201-3.493,2.201c-0.056,0-0.083-0.028-0.083-0.085h-0.166h-1.081v0.677c0,1.468,0.166,3.64,0.499,6.518
				c0.277,3.273,0.416,5.474,0.416,6.602c0,4.007,0.277,9.48,0.832,16.421c0.443,6.546,0.665,12.048,0.665,16.505v3.386v3.386
				c0,3.386-0.707,6.391-2.121,9.015c-1.414,2.624-3.396,4.387-5.946,5.29C333.615,137.867,333.172,137.867,333.172,137.867z"/>
			<path style="fill:#010101;" d="M358.978,126.778c-2.162-3.103-3.688-6.912-4.574-11.427c-0.998-4.796-1.636-9.931-1.913-15.405
				c-0.278-4.965-0.416-10.354-0.416-16.167v-7.025c0.055-1.975,0.083-4.063,0.083-6.264c-0.444-0.451-0.665-1.016-0.665-1.693
				c0-0.677,0.249-1.283,0.748-1.82c0.499-0.536,1.052-0.804,1.663-0.804c1.996,0,2.994,2.004,2.994,6.01
				c0,2.596,0.138,7.506,0.416,14.728c0.277,7.224,0.416,12.133,0.416,14.728c0.277,0.734,0.54,2.201,0.79,4.401
				c0.249,2.201,0.374,4.007,0.374,5.417c0,1.242,0.194,2.78,0.582,4.613c0.387,1.835,0.942,3.682,1.663,5.544
				c0.72,1.976,1.663,3.597,2.828,4.867c1.164,1.27,2.383,1.904,3.659,1.904c0.775,0,1.427-0.254,1.954-0.762
				c0.526-0.508,0.873-1.241,1.04-2.201c0.333-1.579,0.499-3.132,0.499-4.655v-16.505c0-2.087-0.195-4.74-0.582-7.956
				c-0.333-3.555-0.499-6.235-0.499-8.041v-0.593c0-0.902-0.029-1.721-0.083-2.455l-0.083-2.455c0-1.579-0.083-3.978-0.249-7.195
				c-0.222-2.878-0.333-5.304-0.333-7.279c0-0.62,0.319-1.156,0.956-1.608c0.637-0.451,1.343-0.677,2.12-0.677l2.079,1.947v1.439
				c0,0.677-0.112,1.496-0.333,2.455c-0.222,1.581-0.333,2.484-0.333,2.709c0,5.136,0.277,12.218,0.831,21.245
				c0.499,9.48,0.749,16.844,0.749,22.092c0,2.822-0.278,5.305-0.832,7.449c-0.333,1.299-0.79,2.342-1.372,3.132
				c-0.582,0.791-1.372,1.467-2.37,2.031c-0.943,0.563-2.162,0.846-3.659,0.846C363.689,131.349,360.974,129.825,358.978,126.778z"
				/>
			<path style="fill:#010101;" d="M406.825,131.18c-0.333-0.565-0.499-1.382-0.499-2.455l-0.083-12.527
				c-0.056-1.071-0.083-2.849-0.083-5.333c-0.112-5.248-0.166-11.173-0.166-17.775v-4.317c-0.499,2.709-1.359,6.517-2.578,11.427
				c-1.22,5.078-2.079,9.255-2.578,12.527v0.508l-0.249,1.608c-0.112,1.242-0.389,2.512-0.832,3.809
				c-0.555,1.354-1.414,2.031-2.578,2.031c-1.996,0-2.994-2.652-2.994-7.956c0-2.933-0.291-6.08-0.873-9.438
				c-0.582-3.357-1.511-7.491-2.786-12.4l-2.495-9.48l-0.166,10.157c0,3.047,0.138,8.86,0.416,17.437l0.166,5.756l0.166,11.596
				c0,1.185-0.416,2.258-1.247,3.216c-1.386,0-2.343-0.436-2.869-1.312c-0.528-0.874-0.79-2.158-0.79-3.851l0.167-6.941
				c0.166-3.047,0.25-5.332,0.25-6.856l-0.167-16.336l-0.166-16.421c0-2.426,0.055-6.065,0.166-10.919l2.245-1.354
				c0.443,0.057,0.886,0.381,1.33,0.973c0.443,0.592,0.942,1.538,1.497,2.835c1.385,3.5,3.187,10.496,5.405,20.992
				c0.333,1.468,0.553,2.681,0.665,3.64c0.665,3.273,1.135,5.756,1.413,7.449l1.247,6.517l0.582-2.793l1.58-6.941
				c0.886-4.063,1.621-7.618,2.204-10.665c0.582-3.047,1.15-6.348,1.705-9.903c0.609-4.232,0.998-7.758,1.164-10.581v-0.508
				c0.111-0.733,0.443-1.312,0.998-1.735c0.553-0.423,1.219-0.635,1.996-0.635c0.499,0,0.942,0.226,1.33,0.677
				c0.387,0.452,0.582,0.931,0.582,1.439c0,6.771,0.249,16.901,0.748,30.387c0.277,6.602,0.471,13.064,0.582,19.383
				c0.111,2.878,0.166,6.517,0.166,10.919c0,1.299-0.333,2.455-0.998,3.47c-0.665,1.016-1.414,1.524-2.245,1.524
				C407.601,132.026,407.158,131.743,406.825,131.18z"/>
			<path style="fill:#010101;" d="M420.15,129.445c-0.361-0.536-0.54-1.198-0.54-1.989l0.166-14.22
				c0.166-6.884,0.25-12.216,0.25-15.997c0-13.147-0.721-23.22-2.162-30.218c0.832-1.298,1.884-1.947,3.16-1.947
				c2.05,0,3.921,0.465,5.613,1.397c1.69,0.931,3.09,2.187,4.199,3.767c2.162,3.273,3.243,6.941,3.243,11.004
				c0,4.232-0.888,8.013-2.661,11.342c-1.775,3.33-4.353,5.925-7.734,7.787l0.166,8.549l0.166,4.486
				c0.055,0.96,0.083,2.342,0.083,4.147c0.167,3.781,0.25,6.856,0.25,9.226c0,1.073-0.222,1.919-0.665,2.54
				c-0.444,0.62-1.137,0.931-2.079,0.931C420.995,130.249,420.51,129.98,420.15,129.445z M428.3,89.747
				c1.025-2.285,1.538-4.867,1.538-7.745v-0.085c0-1.298-0.139-2.934-0.416-4.909c-0.166-0.677-0.472-1.354-0.915-2.031
				c-0.445-0.677-0.694-1.071-0.748-1.185c-0.389-0.563-1.414-1.439-3.077-2.624l-2.162-1.608c0,2.878,0.166,7.336,0.499,13.373
				l0.499,13.374C425.68,94.22,427.273,92.032,428.3,89.747z"/>
			<path style="fill:#010101;" d="M466.842,130.756c-0.582-0.621-0.873-1.382-0.873-2.285c0-1.016,0.332-1.905,0.998-2.666
				c0.665-0.762,1.468-1.143,2.411-1.143c0.998,0,1.815,0.381,2.453,1.143c0.636,0.762,0.956,1.735,0.956,2.92
				c0,1.975-1.359,2.963-4.074,2.963C468.048,131.688,467.424,131.377,466.842,130.756z M468.63,115.098
				c-0.499-1.467-0.748-3.64-0.748-6.517c0-1.016,0.055-2.934,0.167-5.756c0.111-2.087,0.166-4.401,0.166-6.941l-0.166-13.882
				l-0.167-13.882c0-0.902,0.36-1.678,1.081-2.328c0.72-0.648,1.524-0.973,2.411-0.973c0.554,0,1.025,0.198,1.414,0.592
				c0.387,0.396,0.582,0.903,0.582,1.524c0,4.966-0.278,11.71-0.832,20.23c-0.61,9.424-0.915,16.167-0.915,20.23
				c0,2.991-0.042,5.15-0.125,6.475c-0.083,1.326-0.222,2.215-0.416,2.666c-0.195,0.452-0.486,0.677-0.873,0.677
				C469.655,117.214,469.129,116.509,468.63,115.098z"/>
		</g>
	</g>
</g>
</svg>
