<?xml version="1.0" encoding="utf-8"?>
<!-- Generator: Adobe Illustrator 27.5.0, SVG Export Plug-In . SVG Version: 6.00 Build 0)  -->
<svg version="1.1" id="Layer_1" xmlns="http://www.w3.org/2000/svg" xmlns:xlink="http://www.w3.org/1999/xlink" x="0px" y="0px"
	 viewBox="0 0 2963 1520" style="enable-background:new 0 0 2963 1520;" xml:space="preserve">
<g>
	<g>
		<defs>
			<rect id="SVGID_1_" width="2962.263" height="1519.109"/>
		</defs>
		<use xlink:href="#SVGID_1_"  style="overflow:visible;fill:#FFFBFA;"/>
		<clipPath id="SVGID_00000039833611714678875040000002516022642372425882_">
			<use xlink:href="#SVGID_1_"  style="overflow:visible;"/>
		</clipPath>
		<g style="clip-path:url(#SVGID_00000039833611714678875040000002516022642372425882_);">
			<g>
				<g>
					<path style="fill:#E45B00;" d="M228.786,1574.824l-9.066-0.89c47.249-483.398,6.688-661.468-15.102-757.131
						c-11.065-48.581-17.16-75.338-2.518-108.964c0.084-0.191,0.171-0.387,0.256-0.582c-18.023-10.481-34.388-25.503-47.524-43.666
						c-23.161-32.019-33.379-69.466-28.036-102.735c3.993-24.871,16.709-46.179,35.81-59.996
						c14.504-10.493,31.857-16.152,50.432-16.494c0.894-17.322,4.499-33.568,10.736-48.358c7.387-17.522,17.98-31.864,31.486-42.625
						c11.946-9.515,25.447-15.645,40.127-18.216c14.691-2.562,29.469-1.406,43.93,3.479c13.89,4.684,26.737,12.562,38.245,23.434
						c4.075-3.799,8.368-7.264,12.805-10.343c21.166-14.688,45.866-20.422,69.524-16.138c23.67,4.279,44.791,18.292,59.477,39.457
						c13.381,19.288,21.048,43.47,22.284,70.173c18.576,0.436,35.903,6.192,50.356,16.766c11.799,8.625,21.016,19.867,27.393,33.403
						c7.082,15.031,10.256,32.607,9.18,50.832c-1.568,26.641-12.102,54.528-29.658,78.532
						c-13.232,18.092-29.675,33.025-47.754,43.412c0.087,0.2,0.171,0.396,0.256,0.591c8.777,20.445,1.682,71.441-10.076,155.921
						c-20.427,146.788-54.617,392.464-33.332,709.386l-9.088,0.614c-21.35-317.86,12.92-564.119,33.397-711.254
						c11.141-80.067,18.503-132.958,10.725-151.077c-0.603-1.406-1.23-2.802-1.884-4.194l-1.837-3.919l3.817-2.038
						c18.345-9.782,35.089-24.591,48.423-42.825c16.535-22.603,26.45-48.772,27.918-73.683c0.985-16.709-1.895-32.759-8.33-46.419
						c-5.721-12.14-13.973-22.211-24.528-29.928c-13.984-10.232-30.995-15.539-49.284-15.014l-4.568,0.102l-0.089-4.568
						c-0.516-26.668-7.711-50.743-20.807-69.617c-13.296-19.168-32.336-31.842-53.61-35.685
						c-21.27-3.848-43.543,1.352-62.713,14.653c-5.182,3.598-10.158,7.78-14.786,12.429l-3.25,3.265l-3.227-3.283
						c-11.304-11.49-24.053-19.684-37.892-24.355c-13.001-4.386-26.276-5.445-39.444-3.132
						c-13.163,2.305-25.283,7.812-36.023,16.366c-12.299,9.8-21.98,22.936-28.768,39.04c-6.323,14.995-9.753,31.65-10.194,49.502
						l-0.111,4.568l-4.566-0.124c-18.267-0.436-35.316,4.595-49.353,14.751c-23.109,16.717-30.064,41.041-32.153,54.052
						c-4.962,30.903,4.669,65.877,26.421,95.957c13.238,18.301,29.906,33.198,48.199,43.078l3.812,2.06l-1.864,3.91
						c-0.66,1.384-1.297,2.776-1.904,4.177c-13.45,30.881-7.936,55.085,3.047,103.301
						C235.408,910.949,276.179,1089.948,228.786,1574.824z"/>
				</g>
				<g>
					<path style="fill:#E45B00;" d="M377.024,608.422c-42.36,1.006-52.257,40.627-90.606,76.615
						c-56.262,52.798-45.654,98.723-11.268,108.332s63.776-29.119,101.114-28.289c0.116,0.003,0.232,0.005,0.348,0.008
						c0.116-0.003,0.232-0.005,0.348-0.007c37.343-0.633,66.527,38.248,100.964,28.821c34.437-9.428,45.286-55.296-10.697-108.39
						C429.066,649.324,419.378,609.651,377.024,608.422z"/>
					<path style="fill:#E45B00;" d="M274.88,576.755c23.344,32.273,25.401,70.634,4.596,85.683
						c-20.805,15.049-56.594,1.087-79.938-31.185c-23.344-32.273-25.401-70.634-4.596-85.683
						C215.747,530.52,251.536,544.482,274.88,576.755z"/>
					<path style="fill:#E45B00;" d="M479.333,577.293c-23.513,32.149-25.773,70.499-5.048,85.658
						c20.725,15.158,56.588,1.385,80.101-30.765c23.513-32.149,25.773-70.499,5.048-85.657
						C538.709,531.37,502.846,545.144,479.333,577.293z"/>
					<path style="fill:#E45B00;" d="M366.346,495.956c7.255,41.373-8.485,78.704-35.156,83.382
						c-26.672,4.677-54.176-25.071-61.431-66.443c-7.255-41.373,8.484-78.704,35.156-83.382
						C331.587,424.836,359.09,454.583,366.346,495.956z"/>
					<path style="fill:#E45B00;" d="M388.294,496.014c-7.473,41.334,8.07,78.747,34.717,83.565
						c26.647,4.817,54.307-24.785,61.78-66.119c7.473-41.335-8.07-78.748-34.717-83.565
						C423.427,425.078,395.767,454.68,388.294,496.014z"/>
				</g>
			</g>
			<g>
				<g>
					<path style="fill:#FF9A37;" d="M780.804,1574.824l-9.066-0.89c47.249-483.398,6.688-661.468-15.102-757.131
						c-11.066-48.581-17.16-75.338-2.518-108.964c0.085-0.191,0.171-0.387,0.256-0.582c-18.022-10.481-34.388-25.503-47.524-43.666
						c-23.161-32.019-33.379-69.466-28.036-102.735c3.992-24.871,16.708-46.179,35.81-59.996
						c14.504-10.493,31.857-16.152,50.431-16.494c0.894-17.322,4.5-33.568,10.736-48.358c7.387-17.522,17.981-31.864,31.486-42.625
						c11.946-9.515,25.447-15.645,40.127-18.216c14.691-2.562,29.469-1.406,43.93,3.479c13.89,4.684,26.737,12.562,38.245,23.434
						c4.075-3.799,8.367-7.264,12.805-10.343c21.165-14.688,45.865-20.422,69.524-16.138c23.67,4.279,44.791,18.292,59.477,39.457
						c13.381,19.288,21.048,43.47,22.284,70.173c18.576,0.436,35.903,6.192,50.356,16.766c11.799,8.625,21.016,19.867,27.394,33.403
						c7.082,15.031,10.256,32.607,9.179,50.832c-1.568,26.641-12.102,54.528-29.657,78.532
						c-13.232,18.092-29.675,33.025-47.753,43.412c0.086,0.2,0.171,0.396,0.256,0.591c8.777,20.445,1.681,71.441-10.076,155.921
						c-20.427,146.788-54.618,392.464-33.332,709.386l-9.088,0.614c-21.35-317.86,12.92-564.119,33.396-711.254
						c11.141-80.067,18.503-132.958,10.726-151.077c-0.603-1.406-1.23-2.802-1.884-4.194l-1.837-3.919l3.817-2.038
						c18.345-9.782,35.089-24.591,48.423-42.825c16.535-22.603,26.45-48.772,27.918-73.683c0.985-16.709-1.895-32.759-8.33-46.419
						c-5.72-12.14-13.972-22.211-24.528-29.928c-13.983-10.232-30.994-15.539-49.283-15.014l-4.569,0.102l-0.089-4.568
						c-0.516-26.668-7.712-50.743-20.808-69.617c-13.296-19.168-32.335-31.842-53.61-35.685
						c-21.27-3.848-43.543,1.352-62.714,14.653c-5.182,3.598-10.157,7.78-14.786,12.429l-3.25,3.265l-3.228-3.283
						c-11.303-11.49-24.052-19.684-37.891-24.355c-13.001-4.386-26.277-5.445-39.444-3.132
						c-13.163,2.305-25.283,7.812-36.023,16.366c-12.3,9.8-21.98,22.936-28.768,39.04c-6.323,14.995-9.753,31.65-10.193,49.502
						l-0.111,4.568l-4.566-0.124c-18.267-0.436-35.315,4.595-49.352,14.751c-23.109,16.717-30.065,41.041-32.153,54.052
						c-4.963,30.903,4.668,65.877,26.421,95.957c13.238,18.301,29.907,33.198,48.198,43.078l3.813,2.06l-1.864,3.91
						c-0.66,1.384-1.297,2.776-1.904,4.177c-13.449,30.881-7.936,55.085,3.047,103.301
						C787.425,910.949,828.197,1089.948,780.804,1574.824z"/>
				</g>
				<g>
					<path style="fill:#FF9A37;" d="M929.042,608.422c-42.36,1.006-52.257,40.627-90.606,76.615
						c-56.262,52.798-45.655,98.723-11.268,108.332c34.387,9.609,63.776-29.119,101.114-28.289c0.116,0.003,0.232,0.005,0.348,0.008
						c0.116-0.003,0.232-0.005,0.348-0.007c37.342-0.633,66.527,38.248,100.964,28.821c34.437-9.428,45.286-55.296-10.698-108.39
						C981.084,649.324,971.396,609.651,929.042,608.422z"/>
					<path style="fill:#FF9A37;" d="M826.898,576.755c23.344,32.273,25.402,70.634,4.597,85.683
						c-20.805,15.049-56.595,1.087-79.938-31.185c-23.344-32.273-25.402-70.634-4.597-85.683
						C767.765,530.52,803.554,544.482,826.898,576.755z"/>
					<path style="fill:#FF9A37;" d="M1031.351,577.293c-23.513,32.149-25.773,70.499-5.048,85.658
						c20.726,15.158,56.588,1.385,80.101-30.765c23.514-32.149,25.773-70.499,5.048-85.657
						C1090.727,531.37,1054.865,545.144,1031.351,577.293z"/>
					<path style="fill:#FF9A37;" d="M918.364,495.956c7.256,41.373-8.484,78.704-35.156,83.382
						c-26.672,4.677-54.175-25.071-61.431-66.443c-7.255-41.373,8.485-78.704,35.157-83.382
						C883.604,424.836,911.108,454.583,918.364,495.956z"/>
					<path style="fill:#FF9A37;" d="M940.312,496.014c-7.473,41.334,8.07,78.747,34.717,83.565
						c26.647,4.817,54.307-24.785,61.78-66.119c7.473-41.335-8.07-78.748-34.717-83.565
						C975.445,425.078,947.785,454.68,940.312,496.014z"/>
				</g>
			</g>
			<g>
				<g>
					<path style="fill:#F5C05E;" d="M1332.822,1574.824l-9.066-0.89c47.249-483.398,6.688-661.468-15.102-757.131
						c-11.065-48.581-17.16-75.338-2.518-108.964c0.084-0.191,0.171-0.387,0.256-0.582c-18.022-10.481-34.388-25.503-47.524-43.666
						c-23.161-32.019-33.379-69.466-28.036-102.735c3.992-24.871,16.708-46.179,35.809-59.996
						c14.504-10.493,31.858-16.152,50.432-16.494c0.894-17.322,4.499-33.568,10.736-48.358c7.387-17.522,17.98-31.864,31.486-42.625
						c11.946-9.515,25.447-15.645,40.127-18.216c14.691-2.562,29.469-1.406,43.93,3.479c13.89,4.684,26.737,12.562,38.245,23.434
						c4.075-3.799,8.368-7.264,12.805-10.343c21.166-14.688,45.865-20.422,69.524-16.138c23.67,4.279,44.791,18.292,59.477,39.457
						c13.381,19.288,21.048,43.47,22.285,70.173c18.576,0.436,35.903,6.192,50.356,16.766c11.799,8.625,21.016,19.867,27.393,33.403
						c7.082,15.031,10.256,32.607,9.179,50.832c-1.568,26.641-12.102,54.528-29.657,78.532
						c-13.232,18.092-29.675,33.025-47.754,43.412c0.087,0.2,0.172,0.396,0.256,0.591c8.776,20.445,1.682,71.441-10.076,155.921
						c-20.427,146.788-54.617,392.464-33.332,709.386l-9.088,0.614c-21.35-317.86,12.921-564.119,33.397-711.254
						c11.141-80.067,18.503-132.958,10.725-151.077c-0.603-1.406-1.23-2.802-1.884-4.194l-1.837-3.919l3.817-2.038
						c18.345-9.782,35.089-24.591,48.423-42.825c16.535-22.603,26.45-48.772,27.918-73.683c0.985-16.709-1.895-32.759-8.33-46.419
						c-5.72-12.14-13.973-22.211-24.528-29.928c-13.984-10.232-30.995-15.539-49.284-15.014l-4.568,0.102l-0.089-4.568
						c-0.516-26.668-7.711-50.743-20.807-69.617c-13.296-19.168-32.335-31.842-53.61-35.685
						c-21.27-3.848-43.543,1.352-62.714,14.653c-5.182,3.598-10.158,7.78-14.786,12.429l-3.25,3.265l-3.227-3.283
						c-11.304-11.49-24.052-19.684-37.892-24.355c-13-4.386-26.276-5.445-39.444-3.132c-13.163,2.305-25.283,7.812-36.024,16.366
						c-12.299,9.8-21.98,22.936-28.768,39.04c-6.323,14.995-9.753,31.65-10.193,49.502l-0.111,4.568l-4.566-0.124
						c-18.267-0.436-35.316,4.595-49.353,14.751c-23.109,16.717-30.064,41.041-32.153,54.052
						c-4.962,30.903,4.669,65.877,26.422,95.957c13.238,18.301,29.906,33.198,48.198,43.078l3.812,2.06l-1.864,3.91
						c-0.661,1.384-1.297,2.776-1.904,4.177c-13.45,30.881-7.936,55.085,3.047,103.301
						C1339.444,910.949,1380.215,1089.948,1332.822,1574.824z"/>
				</g>
				<g>
					<path style="fill:#F5C05E;" d="M1481.06,608.422c-42.36,1.006-52.257,40.627-90.606,76.615
						c-56.262,52.798-45.655,98.723-11.268,108.332s63.776-29.119,101.114-28.289c0.116,0.003,0.232,0.005,0.348,0.008
						c0.116-0.003,0.232-0.005,0.348-0.007c37.343-0.633,66.527,38.248,100.964,28.821c34.437-9.428,45.286-55.296-10.697-108.39
						C1533.103,649.324,1523.414,609.651,1481.06,608.422z"/>
					<path style="fill:#F5C05E;" d="M1378.916,576.755c23.344,32.273,25.401,70.634,4.596,85.683
						c-20.805,15.049-56.594,1.087-79.938-31.185c-23.344-32.273-25.401-70.634-4.596-85.683
						C1319.783,530.52,1355.573,544.482,1378.916,576.755z"/>
					<path style="fill:#F5C05E;" d="M1583.37,577.293c-23.514,32.149-25.773,70.499-5.048,85.658
						c20.725,15.158,56.588,1.385,80.101-30.765c23.513-32.149,25.773-70.499,5.048-85.657
						C1642.745,531.37,1606.882,545.144,1583.37,577.293z"/>
					<path style="fill:#F5C05E;" d="M1470.382,495.956c7.255,41.373-8.485,78.704-35.156,83.382
						c-26.672,4.677-54.176-25.071-61.431-66.443c-7.255-41.373,8.484-78.704,35.156-83.382
						C1435.623,424.836,1463.127,454.583,1470.382,495.956z"/>
					<path style="fill:#F5C05E;" d="M1492.33,496.014c-7.473,41.334,8.07,78.747,34.717,83.565
						c26.647,4.817,54.307-24.785,61.78-66.119c7.473-41.335-8.07-78.748-34.717-83.565
						C1527.463,425.078,1499.803,454.68,1492.33,496.014z"/>
				</g>
			</g>
			<g>
				<g>
					<path style="fill:#72CAB6;" d="M1884.84,1574.824l-9.066-0.89c47.249-483.398,6.688-661.468-15.102-757.131
						c-11.066-48.581-17.16-75.338-2.518-108.964c0.085-0.191,0.172-0.387,0.256-0.582c-18.023-10.481-34.388-25.503-47.524-43.666
						c-23.161-32.019-33.379-69.466-28.036-102.735c3.992-24.871,16.708-46.179,35.81-59.996
						c14.504-10.493,31.857-16.152,50.431-16.494c0.894-17.322,4.5-33.568,10.736-48.358c7.387-17.522,17.981-31.864,31.486-42.625
						c11.946-9.515,25.447-15.645,40.127-18.216c14.691-2.562,29.469-1.406,43.93,3.479c13.89,4.684,26.737,12.562,38.245,23.434
						c4.075-3.799,8.367-7.264,12.805-10.343c21.165-14.688,45.865-20.422,69.524-16.138c23.669,4.279,44.791,18.292,59.477,39.457
						c13.381,19.288,21.048,43.47,22.284,70.173c18.577,0.436,35.903,6.192,50.356,16.766c11.8,8.625,21.017,19.867,27.394,33.403
						c7.082,15.031,10.255,32.607,9.179,50.832c-1.568,26.641-12.102,54.528-29.657,78.532
						c-13.232,18.092-29.675,33.025-47.753,43.412c0.086,0.2,0.171,0.396,0.256,0.591c8.777,20.445,1.681,71.441-10.076,155.921
						c-20.427,146.788-54.618,392.464-33.332,709.386l-9.088,0.614c-21.351-317.86,12.92-564.119,33.396-711.254
						c11.141-80.067,18.504-132.958,10.726-151.077c-0.603-1.406-1.23-2.802-1.884-4.194l-1.837-3.919l3.817-2.038
						c18.345-9.782,35.089-24.591,48.423-42.825c16.535-22.603,26.45-48.772,27.918-73.683c0.985-16.709-1.895-32.759-8.329-46.419
						c-5.721-12.14-13.973-22.211-24.529-29.928c-13.983-10.232-30.994-15.539-49.283-15.014l-4.569,0.102l-0.089-4.568
						c-0.516-26.668-7.711-50.743-20.808-69.617c-13.296-19.168-32.335-31.842-53.61-35.685
						c-21.27-3.848-43.543,1.352-62.713,14.653c-5.182,3.598-10.158,7.78-14.786,12.429l-3.25,3.265l-3.228-3.283
						c-11.303-11.49-24.052-19.684-37.891-24.355c-13.001-4.386-26.277-5.445-39.444-3.132
						c-13.163,2.305-25.283,7.812-36.023,16.366c-12.3,9.8-21.98,22.936-28.768,39.04c-6.323,14.995-9.753,31.65-10.193,49.502
						l-0.111,4.568l-4.566-0.124c-18.267-0.436-35.316,4.595-49.353,14.751c-23.109,16.717-30.065,41.041-32.153,54.052
						c-4.962,30.903,4.669,65.877,26.421,95.957c13.238,18.301,29.907,33.198,48.198,43.078l3.813,2.06l-1.864,3.91
						c-0.66,1.384-1.297,2.776-1.904,4.177c-13.45,30.881-7.936,55.085,3.047,103.301
						C1891.462,910.949,1932.233,1089.948,1884.84,1574.824z"/>
				</g>
				<g>
					<path style="fill:#72CAB6;" d="M2033.078,608.422c-42.36,1.006-52.257,40.627-90.606,76.615
						c-56.262,52.798-45.654,98.723-11.268,108.332c34.387,9.609,63.776-29.119,101.114-28.289c0.116,0.003,0.232,0.005,0.348,0.008
						c0.115-0.003,0.232-0.005,0.348-0.007c37.342-0.633,66.527,38.248,100.964,28.821c34.437-9.428,45.286-55.296-10.697-108.39
						C2085.121,649.324,2075.432,609.651,2033.078,608.422z"/>
					<path style="fill:#72CAB6;" d="M1930.934,576.755c23.344,32.273,25.402,70.634,4.597,85.683
						c-20.805,15.049-56.595,1.087-79.938-31.185c-23.344-32.273-25.402-70.634-4.597-85.683
						C1871.801,530.52,1907.591,544.482,1930.934,576.755z"/>
					<path style="fill:#72CAB6;" d="M2135.387,577.293c-23.513,32.149-25.773,70.499-5.047,85.658
						c20.725,15.158,56.588,1.385,80.101-30.765c23.513-32.149,25.773-70.499,5.047-85.657
						C2194.763,531.37,2158.901,545.144,2135.387,577.293z"/>
					<path style="fill:#72CAB6;" d="M2022.4,495.956c7.256,41.373-8.484,78.704-35.156,83.382
						c-26.672,4.677-54.175-25.071-61.431-66.443c-7.256-41.373,8.484-78.704,35.156-83.382
						C1987.641,424.836,2015.145,454.583,2022.4,495.956z"/>
					<path style="fill:#72CAB6;" d="M2044.348,496.014c-7.473,41.334,8.07,78.747,34.717,83.565
						c26.647,4.817,54.307-24.785,61.78-66.119c7.473-41.335-8.07-78.748-34.717-83.565
						C2079.481,425.078,2051.822,454.68,2044.348,496.014z"/>
				</g>
			</g>
			<g>
				<g>
					<path style="fill:#9A71A1;" d="M2436.858,1574.824l-9.066-0.89c47.249-483.398,6.688-661.468-15.102-757.131
						c-11.065-48.581-17.16-75.338-2.518-108.964c0.084-0.191,0.171-0.387,0.256-0.582c-18.023-10.481-34.388-25.503-47.524-43.666
						c-23.161-32.019-33.379-69.466-28.036-102.735c3.992-24.871,16.708-46.179,35.809-59.996
						c14.504-10.493,31.858-16.152,50.432-16.494c0.894-17.322,4.499-33.568,10.736-48.358c7.386-17.522,17.98-31.864,31.486-42.625
						c11.946-9.515,25.447-15.645,40.127-18.216c14.691-2.562,29.469-1.406,43.93,3.479c13.89,4.684,26.737,12.562,38.245,23.434
						c4.075-3.799,8.368-7.264,12.805-10.343c21.166-14.688,45.865-20.422,69.524-16.138c23.67,4.279,44.791,18.292,59.477,39.457
						c13.381,19.288,21.048,43.47,22.284,70.173c18.576,0.436,35.903,6.192,50.356,16.766c11.8,8.625,21.016,19.867,27.393,33.403
						c7.082,15.031,10.256,32.607,9.179,50.832c-1.568,26.641-12.102,54.528-29.657,78.532
						c-13.232,18.092-29.675,33.025-47.754,43.412c0.087,0.2,0.172,0.396,0.256,0.591c8.777,20.445,1.682,71.441-10.076,155.921
						c-20.427,146.788-54.617,392.464-33.332,709.386l-9.088,0.614c-21.35-317.86,12.92-564.119,33.396-711.254
						c11.141-80.067,18.503-132.958,10.725-151.077c-0.603-1.406-1.23-2.802-1.884-4.194l-1.838-3.919l3.817-2.038
						c18.345-9.782,35.089-24.591,48.423-42.825c16.534-22.603,26.45-48.772,27.918-73.683c0.985-16.709-1.895-32.759-8.33-46.419
						c-5.72-12.14-13.973-22.211-24.528-29.928c-13.984-10.232-30.994-15.539-49.284-15.014l-4.568,0.102l-0.089-4.568
						c-0.516-26.668-7.711-50.743-20.807-69.617c-13.296-19.168-32.335-31.842-53.61-35.685
						c-21.27-3.848-43.543,1.352-62.713,14.653c-5.182,3.598-10.158,7.78-14.787,12.429l-3.25,3.265l-3.227-3.283
						c-11.304-11.49-24.053-19.684-37.892-24.355c-13-4.386-26.276-5.445-39.444-3.132c-13.163,2.305-25.282,7.812-36.023,16.366
						c-12.299,9.8-21.979,22.936-28.768,39.04c-6.323,14.995-9.753,31.65-10.193,49.502l-0.111,4.568l-4.566-0.124
						c-18.267-0.436-35.316,4.595-49.353,14.751c-23.11,16.717-30.064,41.041-32.153,54.052
						c-4.962,30.903,4.669,65.877,26.421,95.957c13.239,18.301,29.906,33.198,48.199,43.078l3.812,2.06l-1.864,3.91
						c-0.661,1.384-1.297,2.776-1.904,4.177c-13.45,30.881-7.936,55.085,3.047,103.301
						C2443.48,910.949,2484.252,1089.948,2436.858,1574.824z"/>
				</g>
				<g>
					<path style="fill:#9A71A1;" d="M2585.096,608.422c-42.36,1.006-52.257,40.627-90.606,76.615
						c-56.262,52.798-45.655,98.723-11.268,108.332s63.776-29.119,101.114-28.289c0.116,0.003,0.232,0.005,0.348,0.008
						c0.116-0.003,0.231-0.005,0.348-0.007c37.343-0.633,66.527,38.248,100.964,28.821c34.437-9.428,45.286-55.296-10.698-108.39
						C2637.139,649.324,2627.45,609.651,2585.096,608.422z"/>
					
						<ellipse transform="matrix(0.8103 -0.5861 0.5861 0.8103 109.9884 1547.734)" style="fill:#9A71A1;" cx="2445.282" cy="604.003" rx="46.493" ry="72.119"/>
					<path style="fill:#9A71A1;" d="M2687.406,577.293c-23.514,32.149-25.773,70.499-5.048,85.658
						c20.725,15.158,56.588,1.385,80.101-30.765c23.513-32.149,25.773-70.499,5.048-85.657
						C2746.781,531.37,2710.919,545.144,2687.406,577.293z"/>
					<path style="fill:#9A71A1;" d="M2574.418,495.956c7.255,41.373-8.485,78.704-35.156,83.382
						c-26.672,4.677-54.176-25.071-61.431-66.443c-7.255-41.373,8.485-78.704,35.156-83.382
						C2539.659,424.836,2567.163,454.583,2574.418,495.956z"/>
					<path style="fill:#9A71A1;" d="M2596.366,496.014c-7.473,41.334,8.07,78.747,34.717,83.565
						c26.647,4.817,54.307-24.785,61.78-66.119c7.473-41.335-8.07-78.748-34.717-83.565
						C2631.499,425.078,2603.839,454.68,2596.366,496.014z"/>
				</g>
			</g>
		</g>
	</g>
</g>
</svg>
