<svg xmlns="http://www.w3.org/2000/svg" xmlns:xlink="http://www.w3.org/1999/xlink" width="600" zoomAndPan="magnify" viewBox="0 0 450 299.999988" height="400" preserveAspectRatio="xMidYMid meet" version="1.0"><defs><clipPath id="e59c4acbfe"><path d="M 163 136 L 190 136 L 190 167 L 163 167 Z M 163 136 " clip-rule="nonzero"/></clipPath><clipPath id="46e9a5168a"><path d="M 111.613281 52.078125 L 261.472656 168.46875 L 162.5625 295.820312 L 12.703125 179.429688 Z M 111.613281 52.078125 " clip-rule="nonzero"/></clipPath><clipPath id="7bba9bf169"><path d="M 111.613281 52.078125 L 261.472656 168.46875 L 162.5625 295.820312 L 12.703125 179.429688 Z M 111.613281 52.078125 " clip-rule="nonzero"/></clipPath><clipPath id="4a00ae0304"><path d="M 111.613281 52.078125 L 261.472656 168.46875 L 162.5625 295.820312 L 12.703125 179.429688 Z M 111.613281 52.078125 " clip-rule="nonzero"/></clipPath><clipPath id="5b8a4a41ba"><path d="M 143 169 L 198 169 L 198 226 L 143 226 Z M 143 169 " clip-rule="nonzero"/></clipPath><clipPath id="fab7ff9c81"><path d="M 111.613281 52.078125 L 261.472656 168.46875 L 162.5625 295.820312 L 12.703125 179.429688 Z M 111.613281 52.078125 " clip-rule="nonzero"/></clipPath><clipPath id="93c0bb3399"><path d="M 111.613281 52.078125 L 261.472656 168.46875 L 162.5625 295.820312 L 12.703125 179.429688 Z M 111.613281 52.078125 " clip-rule="nonzero"/></clipPath><clipPath id="8aeb50b489"><path d="M 111.613281 52.078125 L 261.472656 168.46875 L 162.5625 295.820312 L 12.703125 179.429688 Z M 111.613281 52.078125 " clip-rule="nonzero"/></clipPath><clipPath id="0a80cac1d3"><path d="M 192 133 L 224 133 L 224 168 L 192 168 Z M 192 133 " clip-rule="nonzero"/></clipPath><clipPath id="e6b536bff7"><path d="M 111.613281 52.078125 L 261.472656 168.46875 L 162.5625 295.820312 L 12.703125 179.429688 Z M 111.613281 52.078125 " clip-rule="nonzero"/></clipPath><clipPath id="2c6b5731ab"><path d="M 111.613281 52.078125 L 261.472656 168.46875 L 162.5625 295.820312 L 12.703125 179.429688 Z M 111.613281 52.078125 " clip-rule="nonzero"/></clipPath><clipPath id="03a1e714b3"><path d="M 111.613281 52.078125 L 261.472656 168.46875 L 162.5625 295.820312 L 12.703125 179.429688 Z M 111.613281 52.078125 " clip-rule="nonzero"/></clipPath><clipPath id="9097914bde"><path d="M 196 193 L 231 193 L 231 216 L 196 216 Z M 196 193 " clip-rule="nonzero"/></clipPath><clipPath id="cfdaf06e8d"><path d="M 111.613281 52.078125 L 261.472656 168.46875 L 162.5625 295.820312 L 12.703125 179.429688 Z M 111.613281 52.078125 " clip-rule="nonzero"/></clipPath><clipPath id="3aefc88bdf"><path d="M 111.613281 52.078125 L 261.472656 168.46875 L 162.5625 295.820312 L 12.703125 179.429688 Z M 111.613281 52.078125 " clip-rule="nonzero"/></clipPath><clipPath id="1ef516c650"><path d="M 111.613281 52.078125 L 261.472656 168.46875 L 162.5625 295.820312 L 12.703125 179.429688 Z M 111.613281 52.078125 " clip-rule="nonzero"/></clipPath><clipPath id="dd1d8e08cb"><path d="M 207 160 L 245 160 L 245 188 L 207 188 Z M 207 160 " clip-rule="nonzero"/></clipPath><clipPath id="b90a21dab6"><path d="M 111.613281 52.078125 L 261.472656 168.46875 L 162.5625 295.820312 L 12.703125 179.429688 Z M 111.613281 52.078125 " clip-rule="nonzero"/></clipPath><clipPath id="34ec69048e"><path d="M 111.613281 52.078125 L 261.472656 168.46875 L 162.5625 295.820312 L 12.703125 179.429688 Z M 111.613281 52.078125 " clip-rule="nonzero"/></clipPath><clipPath id="493058fc28"><path d="M 111.613281 52.078125 L 261.472656 168.46875 L 162.5625 295.820312 L 12.703125 179.429688 Z M 111.613281 52.078125 " clip-rule="nonzero"/></clipPath><clipPath id="3f2825ba06"><path d="M 37 138 L 60 138 L 60 172 L 37 172 Z M 37 138 " clip-rule="nonzero"/></clipPath><clipPath id="c85aa550f6"><path d="M 111.613281 52.078125 L 261.472656 168.46875 L 162.5625 295.820312 L 12.703125 179.429688 Z M 111.613281 52.078125 " clip-rule="nonzero"/></clipPath><clipPath id="1b3bdac8c0"><path d="M 111.613281 52.078125 L 261.472656 168.46875 L 162.5625 295.820312 L 12.703125 179.429688 Z M 111.613281 52.078125 " clip-rule="nonzero"/></clipPath><clipPath id="150eef4eea"><path d="M 111.613281 52.078125 L 261.472656 168.46875 L 162.5625 295.820312 L 12.703125 179.429688 Z M 111.613281 52.078125 " clip-rule="nonzero"/></clipPath><clipPath id="4c933e0c3a"><path d="M 47.414062 134.871094 L 68.667969 151.378906 L 50.3125 175.011719 L 29.058594 158.503906 Z M 47.414062 134.871094 " clip-rule="nonzero"/></clipPath><clipPath id="4a82b7cc0f"><path d="M 40 162 L 97 162 L 97 217 L 40 217 Z M 40 162 " clip-rule="nonzero"/></clipPath><clipPath id="da79aba2d3"><path d="M 111.613281 52.078125 L 261.472656 168.46875 L 162.5625 295.820312 L 12.703125 179.429688 Z M 111.613281 52.078125 " clip-rule="nonzero"/></clipPath><clipPath id="822a21e2b2"><path d="M 111.613281 52.078125 L 261.472656 168.46875 L 162.5625 295.820312 L 12.703125 179.429688 Z M 111.613281 52.078125 " clip-rule="nonzero"/></clipPath><clipPath id="33ded08d83"><path d="M 111.613281 52.078125 L 261.472656 168.46875 L 162.5625 295.820312 L 12.703125 179.429688 Z M 111.613281 52.078125 " clip-rule="nonzero"/></clipPath><clipPath id="f91d8192da"><path d="M 68.429688 154.652344 L 112.457031 188.847656 L 79.488281 231.296875 L 35.460938 197.101562 Z M 68.429688 154.652344 " clip-rule="nonzero"/></clipPath><clipPath id="6719e4c49c"><path d="M 60 116 L 86 116 L 86 155 L 60 155 Z M 60 116 " clip-rule="nonzero"/></clipPath><clipPath id="81b045d9ed"><path d="M 111.613281 52.078125 L 261.472656 168.46875 L 162.5625 295.820312 L 12.703125 179.429688 Z M 111.613281 52.078125 " clip-rule="nonzero"/></clipPath><clipPath id="2c3daba78d"><path d="M 111.613281 52.078125 L 261.472656 168.46875 L 162.5625 295.820312 L 12.703125 179.429688 Z M 111.613281 52.078125 " clip-rule="nonzero"/></clipPath><clipPath id="d53695bbad"><path d="M 111.613281 52.078125 L 261.472656 168.46875 L 162.5625 295.820312 L 12.703125 179.429688 Z M 111.613281 52.078125 " clip-rule="nonzero"/></clipPath><clipPath id="213dd07740"><path d="M 95 162 L 126 162 L 126 189 L 95 189 Z M 95 162 " clip-rule="nonzero"/></clipPath><clipPath id="82dd33b061"><path d="M 111.613281 52.078125 L 261.472656 168.46875 L 162.5625 295.820312 L 12.703125 179.429688 Z M 111.613281 52.078125 " clip-rule="nonzero"/></clipPath><clipPath id="faf6cd2634"><path d="M 111.613281 52.078125 L 261.472656 168.46875 L 162.5625 295.820312 L 12.703125 179.429688 Z M 111.613281 52.078125 " clip-rule="nonzero"/></clipPath><clipPath id="1cad05dee9"><path d="M 111.613281 52.078125 L 261.472656 168.46875 L 162.5625 295.820312 L 12.703125 179.429688 Z M 111.613281 52.078125 " clip-rule="nonzero"/></clipPath><clipPath id="d492e1afd2"><path d="M 87 125 L 117 125 L 117 161 L 87 161 Z M 87 125 " clip-rule="nonzero"/></clipPath><clipPath id="22ae531a59"><path d="M 111.613281 52.078125 L 261.472656 168.46875 L 162.5625 295.820312 L 12.703125 179.429688 Z M 111.613281 52.078125 " clip-rule="nonzero"/></clipPath><clipPath id="bce299125b"><path d="M 111.613281 52.078125 L 261.472656 168.46875 L 162.5625 295.820312 L 12.703125 179.429688 Z M 111.613281 52.078125 " clip-rule="nonzero"/></clipPath><clipPath id="2ecc5d418b"><path d="M 111.613281 52.078125 L 261.472656 168.46875 L 162.5625 295.820312 L 12.703125 179.429688 Z M 111.613281 52.078125 " clip-rule="nonzero"/></clipPath><clipPath id="ea6f6c2d4f"><path d="M 354 119 L 385 119 L 385 143 L 354 143 Z M 354 119 " clip-rule="nonzero"/></clipPath><clipPath id="466b650415"><path d="M 365.457031 19.605469 L 429.582031 185.386719 L 288.984375 239.769531 L 224.859375 73.988281 Z M 365.457031 19.605469 " clip-rule="nonzero"/></clipPath><clipPath id="6e4b76e9c5"><path d="M 365.457031 19.605469 L 429.582031 185.386719 L 288.984375 239.769531 L 224.859375 73.988281 Z M 365.457031 19.605469 " clip-rule="nonzero"/></clipPath><clipPath id="cfa7fe4d5d"><path d="M 365.457031 19.605469 L 429.582031 185.386719 L 288.984375 239.769531 L 224.859375 73.988281 Z M 365.457031 19.605469 " clip-rule="nonzero"/></clipPath><clipPath id="e396514e2a"><path d="M 325 137 L 373 137 L 373 191 L 325 191 Z M 325 137 " clip-rule="nonzero"/></clipPath><clipPath id="af97149120"><path d="M 365.457031 19.605469 L 429.582031 185.386719 L 288.984375 239.769531 L 224.859375 73.988281 Z M 365.457031 19.605469 " clip-rule="nonzero"/></clipPath><clipPath id="b6eee0527b"><path d="M 365.457031 19.605469 L 429.582031 185.386719 L 288.984375 239.769531 L 224.859375 73.988281 Z M 365.457031 19.605469 " clip-rule="nonzero"/></clipPath><clipPath id="7b0850ca8a"><path d="M 365.457031 19.605469 L 429.582031 185.386719 L 288.984375 239.769531 L 224.859375 73.988281 Z M 365.457031 19.605469 " clip-rule="nonzero"/></clipPath><clipPath id="2b1f66ba1b"><path d="M 378 132 L 413 132 L 413 158 L 378 158 Z M 378 132 " clip-rule="nonzero"/></clipPath><clipPath id="12ea8cccd6"><path d="M 365.457031 19.605469 L 429.582031 185.386719 L 288.984375 239.769531 L 224.859375 73.988281 Z M 365.457031 19.605469 " clip-rule="nonzero"/></clipPath><clipPath id="5872141ddb"><path d="M 365.457031 19.605469 L 429.582031 185.386719 L 288.984375 239.769531 L 224.859375 73.988281 Z M 365.457031 19.605469 " clip-rule="nonzero"/></clipPath><clipPath id="a57b475f77"><path d="M 365.457031 19.605469 L 429.582031 185.386719 L 288.984375 239.769531 L 224.859375 73.988281 Z M 365.457031 19.605469 " clip-rule="nonzero"/></clipPath><clipPath id="0dfdfb648c"><path d="M 359 179 L 389 179 L 389 204 L 359 204 Z M 359 179 " clip-rule="nonzero"/></clipPath><clipPath id="352692d77f"><path d="M 365.457031 19.605469 L 429.582031 185.386719 L 288.984375 239.769531 L 224.859375 73.988281 Z M 365.457031 19.605469 " clip-rule="nonzero"/></clipPath><clipPath id="4543433776"><path d="M 365.457031 19.605469 L 429.582031 185.386719 L 288.984375 239.769531 L 224.859375 73.988281 Z M 365.457031 19.605469 " clip-rule="nonzero"/></clipPath><clipPath id="41aee6202c"><path d="M 365.457031 19.605469 L 429.582031 185.386719 L 288.984375 239.769531 L 224.859375 73.988281 Z M 365.457031 19.605469 " clip-rule="nonzero"/></clipPath><clipPath id="74f493fb0c"><path d="M 380 160 L 416 160 L 416 185 L 380 185 Z M 380 160 " clip-rule="nonzero"/></clipPath><clipPath id="ca975ba498"><path d="M 365.457031 19.605469 L 429.582031 185.386719 L 288.984375 239.769531 L 224.859375 73.988281 Z M 365.457031 19.605469 " clip-rule="nonzero"/></clipPath><clipPath id="2e5c556fba"><path d="M 365.457031 19.605469 L 429.582031 185.386719 L 288.984375 239.769531 L 224.859375 73.988281 Z M 365.457031 19.605469 " clip-rule="nonzero"/></clipPath><clipPath id="2dcbc4dba0"><path d="M 365.457031 19.605469 L 429.582031 185.386719 L 288.984375 239.769531 L 224.859375 73.988281 Z M 365.457031 19.605469 " clip-rule="nonzero"/></clipPath><clipPath id="11631298d6"><path d="M 253 57 L 278 57 L 278 87 L 253 87 Z M 253 57 " clip-rule="nonzero"/></clipPath><clipPath id="b70461ea58"><path d="M 365.457031 19.605469 L 429.582031 185.386719 L 288.984375 239.769531 L 224.859375 73.988281 Z M 365.457031 19.605469 " clip-rule="nonzero"/></clipPath><clipPath id="9df7e4db50"><path d="M 365.457031 19.605469 L 429.582031 185.386719 L 288.984375 239.769531 L 224.859375 73.988281 Z M 365.457031 19.605469 " clip-rule="nonzero"/></clipPath><clipPath id="4565e4bb48"><path d="M 365.457031 19.605469 L 429.582031 185.386719 L 288.984375 239.769531 L 224.859375 73.988281 Z M 365.457031 19.605469 " clip-rule="nonzero"/></clipPath><clipPath id="f90f3bde41"><path d="M 274.132812 55.011719 L 283.230469 78.523438 L 257.136719 88.617188 L 248.039062 65.101562 Z M 274.132812 55.011719 " clip-rule="nonzero"/></clipPath><clipPath id="c8fcd9e14d"><path d="M 237 87 L 289 87 L 289 141 L 237 141 Z M 237 87 " clip-rule="nonzero"/></clipPath><clipPath id="ff77fb8343"><path d="M 365.457031 19.605469 L 429.582031 185.386719 L 288.984375 239.769531 L 224.859375 73.988281 Z M 365.457031 19.605469 " clip-rule="nonzero"/></clipPath><clipPath id="79c6f90d18"><path d="M 365.457031 19.605469 L 429.582031 185.386719 L 288.984375 239.769531 L 224.859375 73.988281 Z M 365.457031 19.605469 " clip-rule="nonzero"/></clipPath><clipPath id="5e813e465e"><path d="M 365.457031 19.605469 L 429.582031 185.386719 L 288.984375 239.769531 L 224.859375 73.988281 Z M 365.457031 19.605469 " clip-rule="nonzero"/></clipPath><clipPath id="c190622677"><path d="M 281.460938 81.035156 L 300.300781 129.742188 L 253.4375 147.871094 L 234.597656 99.164062 Z M 281.460938 81.035156 " clip-rule="nonzero"/></clipPath><clipPath id="3813fef9e2"><path d="M 281 51 L 309 51 L 309 85 L 281 85 Z M 281 51 " clip-rule="nonzero"/></clipPath><clipPath id="c66926862c"><path d="M 365.457031 19.605469 L 429.582031 185.386719 L 288.984375 239.769531 L 224.859375 73.988281 Z M 365.457031 19.605469 " clip-rule="nonzero"/></clipPath><clipPath id="f8293fa379"><path d="M 365.457031 19.605469 L 429.582031 185.386719 L 288.984375 239.769531 L 224.859375 73.988281 Z M 365.457031 19.605469 " clip-rule="nonzero"/></clipPath><clipPath id="7c19b0e7f0"><path d="M 365.457031 19.605469 L 429.582031 185.386719 L 288.984375 239.769531 L 224.859375 73.988281 Z M 365.457031 19.605469 " clip-rule="nonzero"/></clipPath><clipPath id="6878e3f99f"><path d="M 289 107 L 321 107 L 321 129 L 289 129 Z M 289 107 " clip-rule="nonzero"/></clipPath><clipPath id="864a52e98e"><path d="M 365.457031 19.605469 L 429.582031 185.386719 L 288.984375 239.769531 L 224.859375 73.988281 Z M 365.457031 19.605469 " clip-rule="nonzero"/></clipPath><clipPath id="6d82b22e15"><path d="M 365.457031 19.605469 L 429.582031 185.386719 L 288.984375 239.769531 L 224.859375 73.988281 Z M 365.457031 19.605469 " clip-rule="nonzero"/></clipPath><clipPath id="2a4065b970"><path d="M 365.457031 19.605469 L 429.582031 185.386719 L 288.984375 239.769531 L 224.859375 73.988281 Z M 365.457031 19.605469 " clip-rule="nonzero"/></clipPath><clipPath id="77891c2b1b"><path d="M 296 74 L 331 74 L 331 101 L 296 101 Z M 296 74 " clip-rule="nonzero"/></clipPath><clipPath id="6e1e9ff7eb"><path d="M 365.457031 19.605469 L 429.582031 185.386719 L 288.984375 239.769531 L 224.859375 73.988281 Z M 365.457031 19.605469 " clip-rule="nonzero"/></clipPath><clipPath id="5003d662df"><path d="M 365.457031 19.605469 L 429.582031 185.386719 L 288.984375 239.769531 L 224.859375 73.988281 Z M 365.457031 19.605469 " clip-rule="nonzero"/></clipPath><clipPath id="72c60844ef"><path d="M 365.457031 19.605469 L 429.582031 185.386719 L 288.984375 239.769531 L 224.859375 73.988281 Z M 365.457031 19.605469 " clip-rule="nonzero"/></clipPath></defs><rect x="-45" width="540" fill="#ffffff" y="-29.999999" height="359.999986" fill-opacity="1"/><rect x="-45" width="540" fill="#c7ddcc" y="-29.999999" height="359.999986" fill-opacity="1"/><g clip-path="url(#e59c4acbfe)"><g clip-path="url(#46e9a5168a)"><g clip-path="url(#7bba9bf169)"><g clip-path="url(#4a00ae0304)"><path fill="#110f0d" d="M 177.058594 137.707031 C 180.71875 136.253906 183.851562 136.378906 186.390625 138.101562 C 188.914062 139.964844 190.066406 142.878906 189.800781 146.78125 C 189.476562 150.75 187.960938 154.621094 185.304688 158.292969 C 182.582031 162.050781 179.421875 164.519531 175.957031 165.617188 C 174.039062 166.34375 172.289062 166.65625 170.589844 166.5625 C 169.0625 166.480469 167.683594 165.992188 166.492188 165.117188 L 166.40625 165.050781 C 163.988281 163.273438 162.882812 160.375 163.125 156.460938 C 163.253906 152.609375 164.746094 148.75 167.550781 145.011719 C 170.078125 141.390625 173.289062 138.925781 177.058594 137.707031 " fill-opacity="1" fill-rule="nonzero"/></g></g></g></g><g clip-path="url(#5b8a4a41ba)"><g clip-path="url(#fab7ff9c81)"><g clip-path="url(#93c0bb3399)"><g clip-path="url(#8aeb50b489)"><path fill="#110f0d" d="M 171.578125 169.582031 C 182.164062 168.082031 189.941406 169.976562 194.625 175.179688 L 194.695312 175.273438 C 195.210938 176.078125 195.675781 176.929688 196.066406 177.804688 C 198.789062 183.902344 198.414062 191.804688 194.957031 201.292969 C 193.742188 204.566406 192.222656 208 190.421875 211.53125 C 187.289062 216.96875 184.105469 220.917969 180.917969 223.300781 C 176.675781 226.039062 172.875 226.210938 169.613281 223.808594 C 166.613281 221.601562 164.078125 217.109375 162.058594 210.421875 C 161.238281 207.019531 159.53125 204.34375 156.980469 202.46875 C 156.660156 202.230469 156.328125 202.007812 155.953125 201.773438 C 155.179688 201.253906 154.425781 200.722656 153.71875 200.203125 C 149.542969 197.125 146.558594 194.089844 144.855469 191.191406 C 143.085938 188.300781 142.589844 185.570312 143.378906 183.078125 C 144.441406 179.714844 147.714844 176.871094 153.4375 174.382812 C 160.230469 171.941406 166.328125 170.324219 171.578125 169.582031 " fill-opacity="1" fill-rule="nonzero"/></g></g></g></g><g clip-path="url(#0a80cac1d3)"><g clip-path="url(#e6b536bff7)"><g clip-path="url(#2c6b5731ab)"><g clip-path="url(#03a1e714b3)"><path fill="#110f0d" d="M 207.261719 166.671875 C 203.035156 168.34375 199.457031 168.132812 196.632812 166.054688 L 196.609375 166.039062 C 193.917969 163.902344 192.695312 160.578125 192.980469 156.191406 C 193.042969 151.714844 194.65625 147.398438 197.773438 143.359375 C 200.9375 139.195312 204.550781 136.328125 208.511719 134.832031 C 212.699219 133.257812 216.226562 133.492188 218.996094 135.539062 L 219.082031 135.601562 C 221.75 137.617188 223.078125 140.898438 223.03125 145.355469 L 223.027344 145.433594 C 222.519531 149.847656 220.824219 153.996094 217.839844 158.101562 C 216.355469 160.183594 214.65625 161.949219 212.804688 163.339844 C 211.167969 164.683594 209.308594 165.804688 207.261719 166.671875 " fill-opacity="1" fill-rule="nonzero"/></g></g></g></g><g clip-path="url(#9097914bde)"><g clip-path="url(#cfdaf06e8d)"><g clip-path="url(#3aefc88bdf)"><g clip-path="url(#1ef516c650)"><path fill="#110f0d" d="M 201.941406 196.605469 C 204.777344 194.753906 208.136719 193.785156 212.199219 193.640625 C 212.542969 193.621094 212.890625 193.625 213.242188 193.625 C 213.4375 193.632812 213.632812 193.632812 213.835938 193.628906 C 218.195312 193.585938 222.015625 194.753906 225.195312 197.09375 L 225.285156 197.164062 C 228.597656 199.265625 230.292969 201.867188 230.347656 204.945312 C 230.300781 208.058594 228.578125 210.691406 225.222656 212.785156 C 221.839844 214.8125 217.816406 215.824219 213.257812 215.777344 C 210.644531 215.730469 208.300781 215.363281 206.292969 214.675781 C 204.632812 214.082031 203.144531 213.304688 201.890625 212.382812 C 201.886719 212.382812 201.886719 212.382812 201.886719 212.382812 C 201.699219 212.253906 201.511719 212.125 201.339844 211.996094 C 199.929688 210.957031 198.816406 209.796875 198.011719 208.546875 C 197.199219 207.230469 196.789062 205.820312 196.804688 204.359375 C 196.835938 201.335938 198.566406 198.726562 201.941406 196.605469 " fill-opacity="1" fill-rule="nonzero"/></g></g></g></g><g clip-path="url(#dd1d8e08cb)"><g clip-path="url(#b90a21dab6)"><g clip-path="url(#34ec69048e)"><g clip-path="url(#493058fc28)"><path fill="#110f0d" d="M 230.03125 185.570312 C 227.511719 186.507812 225.171875 187.011719 222.929688 187.113281 C 220.777344 187.359375 218.613281 187.253906 216.472656 186.796875 L 216.144531 186.714844 C 215.585938 186.578125 215.058594 186.449219 214.542969 186.269531 C 213.238281 185.828125 212.097656 185.246094 211.140625 184.542969 C 209.664062 183.453125 208.601562 182.050781 207.976562 180.335938 C 206.917969 177.066406 207.761719 173.636719 210.457031 170.171875 C 212.980469 166.496094 216.71875 163.800781 221.5625 162.167969 C 223.640625 161.457031 225.703125 160.96875 227.699219 160.722656 C 230.386719 160.398438 232.847656 160.492188 235.230469 161.007812 C 239.566406 162.039062 242.375 164.25 243.5625 167.554688 C 244.65625 170.679688 243.949219 174.144531 241.453125 177.859375 L 241.429688 177.894531 L 241.402344 177.925781 C 238.574219 181.253906 234.75 183.824219 230.03125 185.570312 " fill-opacity="1" fill-rule="nonzero"/></g></g></g></g><g clip-path="url(#3f2825ba06)"><g clip-path="url(#c85aa550f6)"><g clip-path="url(#1b3bdac8c0)"><g clip-path="url(#150eef4eea)"><g clip-path="url(#4c933e0c3a)"><path fill="#110f0d" d="M 48.632812 138.128906 C 51.769531 138.105469 54.4375 139.753906 56.5625 143.035156 C 58.679688 146.40625 59.785156 150.410156 59.851562 154.945312 C 59.921875 159.582031 58.867188 163.449219 56.75 166.40625 C 55.648438 168.132812 54.425781 169.433594 53.015625 170.375 C 51.746094 171.226562 50.34375 171.664062 48.863281 171.671875 L 48.757812 171.675781 C 45.753906 171.695312 43.136719 170.039062 40.984375 166.757812 C 38.78125 163.597656 37.667969 159.613281 37.671875 154.941406 C 37.53125 150.53125 38.632812 146.636719 40.917969 143.40625 C 42.980469 140.046875 45.566406 138.269531 48.632812 138.128906 " fill-opacity="1" fill-rule="nonzero"/></g></g></g></g></g><g clip-path="url(#4a82b7cc0f)"><g clip-path="url(#da79aba2d3)"><g clip-path="url(#822a21e2b2)"><g clip-path="url(#33ded08d83)"><g clip-path="url(#f91d8192da)"><path fill="#110f0d" d="M 77.429688 162.878906 L 77.546875 162.914062 C 78.4375 163.246094 79.320312 163.652344 80.15625 164.121094 C 85.988281 167.371094 90.421875 173.917969 93.332031 183.585938 C 94.316406 186.933594 95.160156 190.589844 95.828125 194.496094 C 96.574219 200.722656 96.390625 205.792969 95.257812 209.609375 C 93.503906 214.34375 90.558594 216.761719 86.511719 216.789062 C 82.785156 216.816406 78.0625 214.742188 72.441406 210.59375 C 69.75 208.367188 66.773438 207.246094 63.613281 207.269531 C 63.214844 207.273438 62.808594 207.292969 62.371094 207.332031 C 61.433594 207.378906 60.515625 207.40625 59.640625 207.410156 C 54.457031 207.449219 50.246094 206.804688 47.144531 205.507812 C 43.996094 204.25 41.964844 202.367188 41.097656 199.898438 C 39.9375 196.566406 40.859375 192.328125 43.953125 186.90625 C 47.933594 180.890625 51.855469 175.941406 55.613281 172.203125 C 63.199219 164.660156 70.5625 161.519531 77.429688 162.878906 " fill-opacity="1" fill-rule="nonzero"/></g></g></g></g></g><g clip-path="url(#6719e4c49c)"><g clip-path="url(#81b045d9ed)"><g clip-path="url(#2c3daba78d)"><g clip-path="url(#d53695bbad)"><path fill="#110f0d" d="M 73.574219 154.371094 L 73.558594 154.371094 L 73.546875 154.367188 C 70.113281 154.277344 67.140625 152.347656 64.742188 148.667969 C 62.113281 145.042969 60.824219 140.621094 60.902344 135.519531 C 60.941406 130.292969 62.121094 125.832031 64.398438 122.261719 C 66.8125 118.496094 69.777344 116.570312 73.21875 116.546875 L 73.328125 116.546875 C 76.671875 116.558594 79.699219 118.394531 82.332031 121.992188 L 82.375 122.054688 C 84.613281 125.890625 85.734375 130.226562 85.808594 135.300781 C 85.859375 137.855469 85.554688 140.292969 84.910156 142.515625 C 84.402344 144.570312 83.582031 146.578125 82.464844 148.496094 C 80.074219 152.371094 77.085938 154.347656 73.574219 154.371094 " fill-opacity="1" fill-rule="nonzero"/></g></g></g></g><g clip-path="url(#213dd07740)"><g clip-path="url(#82dd33b061)"><g clip-path="url(#faf6cd2634)"><g clip-path="url(#1cad05dee9)"><path fill="#110f0d" d="M 105.527344 188.308594 C 105.296875 188.320312 105.074219 188.324219 104.851562 188.328125 C 103.105469 188.339844 101.519531 188.085938 100.128906 187.558594 C 98.683594 186.996094 97.515625 186.113281 96.648438 184.929688 C 94.859375 182.496094 94.6875 179.367188 96.121094 175.648438 C 97.285156 172.46875 99.394531 169.683594 102.5625 167.132812 C 102.828125 166.910156 103.109375 166.707031 103.398438 166.496094 C 103.550781 166.382812 103.710938 166.265625 103.871094 166.140625 C 107.335938 163.496094 111.09375 162.140625 115.042969 162.113281 L 115.15625 162.113281 C 119.066406 161.8125 121.988281 162.882812 123.875 165.316406 C 125.699219 167.832031 125.898438 170.96875 124.460938 174.65625 C 122.96875 178.308594 120.347656 181.523438 116.671875 184.21875 C 114.546875 185.746094 112.449219 186.855469 110.425781 187.507812 C 108.746094 188.03125 107.085938 188.300781 105.527344 188.308594 " fill-opacity="1" fill-rule="nonzero"/></g></g></g></g><g clip-path="url(#d492e1afd2)"><g clip-path="url(#22ae531a59)"><g clip-path="url(#bce299125b)"><g clip-path="url(#2ecc5d418b)"><path fill="#110f0d" d="M 101.894531 159.09375 L 101.582031 159.222656 C 101.046875 159.449219 100.550781 159.660156 100.027344 159.828125 C 98.722656 160.253906 97.457031 160.472656 96.269531 160.484375 C 94.4375 160.496094 92.742188 160.007812 91.214844 159.011719 C 88.410156 157.027344 87.03125 153.773438 87.121094 149.390625 C 86.9375 144.933594 88.316406 140.539062 91.21875 136.328125 C 92.460938 134.515625 93.824219 132.886719 95.273438 131.496094 C 97.234375 129.625 99.261719 128.230469 101.476562 127.210938 C 105.570312 125.441406 109.148438 125.527344 112.070312 127.464844 C 114.824219 129.3125 116.332031 132.507812 116.554688 136.976562 L 116.554688 137.019531 L 116.550781 137.058594 C 116.28125 141.417969 114.753906 145.765625 112.019531 149.992188 C 110.5625 152.25 108.992188 154.058594 107.253906 155.480469 C 105.675781 156.96875 103.878906 158.179688 101.894531 159.09375 " fill-opacity="1" fill-rule="nonzero"/></g></g></g></g><g clip-path="url(#ea6f6c2d4f)"><g clip-path="url(#466b650415)"><g clip-path="url(#6e4b76e9c5)"><g clip-path="url(#cfa7fe4d5d)"><path fill="#110f0d" d="M 376.707031 119.921875 C 380.34375 120.523438 382.792969 122.140625 384.003906 124.75 C 385.128906 127.460938 384.648438 130.355469 382.558594 133.359375 C 380.386719 136.386719 377.308594 138.761719 373.410156 140.421875 C 369.421875 142.121094 365.699219 142.578125 362.390625 141.78125 C 360.507812 141.441406 358.953125 140.84375 357.636719 139.949219 C 356.449219 139.144531 355.578125 138.085938 355.046875 136.808594 L 355.007812 136.714844 C 353.925781 134.117188 354.433594 131.261719 356.511719 128.238281 C 358.46875 125.210938 361.523438 122.835938 365.570312 121.1875 C 369.339844 119.507812 373.101562 119.082031 376.707031 119.921875 " fill-opacity="1" fill-rule="nonzero"/></g></g></g></g><g clip-path="url(#e396514e2a)"><g clip-path="url(#af97149120)"><g clip-path="url(#b6eee0527b)"><g clip-path="url(#7b0850ca8a)"><path fill="#110f0d" d="M 356.972656 142.847656 C 366.183594 146.761719 371.503906 152.039062 372.753906 158.472656 L 372.769531 158.585938 C 372.796875 159.480469 372.757812 160.386719 372.648438 161.277344 C 371.894531 167.480469 367.792969 173.644531 360.453125 179.585938 C 357.90625 181.625 355.03125 183.644531 351.890625 185.605469 C 346.761719 188.457031 342.308594 190.085938 338.605469 190.457031 C 333.886719 190.605469 330.753906 188.90625 329.296875 185.40625 C 327.953125 182.183594 328.085938 177.351562 329.6875 171.011719 C 330.664062 167.886719 330.585938 164.917969 329.441406 162.179688 C 329.300781 161.835938 329.140625 161.492188 328.949219 161.125 C 328.582031 160.332031 328.234375 159.542969 327.917969 158.785156 C 326.050781 154.300781 325.117188 150.425781 325.144531 147.273438 C 325.121094 144.101562 326.035156 141.667969 327.871094 140.050781 C 330.339844 137.863281 334.332031 137.167969 340.121094 137.933594 C 346.742188 139.257812 352.40625 140.910156 356.972656 142.847656 " fill-opacity="1" fill-rule="nonzero"/></g></g></g></g><g clip-path="url(#2b1f66ba1b)"><g clip-path="url(#12ea8cccd6)"><g clip-path="url(#5872141ddb)"><g clip-path="url(#a57b475f77)"><path fill="#110f0d" d="M 386.984375 157.753906 C 382.789062 157.050781 380.019531 155.15625 378.757812 152.121094 L 378.75 152.097656 C 377.617188 149.085938 378.238281 145.828125 380.578125 142.445312 C 382.78125 138.886719 386.152344 136.203125 390.597656 134.464844 C 395.136719 132.652344 399.417969 132.097656 403.3125 132.816406 C 407.425781 133.570312 410.140625 135.464844 411.378906 138.445312 L 411.417969 138.539062 C 412.585938 141.441406 412.070312 144.71875 409.886719 148.269531 L 409.84375 148.332031 C 407.316406 151.625 403.957031 154.136719 399.589844 155.988281 C 397.398438 156.941406 395.183594 157.539062 393.03125 157.757812 C 391.074219 158.046875 389.042969 158.046875 386.984375 157.753906 " fill-opacity="1" fill-rule="nonzero"/></g></g></g></g><g clip-path="url(#0dfdfb648c)"><g clip-path="url(#352692d77f)"><g clip-path="url(#4543433776)"><g clip-path="url(#41aee6202c)"><path fill="#110f0d" d="M 368.3125 179.199219 C 371.476562 179.082031 374.632812 179.925781 377.960938 181.777344 C 378.246094 181.925781 378.523438 182.097656 378.804688 182.269531 C 378.960938 182.367188 379.117188 182.460938 379.277344 182.558594 C 382.792969 184.628906 385.296875 187.410156 386.71875 190.824219 L 386.757812 190.921875 C 388.402344 194.210938 388.507812 197.117188 387.070312 199.617188 C 385.535156 202.089844 382.886719 203.371094 379.1875 203.425781 C 375.5 203.421875 371.789062 202.289062 368.15625 200.046875 C 366.082031 198.746094 364.382812 197.320312 363.101562 195.796875 C 362.058594 194.519531 361.234375 193.179688 360.675781 191.832031 C 360.671875 191.832031 360.671875 191.828125 360.671875 191.828125 C 360.585938 191.636719 360.5 191.441406 360.417969 191.253906 C 359.792969 189.738281 359.453125 188.273438 359.414062 186.878906 C 359.394531 185.429688 359.746094 184.105469 360.457031 182.9375 C 361.941406 180.527344 364.585938 179.269531 368.3125 179.199219 " fill-opacity="1" fill-rule="nonzero"/></g></g></g></g><g clip-path="url(#74f493fb0c)"><g clip-path="url(#ca975ba498)"><g clip-path="url(#2e5c556fba)"><g clip-path="url(#2dcbc4dba0)"><path fill="#110f0d" d="M 396.140625 183.917969 C 393.671875 183.449219 391.554688 182.726562 389.707031 181.722656 C 387.859375 180.882812 386.175781 179.75 384.683594 178.351562 L 384.457031 178.125 C 384.074219 177.746094 383.714844 177.386719 383.386719 176.996094 C 382.554688 176.011719 381.917969 174.992188 381.492188 173.964844 C 380.832031 172.378906 380.65625 170.738281 380.980469 169.0625 C 381.703125 165.925781 384.035156 163.582031 387.859375 162.105469 C 391.652344 160.375 395.945312 160.019531 400.617188 161.046875 C 402.625 161.484375 404.515625 162.089844 406.230469 162.855469 C 408.546875 163.894531 410.472656 165.15625 412.132812 166.722656 C 415.113281 169.644531 416.300781 172.777344 415.664062 176 C 415.035156 179.035156 412.800781 181.476562 409.011719 183.25 L 408.976562 183.265625 L 408.9375 183.277344 C 405.070312 184.582031 400.765625 184.796875 396.140625 183.917969 " fill-opacity="1" fill-rule="nonzero"/></g></g></g></g><g clip-path="url(#11631298d6)"><g clip-path="url(#b70461ea58)"><g clip-path="url(#9df7e4db50)"><g clip-path="url(#4565e4bb48)"><g clip-path="url(#f90f3bde41)"><path fill="#110f0d" d="M 273.542969 58.210938 C 276.066406 59.710938 277.414062 62.324219 277.539062 65.980469 C 277.613281 69.707031 276.570312 73.453125 274.445312 77.125 C 272.265625 80.878906 269.558594 83.472656 266.4375 84.824219 C 264.726562 85.675781 263.121094 86.128906 261.535156 86.203125 C 260.105469 86.273438 258.773438 85.945312 257.582031 85.238281 L 257.496094 85.1875 C 255.078125 83.753906 253.777344 81.15625 253.628906 77.488281 C 253.382812 73.886719 254.410156 70.152344 256.664062 66.410156 C 258.671875 62.800781 261.429688 60.207031 264.816406 58.71875 C 268.085938 57.019531 271.015625 56.84375 273.542969 58.210938 " fill-opacity="1" fill-rule="nonzero"/></g></g></g></g></g><g clip-path="url(#c8fcd9e14d)"><g clip-path="url(#ff77fb8343)"><g clip-path="url(#79c6f90d18)"><g clip-path="url(#5e813e465e)"><g clip-path="url(#c190622677)"><path fill="#110f0d" d="M 284.71875 91.984375 L 284.792969 92.066406 C 285.347656 92.765625 285.859375 93.515625 286.304688 94.296875 C 289.417969 99.722656 289.820312 107.117188 287.5 116.277344 C 286.679688 119.441406 285.59375 122.78125 284.25 126.238281 C 281.851562 131.59375 279.261719 135.574219 276.519531 138.085938 C 272.832031 141.035156 269.308594 141.554688 266.046875 139.621094 C 263.050781 137.84375 260.261719 133.898438 257.75 127.855469 C 256.664062 124.765625 254.820312 122.433594 252.273438 120.921875 C 251.953125 120.730469 251.617188 120.554688 251.246094 120.371094 C 250.476562 119.957031 249.726562 119.535156 249.019531 119.117188 C 244.84375 116.640625 241.78125 114.089844 239.917969 111.554688 C 238 109.023438 237.277344 106.527344 237.773438 104.128906 C 238.445312 100.894531 241.222656 97.941406 246.3125 95.085938 C 252.398438 92.183594 257.929688 90.105469 262.738281 88.921875 C 272.453125 86.539062 279.863281 87.574219 284.71875 91.984375 " fill-opacity="1" fill-rule="nonzero"/></g></g></g></g></g><g clip-path="url(#3813fef9e2)"><g clip-path="url(#c66926862c)"><g clip-path="url(#f8293fa379)"><g clip-path="url(#7c19b0e7f0)"><path fill="#110f0d" d="M 285.722656 83.296875 L 285.710938 83.285156 L 285.703125 83.28125 C 282.992188 81.546875 281.539062 78.5625 281.386719 74.449219 C 281.023438 70.273438 282.117188 66.101562 284.632812 62.046875 C 287.183594 57.871094 290.277344 54.863281 293.820312 53.101562 C 297.566406 51.246094 300.871094 51.132812 303.644531 52.777344 L 303.730469 52.832031 C 306.40625 54.457031 307.949219 57.390625 308.328125 61.546875 L 308.332031 61.621094 C 308.277344 65.777344 307.09375 69.800781 304.707031 73.90625 C 303.519531 75.980469 302.105469 77.789062 300.515625 79.257812 C 299.121094 80.664062 297.496094 81.878906 295.675781 82.878906 C 291.894531 84.828125 288.546875 84.96875 285.722656 83.296875 " fill-opacity="1" fill-rule="nonzero"/></g></g></g></g><g clip-path="url(#6878e3f99f)"><g clip-path="url(#864a52e98e)"><g clip-path="url(#6d82b22e15)"><g clip-path="url(#2a4065b970)"><path fill="#110f0d" d="M 295.003906 125.960938 C 294.8125 125.855469 294.632812 125.753906 294.453125 125.648438 C 293.046875 124.8125 291.898438 123.84375 291.035156 122.75 C 290.148438 121.601562 289.636719 120.324219 289.511719 118.960938 C 289.25 116.144531 290.617188 113.546875 293.558594 111.257812 C 296.019531 109.269531 299.054688 108.054688 302.820312 107.539062 C 303.140625 107.488281 303.464844 107.460938 303.796875 107.429688 C 303.972656 107.414062 304.15625 107.398438 304.34375 107.375 C 308.394531 106.929688 312.0625 107.65625 315.242188 109.542969 L 315.332031 109.597656 C 318.613281 111.246094 320.441406 113.515625 320.78125 116.378906 C 321.035156 119.277344 319.683594 121.890625 316.757812 124.15625 C 313.800781 126.367188 310.152344 127.679688 305.90625 128.0625 C 303.46875 128.261719 301.253906 128.136719 299.320312 127.683594 C 297.71875 127.292969 296.257812 126.707031 295.003906 125.960938 " fill-opacity="1" fill-rule="nonzero"/></g></g></g></g><g clip-path="url(#77891c2b1b)"><g clip-path="url(#6e1e9ff7eb)"><g clip-path="url(#5003d662df)"><g clip-path="url(#72c60844ef)"><path fill="#110f0d" d="M 306.152344 100.765625 L 305.839844 100.71875 C 305.304688 100.640625 304.800781 100.574219 304.304688 100.453125 C 303.050781 100.164062 301.929688 99.730469 300.972656 99.164062 C 299.5 98.289062 298.378906 97.078125 297.632812 95.542969 C 296.339844 92.59375 296.796875 89.316406 298.980469 85.839844 C 300.976562 82.179688 304.199219 79.320312 308.554688 77.347656 C 310.421875 76.488281 312.296875 75.84375 314.128906 75.429688 C 316.601562 74.875 318.898438 74.734375 321.164062 74.988281 C 325.300781 75.542969 328.125 77.339844 329.535156 80.308594 C 330.855469 83.117188 330.523438 86.410156 328.554688 90.105469 L 328.535156 90.140625 L 328.511719 90.171875 C 326.195312 93.535156 322.878906 96.289062 318.652344 98.355469 C 316.398438 99.464844 314.269531 100.15625 312.1875 100.457031 C 310.207031 100.886719 308.183594 100.992188 306.152344 100.765625 " fill-opacity="1" fill-rule="nonzero"/></g></g></g></g></svg>