<svg xmlns="http://www.w3.org/2000/svg" xmlns:xlink="http://www.w3.org/1999/xlink" width="1200" zoomAndPan="magnify" viewBox="0 0 900 599.999999" height="800" preserveAspectRatio="xMidYMid meet" version="1.0"><defs><clipPath id="190d89786d"><path d="M 335 294 L 393 294 L 393 351 L 335 351 Z M 335 294 " clip-rule="nonzero"/></clipPath><clipPath id="47ad4d08a7"><path d="M 272.65625 103.621094 L 524.589844 386.429688 L 284.902344 599.949219 L 32.96875 317.140625 Z M 272.65625 103.621094 " clip-rule="nonzero"/></clipPath><clipPath id="3a0702a720"><path d="M 272.65625 103.621094 L 524.589844 386.429688 L 284.902344 599.949219 L 32.96875 317.140625 Z M 272.65625 103.621094 " clip-rule="nonzero"/></clipPath><clipPath id="a017aa4738"><path d="M 285 355 L 394 355 L 394 467 L 285 467 Z M 285 355 " clip-rule="nonzero"/></clipPath><clipPath id="58310be3cb"><path d="M 272.65625 103.621094 L 524.589844 386.429688 L 284.902344 599.949219 L 32.96875 317.140625 Z M 272.65625 103.621094 " clip-rule="nonzero"/></clipPath><clipPath id="99644b1e63"><path d="M 272.65625 103.621094 L 524.589844 386.429688 L 284.902344 599.949219 L 32.96875 317.140625 Z M 272.65625 103.621094 " clip-rule="nonzero"/></clipPath><clipPath id="2645d830c0"><path d="M 393 300 L 459 300 L 459 364 L 393 364 Z M 393 300 " clip-rule="nonzero"/></clipPath><clipPath id="2d62b53e17"><path d="M 272.65625 103.621094 L 524.589844 386.429688 L 284.902344 599.949219 L 32.96875 317.140625 Z M 272.65625 103.621094 " clip-rule="nonzero"/></clipPath><clipPath id="33b37d0c37"><path d="M 272.65625 103.621094 L 524.589844 386.429688 L 284.902344 599.949219 L 32.96875 317.140625 Z M 272.65625 103.621094 " clip-rule="nonzero"/></clipPath><clipPath id="242d4cf964"><path d="M 384 417 L 451 417 L 451 463 L 384 463 Z M 384 417 " clip-rule="nonzero"/></clipPath><clipPath id="ef8b0db48e"><path d="M 272.65625 103.621094 L 524.589844 386.429688 L 284.902344 599.949219 L 32.96875 317.140625 Z M 272.65625 103.621094 " clip-rule="nonzero"/></clipPath><clipPath id="f07e42ad18"><path d="M 272.65625 103.621094 L 524.589844 386.429688 L 284.902344 599.949219 L 32.96875 317.140625 Z M 272.65625 103.621094 " clip-rule="nonzero"/></clipPath><clipPath id="275bcd558d"><path d="M 415 358 L 490 358 L 490 410 L 415 410 Z M 415 358 " clip-rule="nonzero"/></clipPath><clipPath id="04508821a5"><path d="M 272.65625 103.621094 L 524.589844 386.429688 L 284.902344 599.949219 L 32.96875 317.140625 Z M 272.65625 103.621094 " clip-rule="nonzero"/></clipPath><clipPath id="5bc2183dde"><path d="M 272.65625 103.621094 L 524.589844 386.429688 L 284.902344 599.949219 L 32.96875 317.140625 Z M 272.65625 103.621094 " clip-rule="nonzero"/></clipPath><clipPath id="3d2b5ad61b"><path d="M 89 249 L 135 249 L 135 316 L 89 316 Z M 89 249 " clip-rule="nonzero"/></clipPath><clipPath id="1bc2af4bf5"><path d="M 272.65625 103.621094 L 524.589844 386.429688 L 284.902344 599.949219 L 32.96875 317.140625 Z M 272.65625 103.621094 " clip-rule="nonzero"/></clipPath><clipPath id="921038254b"><path d="M 272.65625 103.621094 L 524.589844 386.429688 L 284.902344 599.949219 L 32.96875 317.140625 Z M 272.65625 103.621094 " clip-rule="nonzero"/></clipPath><clipPath id="d9c2895ed4"><path d="M 80 306 L 191 306 L 191 418 L 80 418 Z M 80 306 " clip-rule="nonzero"/></clipPath><clipPath id="060fc8a7b4"><path d="M 272.65625 103.621094 L 524.589844 386.429688 L 284.902344 599.949219 L 32.96875 317.140625 Z M 272.65625 103.621094 " clip-rule="nonzero"/></clipPath><clipPath id="80878d111a"><path d="M 272.65625 103.621094 L 524.589844 386.429688 L 284.902344 599.949219 L 32.96875 317.140625 Z M 272.65625 103.621094 " clip-rule="nonzero"/></clipPath><clipPath id="4a3f4fd561"><path d="M 142 215 L 193 215 L 193 291 L 142 291 Z M 142 215 " clip-rule="nonzero"/></clipPath><clipPath id="2b160d2ef2"><path d="M 272.65625 103.621094 L 524.589844 386.429688 L 284.902344 599.949219 L 32.96875 317.140625 Z M 272.65625 103.621094 " clip-rule="nonzero"/></clipPath><clipPath id="143f2ee378"><path d="M 272.65625 103.621094 L 524.589844 386.429688 L 284.902344 599.949219 L 32.96875 317.140625 Z M 272.65625 103.621094 " clip-rule="nonzero"/></clipPath><clipPath id="159cfe9154"><path d="M 193 320 L 258 320 L 258 369 L 193 369 Z M 193 320 " clip-rule="nonzero"/></clipPath><clipPath id="ca25063c77"><path d="M 272.65625 103.621094 L 524.589844 386.429688 L 284.902344 599.949219 L 32.96875 317.140625 Z M 272.65625 103.621094 " clip-rule="nonzero"/></clipPath><clipPath id="81d0f0a956"><path d="M 272.65625 103.621094 L 524.589844 386.429688 L 284.902344 599.949219 L 32.96875 317.140625 Z M 272.65625 103.621094 " clip-rule="nonzero"/></clipPath><clipPath id="ccc2e8c984"><path d="M 188 246 L 253 246 L 253 311 L 188 311 Z M 188 246 " clip-rule="nonzero"/></clipPath><clipPath id="386bdfbfdf"><path d="M 272.65625 103.621094 L 524.589844 386.429688 L 284.902344 599.949219 L 32.96875 317.140625 Z M 272.65625 103.621094 " clip-rule="nonzero"/></clipPath><clipPath id="79f11ad2ed"><path d="M 272.65625 103.621094 L 524.589844 386.429688 L 284.902344 599.949219 L 32.96875 317.140625 Z M 272.65625 103.621094 " clip-rule="nonzero"/></clipPath><clipPath id="555706d105"><path d="M 680 206 L 745 206 L 745 256 L 680 256 Z M 680 206 " clip-rule="nonzero"/></clipPath><clipPath id="089183ceae"><path d="M 703.429688 -5.941406 L 840.066406 347.304688 L 540.683594 463.109375 L 404.046875 109.863281 Z M 703.429688 -5.941406 " clip-rule="nonzero"/></clipPath><clipPath id="428a5018bf"><path d="M 703.429688 -5.941406 L 840.066406 347.304688 L 540.683594 463.109375 L 404.046875 109.863281 Z M 703.429688 -5.941406 " clip-rule="nonzero"/></clipPath><clipPath id="43a80f6693"><path d="M 703.429688 -5.941406 L 840.066406 347.304688 L 540.683594 463.109375 L 404.046875 109.863281 Z M 703.429688 -5.941406 " clip-rule="nonzero"/></clipPath><clipPath id="3477797a85"><path d="M 617 245 L 720 245 L 720 359 L 617 359 Z M 617 245 " clip-rule="nonzero"/></clipPath><clipPath id="cca3f9901e"><path d="M 703.429688 -5.941406 L 840.066406 347.304688 L 540.683594 463.109375 L 404.046875 109.863281 Z M 703.429688 -5.941406 " clip-rule="nonzero"/></clipPath><clipPath id="1884f8f99a"><path d="M 703.429688 -5.941406 L 840.066406 347.304688 L 540.683594 463.109375 L 404.046875 109.863281 Z M 703.429688 -5.941406 " clip-rule="nonzero"/></clipPath><clipPath id="f3c02614f6"><path d="M 703.429688 -5.941406 L 840.066406 347.304688 L 540.683594 463.109375 L 404.046875 109.863281 Z M 703.429688 -5.941406 " clip-rule="nonzero"/></clipPath><clipPath id="98d650487a"><path d="M 730 234 L 803 234 L 803 289 L 730 289 Z M 730 234 " clip-rule="nonzero"/></clipPath><clipPath id="eb4b15f971"><path d="M 703.429688 -5.941406 L 840.066406 347.304688 L 540.683594 463.109375 L 404.046875 109.863281 Z M 703.429688 -5.941406 " clip-rule="nonzero"/></clipPath><clipPath id="0859bd86e1"><path d="M 703.429688 -5.941406 L 840.066406 347.304688 L 540.683594 463.109375 L 404.046875 109.863281 Z M 703.429688 -5.941406 " clip-rule="nonzero"/></clipPath><clipPath id="45e5163d3a"><path d="M 703.429688 -5.941406 L 840.066406 347.304688 L 540.683594 463.109375 L 404.046875 109.863281 Z M 703.429688 -5.941406 " clip-rule="nonzero"/></clipPath><clipPath id="51f572f0ec"><path d="M 690 334 L 752 334 L 752 386 L 690 386 Z M 690 334 " clip-rule="nonzero"/></clipPath><clipPath id="8582ae43a4"><path d="M 703.429688 -5.941406 L 840.066406 347.304688 L 540.683594 463.109375 L 404.046875 109.863281 Z M 703.429688 -5.941406 " clip-rule="nonzero"/></clipPath><clipPath id="a4595b693e"><path d="M 703.429688 -5.941406 L 840.066406 347.304688 L 540.683594 463.109375 L 404.046875 109.863281 Z M 703.429688 -5.941406 " clip-rule="nonzero"/></clipPath><clipPath id="9674ef0640"><path d="M 703.429688 -5.941406 L 840.066406 347.304688 L 540.683594 463.109375 L 404.046875 109.863281 Z M 703.429688 -5.941406 " clip-rule="nonzero"/></clipPath><clipPath id="9d35f70889"><path d="M 736 294 L 811 294 L 811 346 L 736 346 Z M 736 294 " clip-rule="nonzero"/></clipPath><clipPath id="ee868961b0"><path d="M 703.429688 -5.941406 L 840.066406 347.304688 L 540.683594 463.109375 L 404.046875 109.863281 Z M 703.429688 -5.941406 " clip-rule="nonzero"/></clipPath><clipPath id="4815ece811"><path d="M 703.429688 -5.941406 L 840.066406 347.304688 L 540.683594 463.109375 L 404.046875 109.863281 Z M 703.429688 -5.941406 " clip-rule="nonzero"/></clipPath><clipPath id="b767635aa7"><path d="M 703.429688 -5.941406 L 840.066406 347.304688 L 540.683594 463.109375 L 404.046875 109.863281 Z M 703.429688 -5.941406 " clip-rule="nonzero"/></clipPath><clipPath id="fcea30481f"><path d="M 465 74 L 517 74 L 517 136 L 465 136 Z M 465 74 " clip-rule="nonzero"/></clipPath><clipPath id="3a62fbd800"><path d="M 703.429688 -5.941406 L 840.066406 347.304688 L 540.683594 463.109375 L 404.046875 109.863281 Z M 703.429688 -5.941406 " clip-rule="nonzero"/></clipPath><clipPath id="e1e9139eed"><path d="M 703.429688 -5.941406 L 840.066406 347.304688 L 540.683594 463.109375 L 404.046875 109.863281 Z M 703.429688 -5.941406 " clip-rule="nonzero"/></clipPath><clipPath id="46830d1da1"><path d="M 703.429688 -5.941406 L 840.066406 347.304688 L 540.683594 463.109375 L 404.046875 109.863281 Z M 703.429688 -5.941406 " clip-rule="nonzero"/></clipPath><clipPath id="9d5caed65f"><path d="M 508.972656 69.449219 L 528.351562 119.554688 L 472.789062 141.046875 L 453.410156 90.941406 Z M 508.972656 69.449219 " clip-rule="nonzero"/></clipPath><clipPath id="5e5ee60a86"><path d="M 431 139 L 541 139 L 541 253 L 431 253 Z M 431 139 " clip-rule="nonzero"/></clipPath><clipPath id="f4dc8f534e"><path d="M 703.429688 -5.941406 L 840.066406 347.304688 L 540.683594 463.109375 L 404.046875 109.863281 Z M 703.429688 -5.941406 " clip-rule="nonzero"/></clipPath><clipPath id="3477247d30"><path d="M 703.429688 -5.941406 L 840.066406 347.304688 L 540.683594 463.109375 L 404.046875 109.863281 Z M 703.429688 -5.941406 " clip-rule="nonzero"/></clipPath><clipPath id="edb3bc6ec6"><path d="M 703.429688 -5.941406 L 840.066406 347.304688 L 540.683594 463.109375 L 404.046875 109.863281 Z M 703.429688 -5.941406 " clip-rule="nonzero"/></clipPath><clipPath id="6a197c6eb9"><path d="M 524.589844 124.902344 L 564.734375 228.6875 L 464.941406 267.289062 L 424.796875 163.503906 Z M 524.589844 124.902344 " clip-rule="nonzero"/></clipPath><clipPath id="4781838c81"><path d="M 524 62 L 582 62 L 582 133 L 524 133 Z M 524 62 " clip-rule="nonzero"/></clipPath><clipPath id="47f03eda8a"><path d="M 703.429688 -5.941406 L 840.066406 347.304688 L 540.683594 463.109375 L 404.046875 109.863281 Z M 703.429688 -5.941406 " clip-rule="nonzero"/></clipPath><clipPath id="1c7309c628"><path d="M 703.429688 -5.941406 L 840.066406 347.304688 L 540.683594 463.109375 L 404.046875 109.863281 Z M 703.429688 -5.941406 " clip-rule="nonzero"/></clipPath><clipPath id="9045e58114"><path d="M 703.429688 -5.941406 L 840.066406 347.304688 L 540.683594 463.109375 L 404.046875 109.863281 Z M 703.429688 -5.941406 " clip-rule="nonzero"/></clipPath><clipPath id="14a7ade227"><path d="M 541 180 L 609 180 L 609 226 L 541 226 Z M 541 180 " clip-rule="nonzero"/></clipPath><clipPath id="129edf3ba6"><path d="M 703.429688 -5.941406 L 840.066406 347.304688 L 540.683594 463.109375 L 404.046875 109.863281 Z M 703.429688 -5.941406 " clip-rule="nonzero"/></clipPath><clipPath id="3951d31890"><path d="M 703.429688 -5.941406 L 840.066406 347.304688 L 540.683594 463.109375 L 404.046875 109.863281 Z M 703.429688 -5.941406 " clip-rule="nonzero"/></clipPath><clipPath id="af7e075578"><path d="M 703.429688 -5.941406 L 840.066406 347.304688 L 540.683594 463.109375 L 404.046875 109.863281 Z M 703.429688 -5.941406 " clip-rule="nonzero"/></clipPath><clipPath id="456175c25a"><path d="M 557 111 L 629 111 L 629 168 L 557 168 Z M 557 111 " clip-rule="nonzero"/></clipPath><clipPath id="9d82f595d0"><path d="M 703.429688 -5.941406 L 840.066406 347.304688 L 540.683594 463.109375 L 404.046875 109.863281 Z M 703.429688 -5.941406 " clip-rule="nonzero"/></clipPath><clipPath id="1e2b635994"><path d="M 703.429688 -5.941406 L 840.066406 347.304688 L 540.683594 463.109375 L 404.046875 109.863281 Z M 703.429688 -5.941406 " clip-rule="nonzero"/></clipPath><clipPath id="4c69b85b1a"><path d="M 703.429688 -5.941406 L 840.066406 347.304688 L 540.683594 463.109375 L 404.046875 109.863281 Z M 703.429688 -5.941406 " clip-rule="nonzero"/></clipPath></defs><rect x="-90" width="1080" fill="#ffffff" y="-60" height="719.999999" fill-opacity="1"/><rect x="-90" width="1080" fill="#c7ddcc" y="-60" height="719.999999" fill-opacity="1"/><g clip-path="url(#190d89786d)"><g clip-path="url(#47ad4d08a7)"><g clip-path="url(#3a0702a720)"><path fill="#16123f" d="M 370.054688 295.285156 C 377.757812 293.765625 383.855469 295.152344 388.214844 299.449219 C 392.492188 304.019531 393.691406 310.152344 391.769531 317.707031 C 389.695312 325.371094 385.328125 332.410156 378.792969 338.640625 C 372.097656 345.019531 365.015625 348.710938 357.820312 349.605469 C 353.800781 350.335938 350.253906 350.304688 346.957031 349.507812 C 343.992188 348.792969 341.460938 347.328125 339.445312 345.179688 L 339.296875 345.023438 C 335.199219 340.652344 334.082031 334.574219 335.96875 326.988281 C 337.613281 319.484375 341.933594 312.460938 348.777344 306.148438 C 355.039062 299.972656 362.226562 296.308594 370.054688 295.285156 " fill-opacity="1" fill-rule="nonzero"/></g></g></g><g clip-path="url(#a017aa4738)"><g clip-path="url(#58310be3cb)"><g clip-path="url(#99644b1e63)"><path fill="#16123f" d="M 347.800781 355.785156 C 369.105469 356.691406 383.664062 363.234375 390.96875 375.136719 L 391.078125 375.351562 C 391.796875 377.113281 392.398438 378.949219 392.847656 380.808594 C 395.984375 393.746094 392.402344 409.105469 382.195312 426.449219 C 378.628906 432.429688 374.40625 438.609375 369.605469 444.875 C 361.5 454.398438 353.835938 460.976562 346.71875 464.492188 C 337.417969 468.320312 329.898438 467.273438 324.375 461.382812 C 319.289062 455.964844 315.941406 446.230469 314.398438 432.386719 C 314.011719 425.417969 311.636719 419.554688 307.3125 414.953125 C 306.769531 414.371094 306.199219 413.808594 305.546875 413.21875 C 304.214844 411.910156 302.933594 410.597656 301.734375 409.324219 C 294.660156 401.773438 289.90625 394.738281 287.605469 388.4375 C 285.183594 382.128906 285.195312 376.585938 287.640625 371.988281 C 290.9375 365.78125 298.386719 361.398438 310.507812 358.597656 C 324.703125 356.28125 337.246094 355.335938 347.800781 355.785156 " fill-opacity="1" fill-rule="nonzero"/></g></g></g><g clip-path="url(#2645d830c0)"><g clip-path="url(#2d62b53e17)"><g clip-path="url(#33b37d0c37)"><path fill="#16123f" d="M 418.824219 363.046875 C 409.925781 364.789062 402.984375 363.078125 398.199219 357.976562 L 398.164062 357.933594 C 393.652344 352.769531 392.460938 345.808594 394.601562 337.3125 C 396.34375 328.5625 401.0625 320.6875 408.632812 313.898438 C 416.335938 306.882812 424.460938 302.574219 432.765625 301.085938 C 441.542969 299.519531 448.375 301.261719 453.066406 306.28125 L 453.214844 306.4375 C 457.714844 311.355469 459.136719 318.269531 457.433594 326.988281 L 457.394531 327.144531 C 454.8125 335.609375 449.984375 343.125 442.65625 350.09375 C 438.996094 353.632812 435.019531 356.480469 430.890625 358.535156 C 427.199219 360.574219 423.148438 362.089844 418.824219 363.046875 " fill-opacity="1" fill-rule="nonzero"/></g></g></g><g clip-path="url(#242d4cf964)"><g clip-path="url(#ef8b0db48e)"><g clip-path="url(#f07e42ad18)"><path fill="#16123f" d="M 397.585938 419.800781 C 403.808594 417.199219 410.742188 416.519531 418.761719 417.71875 C 419.441406 417.804688 420.125 417.9375 420.816406 418.070312 C 421.195312 418.152344 421.578125 418.222656 421.976562 418.292969 C 430.535156 419.789062 437.609375 423.46875 442.996094 429.210938 L 443.144531 429.378906 C 448.882812 434.703125 451.265625 440.425781 450.265625 446.480469 C 449.050781 452.5625 444.722656 457.101562 437.386719 459.984375 C 430.023438 462.730469 421.769531 463.25 412.847656 461.503906 C 407.738281 460.460938 403.28125 458.886719 399.589844 456.808594 C 396.550781 455.042969 393.910156 452.980469 391.789062 450.714844 C 391.777344 450.714844 391.773438 450.710938 391.773438 450.710938 C 391.457031 450.390625 391.140625 450.066406 390.839844 449.753906 C 388.460938 447.203125 386.691406 444.53125 385.570312 441.78125 C 384.445312 438.90625 384.15625 435.996094 384.707031 433.132812 C 385.863281 427.21875 390.199219 422.734375 397.585938 419.800781 " fill-opacity="1" fill-rule="nonzero"/></g></g></g><g clip-path="url(#275bcd558d)"><g clip-path="url(#04508821a5)"><g clip-path="url(#5bc2183dde)"><path fill="#16123f" d="M 456.636719 408.378906 C 451.359375 409.300781 446.59375 409.441406 442.160156 408.820312 C 437.847656 408.523438 433.640625 407.527344 429.613281 405.851562 L 429 405.574219 C 427.953125 405.105469 426.964844 404.65625 426.019531 404.121094 C 423.625 402.777344 421.59375 401.222656 419.976562 399.496094 C 417.46875 396.824219 415.894531 393.683594 415.289062 390.101562 C 414.390625 383.300781 417.289062 376.886719 423.820312 371.074219 C 430.09375 364.785156 438.394531 360.859375 448.480469 359.417969 C 452.8125 358.78125 457.039062 358.578125 461.039062 358.820312 C 466.429688 359.15625 471.214844 360.234375 475.699219 362.109375 C 483.832031 365.710938 488.539062 371.070312 489.675781 377.976562 C 490.691406 384.5 488.054688 391.039062 481.816406 397.417969 L 481.761719 397.472656 L 481.695312 397.523438 C 474.949219 403.019531 466.519531 406.671875 456.636719 408.378906 " fill-opacity="1" fill-rule="nonzero"/></g></g></g><g clip-path="url(#3d2b5ad61b)"><g clip-path="url(#1bc2af4bf5)"><g clip-path="url(#921038254b)"><path fill="#16123f" d="M 118.109375 249.425781 C 124.261719 250.523438 128.898438 254.726562 131.882812 261.925781 C 134.8125 269.304688 135.535156 277.558594 134.035156 286.472656 C 132.492188 295.585938 129.03125 302.785156 123.808594 307.820312 C 121.03125 310.804688 118.167969 312.910156 115.058594 314.238281 C 112.261719 315.449219 109.355469 315.792969 106.453125 315.273438 L 106.242188 315.238281 C 100.347656 314.1875 95.808594 309.988281 92.773438 302.777344 C 89.59375 295.78125 88.851562 287.5625 90.546875 278.40625 C 91.863281 269.707031 95.425781 262.46875 101.074219 256.96875 C 106.332031 251.128906 112.042969 248.589844 118.109375 249.425781 " fill-opacity="1" fill-rule="nonzero"/></g></g></g><g clip-path="url(#d9c2895ed4)"><g clip-path="url(#060fc8a7b4)"><g clip-path="url(#80878d111a)"><path fill="#16123f" d="M 165.632812 308.417969 L 165.84375 308.53125 C 167.476562 309.503906 169.058594 310.621094 170.53125 311.84375 C 180.789062 320.332031 187.121094 334.78125 189.335938 354.792969 C 190.058594 361.71875 190.386719 369.191406 190.292969 377.089844 C 189.503906 389.570312 187.3125 399.441406 183.71875 406.511719 C 178.566406 415.152344 171.921875 418.828125 163.972656 417.410156 C 156.660156 416.109375 148.148438 410.324219 138.625 400.152344 C 134.148438 394.804688 128.722656 391.527344 122.515625 390.421875 C 121.730469 390.285156 120.929688 390.179688 120.058594 390.09375 C 118.207031 389.84375 116.394531 389.5625 114.675781 389.253906 C 104.496094 387.445312 96.472656 384.652344 90.863281 380.984375 C 85.148438 377.371094 81.839844 372.9375 81.035156 367.785156 C 79.960938 360.828125 83.296875 352.859375 91.324219 343.355469 C 101.296875 333.003906 110.777344 324.730469 119.488281 318.765625 C 137.089844 306.738281 152.65625 303.257812 165.632812 308.417969 " fill-opacity="1" fill-rule="nonzero"/></g></g></g><g clip-path="url(#4a3f4fd561)"><g clip-path="url(#2b160d2ef2)"><g clip-path="url(#143f2ee378)"><path fill="#16123f" d="M 161.148438 290.339844 L 161.113281 290.328125 L 161.09375 290.320312 C 154.390625 288.894531 149.261719 284.03125 145.890625 275.941406 C 142.042969 267.882812 141.109375 258.746094 143.101562 248.773438 C 145.070312 238.535156 148.992188 230.21875 154.75 224.050781 C 160.835938 217.542969 167.347656 214.847656 174.105469 216.050781 L 174.320312 216.09375 C 180.871094 217.332031 186.144531 222.03125 190.003906 230.039062 L 190.066406 230.183594 C 193.066406 238.515625 193.703125 247.425781 192.011719 257.398438 C 191.195312 262.425781 189.71875 267.089844 187.648438 271.210938 C 185.914062 275.058594 183.578125 278.695312 180.695312 282.054688 C 174.609375 288.777344 168.035156 291.5625 161.148438 290.339844 " fill-opacity="1" fill-rule="nonzero"/></g></g></g><g clip-path="url(#159cfe9154)"><g clip-path="url(#ca25063c77)"><g clip-path="url(#81d0f0a956)"><path fill="#16123f" d="M 211.542969 368.488281 C 211.535156 368.488281 211.535156 368.488281 211.535156 368.488281 C 211.082031 368.425781 210.644531 368.351562 210.207031 368.28125 C 206.777344 367.664062 203.761719 366.589844 201.222656 365.054688 C 198.59375 363.425781 196.625 361.265625 195.347656 358.636719 C 192.726562 353.214844 193.511719 347.015625 197.671875 340.246094 C 201.097656 334.433594 206.242188 329.738281 213.375 325.890625 C 213.976562 325.554688 214.597656 325.253906 215.238281 324.949219 C 215.585938 324.78125 215.933594 324.613281 216.296875 324.429688 C 224.042969 320.503906 231.902344 319.210938 239.65625 320.59375 L 239.878906 320.632812 C 247.652344 321.464844 252.996094 324.625 255.816406 330.078125 C 258.488281 335.671875 257.742188 341.898438 253.59375 348.601562 C 249.351562 355.222656 243.046875 360.574219 234.867188 364.523438 C 230.148438 366.742188 225.636719 368.152344 221.4375 368.695312 C 217.949219 369.109375 214.601562 369.039062 211.542969 368.488281 " fill-opacity="1" fill-rule="nonzero"/></g></g></g><g clip-path="url(#ccc2e8c984)"><g clip-path="url(#386bdfbfdf)"><g clip-path="url(#79f11ad2ed)"><path fill="#16123f" d="M 214.964844 309.890625 L 214.300781 310.03125 C 213.179688 310.277344 212.125 310.515625 211.042969 310.652344 C 208.328125 311.011719 205.765625 310.984375 203.433594 310.570312 C 199.835938 309.933594 196.695312 308.355469 194.058594 305.847656 C 189.273438 300.933594 187.742188 294.054688 189.5 285.492188 C 190.75 276.691406 195.042969 268.578125 202.253906 261.382812 C 205.339844 258.273438 208.605469 255.582031 211.949219 253.382812 C 216.464844 250.425781 220.941406 248.425781 225.65625 247.234375 C 234.324219 245.253906 241.304688 246.722656 246.339844 251.582031 C 251.066406 256.203125 252.867188 263.015625 251.695312 271.859375 L 251.683594 271.941406 L 251.65625 272.019531 C 249.554688 280.464844 244.992188 288.4375 238.101562 295.730469 C 234.433594 299.628906 230.699219 302.59375 226.777344 304.753906 C 223.148438 307.097656 219.183594 308.816406 214.964844 309.890625 " fill-opacity="1" fill-rule="nonzero"/></g></g></g><g clip-path="url(#555706d105)"><g clip-path="url(#089183ceae)"><g clip-path="url(#428a5018bf)"><g clip-path="url(#43a80f6693)"><path fill="#110f0d" d="M 727.441406 207.800781 C 735.183594 209.085938 740.402344 212.53125 742.976562 218.085938 C 745.378906 223.867188 744.355469 230.035156 739.910156 236.433594 C 735.285156 242.882812 728.730469 247.941406 720.429688 251.476562 C 711.933594 255.097656 704.011719 256.0625 696.964844 254.371094 C 692.949219 253.640625 689.636719 252.367188 686.832031 250.460938 C 684.304688 248.75 682.453125 246.488281 681.316406 243.765625 L 681.234375 243.570312 C 678.925781 238.035156 680.015625 231.949219 684.4375 225.507812 C 688.601562 219.058594 695.105469 214 703.722656 210.492188 C 711.746094 206.910156 719.753906 206.007812 727.441406 207.800781 " fill-opacity="1" fill-rule="nonzero"/></g></g></g></g><g clip-path="url(#3477797a85)"><g clip-path="url(#cca3f9901e)"><g clip-path="url(#1884f8f99a)"><g clip-path="url(#f3c02614f6)"><path fill="#110f0d" d="M 685.421875 256.636719 C 705.042969 264.976562 716.375 276.222656 719.042969 289.9375 L 719.070312 290.175781 C 719.125 292.078125 719.042969 294.007812 718.8125 295.910156 C 717.214844 309.128906 708.484375 322.253906 692.855469 334.90625 C 687.425781 339.253906 681.308594 343.554688 674.621094 347.738281 C 663.699219 353.804688 654.21875 357.273438 646.332031 358.0625 C 636.28125 358.378906 629.613281 354.753906 626.507812 347.292969 C 623.648438 340.433594 623.921875 330.140625 627.332031 316.632812 C 629.410156 309.972656 629.238281 303.644531 626.804688 297.8125 C 626.5 297.078125 626.164062 296.347656 625.757812 295.566406 C 624.972656 293.875 624.230469 292.195312 623.558594 290.582031 C 619.578125 281.019531 617.59375 272.761719 617.652344 266.054688 C 617.59375 259.292969 619.542969 254.109375 623.445312 250.660156 C 628.707031 246.007812 637.207031 244.519531 649.535156 246.160156 C 663.632812 248.980469 675.703125 252.503906 685.421875 256.636719 " fill-opacity="1" fill-rule="nonzero"/></g></g></g></g><g clip-path="url(#98d650487a)"><g clip-path="url(#eb4b15f971)"><g clip-path="url(#0859bd86e1)"><g clip-path="url(#45e5163d3a)"><path fill="#110f0d" d="M 749.34375 288.40625 C 740.40625 286.910156 734.511719 282.867188 731.820312 276.40625 L 731.800781 276.355469 C 729.386719 269.933594 730.710938 262.996094 735.691406 255.792969 C 740.386719 248.207031 747.5625 242.492188 757.023438 238.792969 C 766.691406 234.933594 775.804688 233.753906 784.097656 235.28125 C 792.859375 236.898438 798.644531 240.933594 801.277344 247.285156 L 801.363281 247.480469 C 803.851562 253.671875 802.757812 260.644531 798.109375 268.214844 L 798.019531 268.34375 C 792.636719 275.363281 785.488281 280.707031 776.1875 284.65625 C 771.519531 286.683594 766.800781 287.953125 762.21875 288.425781 C 758.050781 289.039062 753.726562 289.03125 749.34375 288.40625 " fill-opacity="1" fill-rule="nonzero"/></g></g></g></g><g clip-path="url(#51f572f0ec)"><g clip-path="url(#8582ae43a4)"><g clip-path="url(#a4595b693e)"><g clip-path="url(#9674ef0640)"><path fill="#110f0d" d="M 709.589844 334.089844 C 716.324219 333.84375 723.050781 335.644531 730.136719 339.585938 C 730.742188 339.90625 731.335938 340.269531 731.933594 340.636719 C 732.265625 340.847656 732.597656 341.050781 732.945312 341.253906 C 740.429688 345.664062 745.761719 351.597656 748.789062 358.871094 L 748.871094 359.082031 C 752.375 366.082031 752.601562 372.28125 749.546875 377.597656 C 746.277344 382.867188 740.636719 385.597656 732.761719 385.714844 C 724.90625 385.703125 717.003906 383.285156 709.265625 378.511719 C 704.847656 375.738281 701.226562 372.695312 698.503906 369.453125 C 696.273438 366.734375 694.527344 363.871094 693.332031 361.007812 C 693.324219 361.003906 693.324219 360.996094 693.324219 360.996094 C 693.140625 360.585938 692.953125 360.171875 692.785156 359.769531 C 691.449219 356.546875 690.730469 353.421875 690.644531 350.449219 C 690.601562 347.363281 691.347656 344.539062 692.867188 342.050781 C 696.019531 336.917969 701.652344 334.242188 709.589844 334.089844 " fill-opacity="1" fill-rule="nonzero"/></g></g></g></g><g clip-path="url(#9d35f70889)"><g clip-path="url(#ee868961b0)"><g clip-path="url(#4815ece811)"><g clip-path="url(#b767635aa7)"><path fill="#110f0d" d="M 768.855469 344.15625 C 763.59375 343.164062 759.082031 341.617188 755.148438 339.480469 C 751.21875 337.683594 747.632812 335.273438 744.449219 332.289062 L 743.972656 331.8125 C 743.15625 331.003906 742.390625 330.238281 741.691406 329.40625 C 739.921875 327.304688 738.566406 325.132812 737.65625 322.949219 C 736.246094 319.566406 735.871094 316.070312 736.5625 312.503906 C 738.101562 305.816406 743.0625 300.828125 751.210938 297.683594 C 759.285156 293.996094 768.429688 293.242188 778.375 295.4375 C 782.652344 296.363281 786.675781 297.65625 790.332031 299.289062 C 795.261719 301.5 799.359375 304.191406 802.902344 307.527344 C 809.25 313.757812 811.78125 320.429688 810.421875 327.296875 C 809.089844 333.765625 804.332031 338.960938 796.257812 342.742188 L 796.1875 342.773438 L 796.109375 342.796875 C 787.871094 345.578125 778.703125 346.03125 768.855469 344.15625 " fill-opacity="1" fill-rule="nonzero"/></g></g></g></g><g clip-path="url(#fcea30481f)"><g clip-path="url(#3a62fbd800)"><g clip-path="url(#e1e9139eed)"><g clip-path="url(#46830d1da1)"><g clip-path="url(#9d5caed65f)"><path fill="#110f0d" d="M 507.71875 76.273438 C 513.09375 79.464844 515.957031 85.03125 516.230469 92.824219 C 516.386719 100.765625 514.171875 108.75 509.644531 116.566406 C 505.011719 124.5625 499.246094 130.085938 492.597656 132.964844 C 488.953125 134.785156 485.535156 135.75 482.15625 135.902344 C 479.117188 136.050781 476.277344 135.351562 473.742188 133.847656 L 473.558594 133.738281 C 468.410156 130.683594 465.632812 125.152344 465.320312 117.332031 C 464.792969 109.660156 466.976562 101.703125 471.773438 93.726562 C 476.050781 86.042969 481.921875 80.515625 489.132812 77.347656 C 496.097656 73.730469 502.332031 73.359375 507.71875 76.273438 " fill-opacity="1" fill-rule="nonzero"/></g></g></g></g></g><g clip-path="url(#5e5ee60a86)"><g clip-path="url(#f4dc8f534e)"><g clip-path="url(#3477247d30)"><g clip-path="url(#edb3bc6ec6)"><g clip-path="url(#6a197c6eb9)"><path fill="#110f0d" d="M 531.53125 148.230469 L 531.6875 148.410156 C 532.875 149.898438 533.964844 151.496094 534.914062 153.164062 C 541.539062 164.71875 542.40625 180.472656 537.46875 199.996094 C 535.71875 206.734375 533.40625 213.851562 530.550781 221.214844 C 525.441406 232.625 519.933594 241.097656 514.09375 246.457031 C 506.246094 252.738281 498.738281 253.84375 491.796875 249.71875 C 485.40625 245.933594 479.46875 237.519531 474.121094 224.644531 C 471.804688 218.066406 467.875 213.089844 462.449219 209.871094 C 461.765625 209.464844 461.050781 209.085938 460.269531 208.699219 C 458.621094 207.8125 457.027344 206.914062 455.523438 206.023438 C 446.632812 200.746094 440.101562 195.3125 436.132812 189.902344 C 432.050781 184.511719 430.511719 179.199219 431.5625 174.085938 C 432.992188 167.195312 438.90625 160.90625 449.746094 154.824219 C 462.707031 148.640625 474.476562 144.21875 484.71875 141.699219 C 505.40625 136.621094 521.191406 138.835938 531.53125 148.230469 " fill-opacity="1" fill-rule="nonzero"/></g></g></g></g></g><g clip-path="url(#4781838c81)"><g clip-path="url(#47f03eda8a)"><g clip-path="url(#1c7309c628)"><g clip-path="url(#9045e58114)"><path fill="#110f0d" d="M 533.664062 129.722656 L 533.636719 129.699219 L 533.621094 129.6875 C 527.847656 125.992188 524.75 119.636719 524.429688 110.875 C 523.652344 101.976562 525.976562 93.089844 531.335938 84.449219 C 536.765625 75.554688 543.347656 69.144531 550.898438 65.390625 C 558.871094 61.4375 565.910156 61.203125 571.816406 64.707031 L 572 64.820312 C 577.695312 68.285156 580.988281 74.539062 581.792969 83.394531 L 581.800781 83.550781 C 581.691406 92.410156 579.167969 100.976562 574.089844 109.726562 C 571.5625 114.144531 568.546875 117.996094 565.167969 121.125 C 562.195312 124.117188 558.738281 126.703125 554.859375 128.835938 C 546.8125 132.992188 539.679688 133.289062 533.664062 129.722656 " fill-opacity="1" fill-rule="nonzero"/></g></g></g></g><g clip-path="url(#14a7ade227)"><g clip-path="url(#129edf3ba6)"><g clip-path="url(#3951d31890)"><g clip-path="url(#af7e075578)"><path fill="#110f0d" d="M 553.453125 220.628906 C 553.445312 220.628906 553.445312 220.628906 553.445312 220.628906 C 553.042969 220.40625 552.660156 220.1875 552.273438 219.964844 C 549.28125 218.183594 546.835938 216.113281 545 213.785156 C 543.109375 211.335938 542.019531 208.621094 541.746094 205.710938 C 541.195312 199.707031 544.101562 194.179688 550.363281 189.304688 C 555.605469 185.0625 562.066406 182.476562 570.089844 181.378906 C 570.769531 181.277344 571.457031 181.214844 572.164062 181.152344 C 572.546875 181.117188 572.933594 181.082031 573.335938 181.035156 C 581.960938 180.082031 589.765625 181.632812 596.539062 185.65625 L 596.738281 185.773438 C 603.71875 189.285156 607.613281 194.125 608.34375 200.222656 C 608.882812 206.402344 606.003906 211.96875 599.773438 216.789062 C 593.480469 221.5 585.710938 224.292969 576.667969 225.113281 C 571.476562 225.535156 566.761719 225.269531 562.640625 224.300781 C 559.230469 223.464844 556.125 222.21875 553.453125 220.628906 " fill-opacity="1" fill-rule="nonzero"/></g></g></g></g><g clip-path="url(#456175c25a)"><g clip-path="url(#9d82f595d0)"><g clip-path="url(#1e2b635994)"><g clip-path="url(#4c69b85b1a)"><path fill="#110f0d" d="M 577.179688 166.953125 L 576.511719 166.851562 C 575.375 166.6875 574.304688 166.539062 573.246094 166.289062 C 570.578125 165.667969 568.191406 164.742188 566.152344 163.535156 C 563.007812 161.671875 560.621094 159.089844 559.03125 155.816406 C 556.277344 149.53125 557.253906 142.550781 561.898438 135.152344 C 566.148438 127.347656 573.011719 121.257812 582.28125 117.054688 C 586.257812 115.230469 590.253906 113.855469 594.15625 112.972656 C 599.417969 111.792969 604.308594 111.492188 609.136719 112.035156 C 617.941406 113.226562 623.957031 117.054688 626.96875 123.375 C 629.777344 129.363281 629.074219 136.382812 624.878906 144.25 L 624.835938 144.324219 L 624.785156 144.386719 C 619.863281 151.558594 612.796875 157.417969 603.796875 161.828125 C 598.996094 164.1875 594.464844 165.652344 590.035156 166.296875 C 585.816406 167.210938 581.507812 167.433594 577.179688 166.953125 " fill-opacity="1" fill-rule="nonzero"/></g></g></g></g></svg>