<?xml version="1.0" encoding="utf-8"?>
<!-- Generator: Adobe Illustrator 27.5.0, SVG Export Plug-In . SVG Version: 6.00 Build 0)  -->
<svg version="1.1" id="Layer_1" xmlns="http://www.w3.org/2000/svg" xmlns:xlink="http://www.w3.org/1999/xlink" x="0px" y="0px"
	 viewBox="0 0 2000 2000" style="enable-background:new 0 0 2000 2000;" xml:space="preserve">
<g>
	<rect style="fill:#FFFFFF;" width="2000" height="2000"/>
	<g>
		<g>
			<path style="fill:#EE6F57;" d="M1799.482,1498.306c-0.164,0-0.322,0.019-0.485,0.021l1.412-24.432h-124.29l5.99,103.651
				c1.123,19.428,17.205,34.607,36.665,34.607h38.981c19.46,0,35.542-15.18,36.665-34.607l1.382-23.917
				c1.21,0.114,2.435,0.185,3.68,0.185c18.145,0,32.909-12.45,32.909-27.753C1832.391,1510.756,1817.627,1498.306,1799.482,1498.306
				z M1799.482,1542.315c-1.026,0-2.028-0.074-3.016-0.181l1.866-32.286c0.383-0.016,0.762-0.044,1.151-0.044
				c11.806,0,21.411,7.292,21.411,16.257C1820.892,1535.023,1811.288,1542.315,1799.482,1542.315z"/>
			<g>
				<path style="fill:#E5ECFF;" d="M1750.847,1464.499c-12.191-1.584-23.686-8.653-31.524-18.731
					c-3.908-5.059-7.027-10.893-8.763-17.227c-0.495-1.566-0.785-3.173-1.135-4.772c-0.219-1.614-0.532-3.227-0.617-4.854
					c-0.344-3.25-0.209-6.514,0.051-9.75c0.641-6.468,2.41-12.813,5.296-18.643c1.432-2.916,3.136-5.706,5.116-8.293
					c1.934-2.59,4.262-5.051,6.46-7.056c2.192-2.039,4.299-3.797,6.102-5.563c0.917-0.868,1.762-1.734,2.501-2.621
					c0.751-0.904,1.394-1.795,1.86-2.637c1.05-1.755,1.681-3.93,1.737-5.973c0.068-2.063-0.404-3.936-1.733-5.48l3.132-4.563
					c1.685,0.842,3.162,2.202,4.278,3.769c1.093,1.589,1.821,3.366,2.261,5.161c0.845,3.615,0.594,7.277-0.494,10.801
					c-2.479,7.057-7.189,11.674-10.701,15.798c-1.776,2.081-3.24,3.916-4.544,6.027c-0.695,1.008-1.255,2.11-1.879,3.162
					c-0.524,1.114-1.126,2.182-1.578,3.329c-1.994,4.495-3.21,9.321-3.762,14.199c-1.044,9.822,1.085,19.63,6.313,28.264
					c5.275,8.581,13.247,15.774,23.089,20.319L1750.847,1464.499z"/>
				<path style="fill:#E5ECFF;" d="M1754.571,1435.411c5.003-4.432,9.052-9.21,12.132-14.454c3.097-5.206,5.219-10.802,6.187-16.489
					c0.959-5.691,0.811-11.631-0.274-17.565c-1.111-5.952-3.195-11.807-6.249-17.797l4.031-3.792
					c6.458,4.12,11.327,10.696,14.169,18.031c2.872,7.352,3.702,15.622,2.228,23.597c-1.461,7.979-5.158,15.385-10.358,21.285
					c-5.214,5.864-11.979,10.357-19.39,12.134L1754.571,1435.411z"/>
			</g>
		</g>
		<g>
			<path style="fill:none;stroke:#FBC343;stroke-width:3.8197;stroke-miterlimit:10;" d="M773.443,1636.826
				c-158.722-30.734-270.829-123.215-322.868-266.474c-82.778-227.88,5.917-563.806,243.212-637.611
				c93.977-29.229,209.384,23.113,305.93,22.401c135.605-1.001,257.55-84.217,392.259-73.608
				c175.377,13.813,303.573,175.381,336.457,339.309c11.287,56.268,12.597,114.503,3.561,171.141
				c-9.82,61.55-29.818,121.854-60.173,175.183c-26.155,45.949-86.624,106.784-138.059,119.032
				C1533.758,1486.201,773.443,1636.826,773.443,1636.826z"/>
			<path style="fill:none;stroke:#FBC343;stroke-width:3.75;stroke-miterlimit:10;" d="M1198.299,1611.382
				c156.862-38.729,276.72-155.703,318.046-289.543c65.736-212.896-48.707-512.432-292.307-563.457
				c-49.483-10.365-101.63-7.742-151.83-1.941c-82.003,9.475-166.123,21.389-248.762,18.751
				c-80.368-2.566-158.304-26.19-239.298-24.366c-267.687,6.028-428.001,261.661-366.564,495.75
				c14.518,55.318,39.15,108.814,73.641,155.261c29.718,40.02,94.982,91.25,147.5,98.9
				C438.73,1500.736,1198.299,1611.382,1198.299,1611.382z"/>
			<g>
				<defs>
					<path id="SVGID_1_" d="M1591.962,1355.975c-42.075,121.75-92.325,241.975-267.1,288.4l-755.425-8.025
						c-170.225-80.4-263.25-239.15-278.725-410.425c-5.125-56.6-1.775-114.6,10.1-171.55c3.1-15,6.8-29.925,11.1-44.725
						c39.025-134.55,121.625-261.4,244.5-332.95c78.95-45.975,180.15-30.8,264-7.2c75.6,21.275,149.45,51.075,227.5,60.05
						c62.175,7.125,125.425,0.8,187.8,3.25c22.325,0.875,44.5,2.875,66.5,7c94.225,17.7,177.75,75.475,235.075,152.725
						c19.75,26.55,36.375,55.4,49.3,85.7C1637.062,1096.75,1634.037,1234.225,1591.962,1355.975z"/>
				</defs>
				<clipPath id="SVGID_00000109743789387794140510000012391310342192848303_">
					<use xlink:href="#SVGID_1_"  style="overflow:visible;"/>
				</clipPath>
				<g style="clip-path:url(#SVGID_00000109743789387794140510000012391310342192848303_);">
					<path style="fill:#FFEEC7;" d="M1591.962,1355.975c-42.075,121.75-92.325,241.975-267.1,288.4l-755.425-8.025
						c-170.225-80.4-263.25-239.15-278.725-410.425c-5.125-56.6-1.775-114.6,10.1-171.55c3.1-15,6.8-29.925,11.1-44.725
						c39.025-134.55,121.625-261.4,244.5-332.95c78.95-45.975,180.15-30.8,264-7.2c75.6,21.275,149.45,51.075,227.5,60.05
						c62.175,7.125,125.425,0.8,187.8,3.25c22.325,0.875,44.5,2.875,66.5,7c94.225,17.7,177.75,75.475,235.075,152.725
						c19.75,26.55,36.375,55.4,49.3,85.7C1637.062,1096.75,1634.037,1234.225,1591.962,1355.975z"/>
					<path style="fill:#FFFFFF;" d="M154.957,1540.334c-3.442-41.826,19.976-86.924,61.116-117.698
						c37.469-28.025,83.7-42.312,128.077-53.574c246.578-62.588,507.034-55.12,758.907-47.9
						c225.095,6.455,457.864,13.125,680.696-30.032c31.721-6.143,65.066-13.616,93.442-31.221
						c30.483-18.911,49.783-48.535,50.366-77.312c1.094-53.96-57.361-90.94-92.302-108.181
						c-132.693-65.479-295.962-90.107-513.804-77.532c-163.938,9.47-328.381,35.869-488.765,78.464
						c-36.042,9.573-72.655,20.156-108.06,30.391c-126.761,36.646-257.825,74.534-391.506,74.534c-0.673,0-1.337,0-2.009-0.002
						c-36.288-0.103-82.877-7.451-98.756-41.877c-11.205-24.299-1.781-51.98,8.098-70.923
						c33.02-63.313,95.487-100.212,142.078-120.018c52.338-22.246,109.21-34.34,164.209-46.035c6.53-1.388,13.057-2.776,19.573-4.18
						c122.875-26.466,245.685-59.574,365.017-98.403c56.632-18.428,85.698-42.388,88.855-73.248
						c2.8-27.374-17.292-51.345-38.445-62.96c-25.345-13.917-55.291-15.723-78.547-15.74c-0.107,0-0.221,0-0.328,0
						c-70.185,0-139.834,17.223-201.451,49.819c-22.889,12.109-44.976,26.514-66.334,40.444
						c-28.276,18.441-57.516,37.512-89.034,51.536c-60.947,27.12-133.101,37.114-214.46,29.694
						c-62.814-5.727-110.695-21.151-146.378-47.151c-21.528-15.686-39.499-35.923-56.877-55.493
						c-21.119-23.782-42.958-48.373-71.018-64.347l1.855-3.259c28.599,16.28,50.646,41.107,71.966,65.117
						c17.246,19.421,35.081,39.503,56.283,54.951c35.12,25.59,82.389,40.782,144.509,46.447
						c80.702,7.358,152.236-2.528,212.596-29.384c31.245-13.903,60.356-32.889,88.509-51.251
						c21.43-13.977,43.588-28.429,66.63-40.619c62.151-32.878,132.414-50.254,203.204-50.254c0.112,0,0.219,0,0.331,0
						c23.704,0.018,54.259,1.876,80.349,16.204c22.239,12.209,43.345,37.546,40.371,66.627
						c-3.325,32.495-33.23,57.498-91.426,76.434c-119.453,38.868-242.388,72.009-365.388,98.503
						c-6.519,1.404-13.048,2.792-19.581,4.181c-54.826,11.658-111.517,23.713-163.522,45.819
						c-46.027,19.564-107.714,55.971-140.22,118.3c-9.491,18.198-18.585,44.702-8.018,67.617c15.05,32.634,60.165,39.6,95.36,39.7
						c0.662,0.002,1.337,0.002,1.998,0.002c133.159,0,263.949-37.81,390.466-74.385c35.425-10.242,72.057-20.83,108.14-30.413
						c160.626-42.661,325.322-69.099,489.512-78.584c218.523-12.626,382.378,12.134,515.679,77.91
						c35.74,17.637,95.527,55.586,94.392,111.624c-0.61,30.032-20.588,60.847-52.139,80.422
						c-28.918,17.939-62.642,25.503-94.707,31.714c-223.237,43.235-456.216,36.56-681.516,30.098
						c-251.614-7.209-511.804-14.67-757.877,47.786c-44.001,11.169-89.811,25.313-126.754,52.944
						c-40.115,30.007-62.961,73.838-59.624,114.387L154.957,1540.334z"/>
				</g>
			</g>
		</g>
		<path style="fill:#E28B6D;" d="M1245.004,1541.796c51.002,13.077,121.079,24.802,98.743,68.407l-127.063-0.125L1245.004,1541.796z
			"/>
		<g>
			<path style="fill:#102048;" d="M717.456,1644.382H594.55c-41.969,0-75.992-34.023-75.992-75.992v-251.021
				c0-41.969,34.023-75.992,75.992-75.992h122.906c41.969,0,75.992,34.023,75.992,75.992v251.021
				C793.448,1610.359,759.425,1644.382,717.456,1644.382z"/>
			<path style="opacity:0.8;fill:#FFFFFF;" d="M579.769,1278.534c-4.617,1.206-7.732,5.422-9.815,9.725
				c-2.133,4.382-3.452,9.176-4.518,13.985c-2.089,9.662-3.074,19.584-3.619,29.509c-1.008,19.871-0.598,39.839,0.617,59.745
				c1.133,19.914,2.959,39.799,5.364,59.612c1.16,9.912,2.497,19.805,4.026,29.667c1.465,9.872,3.109,19.722,5.117,29.498
				l-1.43,0.324c-2.391-9.731-4.438-19.542-6.273-29.391c-1.75-9.863-3.308-19.76-4.69-29.681
				c-2.681-19.853-4.651-39.806-5.824-59.817c-1.02-20.011-1.523-40.102-0.068-60.159c0.767-10.015,1.912-20.049,4.312-29.886
				c1.271-4.891,2.792-9.772,5.203-14.314c1.208-2.259,2.635-4.446,4.482-6.311c1.83-1.858,4.164-3.361,6.786-3.935
				L579.769,1278.534z"/>
		</g>
		<path style="fill:#1F3C88;" d="M626.791,1305.093c0,0,7.778,157.731,56.74,331.247h133.786L626.791,1305.093z"/>
		<path style="fill:#6F3428;" d="M688.164,1224.565c-33.618-18.288-42.839-63.604-18.288-93.03c2.364-2.833,4.988-5.698,7.892-8.591
			c37.509-37.365,14.139-74.745,8.896-160.708c-5.239-85.88,90.434-109.331,90.619-109.376c4.512-1.104,13.244-13.979,16.934-17.18
			c43.182-37.454,105.125-34.685,152.458-6.182c22.52,13.561,45.184,34.445,57.372,58.402c19.331,37.997,22.828,88.06,55.383,117.65
			c46.405,42.179,97.884,77.987,95.805,146.02c-0.739,24.165-6.787,49.702-21.515,69.072
			c-12.836,16.882-32.388,28.207-50.034,39.129c-28.682,17.75-58.964,33.448-90.988,43.989
			c-31.005,10.207-62.355,19.383-93.792,28.134c-2.971,0.827-5.944,1.65-8.919,2.462L688.164,1224.565z"/>
		<path style="fill:#708CD5;" d="M906.941,1187.423c112.365-38.58,173.397,87.189,257.318,332.587l80.745,21.786l-9.384,87.392
			l-29.462,6.141l-240.556,1.012L906.941,1187.423z"/>
		<rect x="155.679" y="1607.381" style="fill:#E5ECFF;" width="1708.642" height="58.89"/>
		<polygon style="fill:#708CD5;" points="748.643,1169.14 999.927,1232.031 1105.502,1548.382 752.813,1559.129 729.482,1325.225 		
			"/>
		<path style="opacity:0.3;fill:#1F3C88;" d="M757.504,1305.093c61.738,62.152,48.085,153.229,100.827,162.267
			c34.915,5.983,134.144,20.162,181.483,39.886c9.573,3.989,36.004,23.646,31.909,41.083c-2.64,11.239-37.86,2.236-37.86,2.236
			l-263.68-26.465l-55.841-129.198L757.504,1305.093z"/>
		<path style="fill:#102048;" d="M974.4,1532.917c1.795-2.827,39.599-10.323,43.875-9.739c14.06,1.918,21.739,12.936,25.128,21.363
			l-55.94,29.503L974.4,1532.917z"/>
		<path style="fill:#102048;" d="M1016.253,1304.814l6.491,14.789c2.133,4.944,4.13,9.944,6.203,14.916
			c3.984,10.005,7.829,20.069,11.436,30.217c7.308,20.266,13.777,40.823,19.846,61.489c5.962,20.699,11.324,41.57,16.063,62.582
			c2.285,10.526,4.496,21.067,6.457,31.659c1.925,10.599,3.568,21.25,4.968,31.931l-1.389,0.198
			c-1.759-10.596-3.776-21.145-6.041-31.645c-2.16-10.52-4.569-20.988-7.05-31.437c-4.976-20.896-10.449-41.673-16.426-62.304
			c-5.869-20.663-12.397-41.131-19.289-61.473c-3.403-10.187-7.099-20.272-10.836-30.341c-1.908-5.019-3.743-10.07-5.713-15.067
			l-6.007-14.956L1016.253,1304.814z"/>
		<g>
			<path style="fill:#F9B384;" d="M1217.112,1586.3c0,0-10.575,12.5-43.95,0.325c-15.725,1.825-44.975,0.425-100.6-8.65
				c0,0,20.2,14.125,65.875,16.55c0,0-1.95,13.45-26.025,12.85c-28.975-0.725-32.325-2.475-58.725-1.375
				c-5.4,0.225-17.15-0.025-29.875-0.425c-22.2-0.725-47.425-1.9-47.425-1.9l-22-39.325l43.9-21.025
				c13.475-5.275,20.2-7.1,26.75-8.025c28.35-4.025,46.25-7.225,66.575-3.725C1114.188,1535.45,1183.162,1558.325,1217.112,1586.3z"
				/>
		</g>
		<path style="fill:#E28B6D;" d="M1025.037,1604.9l-1.225,0.675c-22.2-0.725-47.425-1.9-47.425-1.9l-22-39.325l43.9-21.025
			c13.475-5.275,20.2-7.1,26.75-8.025C1008.901,1541.875,995.687,1559.129,1025.037,1604.9z"/>
		<path style="fill:#708CD5;" d="M852.22,1186.995c-57.115-11.702-196.307-21.44-235.201,50.62
			c-32.02,59.326,48.242,257.995,83.012,327.865c14.311,28.758,55.865,42.988,72.022,43.098l229.487-1.319
			c-15.438-3.581-35.226-86.426,16.736-84.082L828.216,1496.7c-7.405-1.032-14.023-5.17-18.145-11.408
			c-2.746-4.155-5.941-9.407-7.569-15.373l-53.945-197.602L852.22,1186.995z"/>
		<polygon style="fill:#FFFFFF;" points="1359.998,1608.578 1136.097,1608.438 1136.097,1587.316 1361.297,1587.316 		"/>
		<g>
			<polygon style="fill:#102048;" points="1549.169,1608.578 1279.079,1608.495 1377.596,1320.419 1647.686,1320.502 			"/>
			<path style="fill:#FFFFFF;" d="M1485.137,1479.875c-8.275,13.225-23.75,18.65-35.55,12.85c-0.7-0.325-1.375-0.7-2.05-1.125
				c-12.025-7.5-14.65-24.95-5.9-38.925c8.75-14,25.575-19.25,37.6-11.725c3.625,2.275,6.375,5.425,8.25,9.125
				C1491.787,1458.65,1491.237,1470.125,1485.137,1479.875z"/>
			<path style="fill:#708CD5;" d="M1485.137,1479.875c-8.275,13.225-28.617,22.833-42.878,7.111
				c30.928,2.806,41.344-17.453,40.758-43.055C1493.604,1455.625,1491.237,1470.125,1485.137,1479.875z"/>
		</g>
		<g>
			<path style="fill:#6F3428;" d="M1091.732,1530.851c11.483,1.694,22.592,4.901,33.605,8.317
				c11.009,3.451,21.829,7.484,32.47,11.952c10.683,4.363,21.108,9.385,31.234,14.96c10.067,5.661,19.874,11.952,28.538,19.661
				l-0.932,1.131c-4.588-3.407-9.318-6.607-14.221-9.534c-4.858-2.996-9.864-5.755-14.941-8.375
				c-10.134-5.274-20.506-10.123-31.116-14.417c-10.474-4.615-21.244-8.537-32.032-12.373c-5.401-1.902-10.842-3.692-16.316-5.365
				c-5.461-1.709-10.975-3.275-16.538-4.512L1091.732,1530.851z"/>
			<path style="fill:#6F3428;" d="M1087.277,1584.158l12.082,3.455c4.025,1.078,8.074,2.008,12.139,2.835
				c4.065,0.836,8.164,1.479,12.277,2.062c4.12,0.54,8.256,0.952,12.406,1.366l1.378,0.137l0.112,1.193
				c0.152,1.625-0.019,2.998-0.451,4.462c-0.444,1.422-1.254,2.814-2.422,3.811c-1.173,0.978-2.55,1.611-3.93,1.907
				c-0.686,0.173-1.38,0.201-2.061,0.294l-2.026-0.052v-1.466l1.813-0.271c0.57-0.174,1.167-0.262,1.701-0.481
				c1.094-0.388,2.021-1.014,2.728-1.774c0.711-0.758,1.188-1.698,1.42-2.744c0.231-1.011,0.249-2.244,0.082-3.161l1.489,1.33
				c-8.482-0.158-16.979-1.168-25.278-3.09c-4.151-0.95-8.234-2.181-12.235-3.604c-4.018-1.376-7.904-3.074-11.732-4.836
				L1087.277,1584.158z"/>
			<path style="fill:#6F3428;" d="M1077.047,1555.047c9.713,1.24,19.481,2.195,29.25,3.191c9.76,1.077,19.545,2.025,29.31,3.569
				c9.72,1.555,19.383,3.32,29.05,5.074c9.664,1.77,19.323,3.543,28.954,5.49l2.281,0.461l-0.975,2.116
				c-0.636,1.38-1.249,3.464-2.486,5.192c-0.526,0.932-1.367,1.627-2.074,2.417c-0.833,0.608-1.651,1.296-2.532,1.788
				c-3.543,2.071-7.334,2.774-11.037,3.497c-7.454,1.216-14.879,1.165-22.252,0.922c-3.688-0.137-7.371-0.294-11.035-0.623
				c-3.671-0.267-7.34-0.538-10.986-1.003c-7.312-0.763-14.582-1.796-21.845-2.854l0.183-1.454
				c7.302,0.601,14.578,1.414,21.88,1.845c3.647,0.284,7.291,0.507,10.938,0.667c3.646,0.234,7.289,0.296,10.93,0.338
				c7.264,0.034,14.575-0.096,21.609-1.265c3.443-0.691,6.993-1.436,9.803-3.144c0.712-0.403,1.291-0.933,1.944-1.386
				c0.481-0.598,1.115-1.065,1.473-1.761c0.911-1.273,1.325-2.778,2.174-4.736l1.306,2.577c-19.282-3.632-38.542-7.516-57.85-10.864
				c-9.599-1.75-19.347-2.926-29.076-4.23c-9.725-1.352-19.478-2.591-29.168-4.378L1077.047,1555.047z"/>
		</g>
		
			<line style="fill:none;stroke:#102048;stroke-width:5;stroke-miterlimit:10;" x1="155.679" y1="1607.381" x2="1864.321" y2="1607.381"/>
		<path style="fill:#102048;" d="M824.118,1261.862c8.296,5.649,17.539,9.768,27.196,12.041c9.651,2.227,19.71,2.818,29.436,1.13
			c9.727-1.544,19.111-5.298,27.002-11.195c7.958-5.813,14.27-13.773,18.714-22.752l1.346,0.58c-1.04,2.335-2.112,4.672-3.213,7.004
			c-1.252,2.243-2.726,4.372-4.101,6.569c-1.523,2.086-3.337,3.955-5.003,5.948c-1.792,1.872-3.837,3.495-5.757,5.256
			c-8.184,6.466-18.13,10.596-28.385,12.256c-10.273,1.579-20.855,1.028-30.821-1.727c-9.97-2.708-19.372-7.441-27.296-13.938
			L824.118,1261.862z"/>
		<path style="fill:#102048;" d="M758.179,1304.903l12.533,42.589l12.332,42.645l12.202,42.682l6.066,21.351l3.033,10.675
			c1.044,3.566,1.897,7.201,3.303,10.303c2.751,6.448,8.314,11.224,14.605,14.508c6.367,3.259,13.429,5.281,20.557,6.854
			c7.167,1.539,14.418,2.583,21.775,3.529l21.994,2.976l43.971,6.086l43.941,6.323l-0.183,1.391l-44.088-5.228l-44.058-5.465
			l-22.02-2.799c-7.321-0.906-14.736-1.936-22.047-3.471c-7.301-1.58-14.616-3.611-21.459-7.068
			c-6.74-3.452-13.163-8.831-16.229-16.174c-0.454-0.875-0.769-1.799-1.07-2.728c-0.305-0.92-0.653-1.867-0.875-2.742l-1.494-5.344
			l-2.987-10.688l-5.975-21.377l-11.879-42.773l-11.749-42.81l-11.549-42.866L758.179,1304.903z"/>
		<g>
			<path style="fill:#F9B384;" d="M900.905,1097.645l11.253,96.878c3.349,28.835-27.043,53.001-57.847,45.007
				c-17.613-4.573-35.966-16.762-54.959-35.084c-3.907-3.764-6.279-8.637-6.811-13.832l-11.995-116.757L900.905,1097.645z"/>
			<path style="fill:#3C1C16;" d="M902.436,1110.823l6.127,52.75c-24.892,3.903-59.982-10.09-95.587-57.345L902.436,1110.823z"/>
			<path style="fill:#F9B384;" d="M963.83,1027.901c-1.436,17.566-4.212,35.922-9.142,52.41
				c-8.328,27.713-22.855,50.065-47.744,54.206c-73.279,12.181-126.384-60.667-126.384-60.667l-8.52-99.126l44.226-76.51
				l99.03-2.872l48.295,57.125C963.591,952.468,967.085,988.102,963.83,1027.901z"/>
			<path style="fill:#6F3428;" d="M769.667,1012.386c39.336-2.934,48.394-36.178,51.082-79.269c0,0,106.546-26.39,144.373,49.352
				l28.684,3.109l-86.865-115.316l-135.003,16.105l-26.412,87.637L769.667,1012.386z"/>
			<path style="fill:#F9B384;" d="M790.477,999.47c-4.631-5.102-11.54-7.696-18.38-6.867c-26.131,3.164-30.671,37.769-24.696,52.493
				c8.943,22.039,33.153,28.749,33.153,28.749l20.802-22.002C803.021,1028.932,800.417,1010.42,790.477,999.47z"/>
			<path style="opacity:0.15;fill:#3C1C16;" d="M790.908,1100.425c14.359,40.836,58.538,156.146-13.618,153.248
				c-34.778-1.397-65.336-68.854-114.913-56.119c5.469-2.644,11.623-5.041,18.538-7.162L790.908,1100.425z"/>
			<path style="fill:#6F3428;" d="M780.554,1073.845c13.918,26.438,52.86,157.235-13.47,149.681
				c-31.969-3.641-39.819-42.149-86.17-33.134L780.554,1073.845z"/>
			<g>
				<path style="fill:#3C1C16;" d="M782.832,1023.433c0.1-3.068-0.866-5.886-2.384-8.265c-1.55-2.36-3.701-4.316-6.141-5.403
					c-2.431-1.102-5.075-1.307-7.571-0.407c-2.525,0.896-4.777,2.882-6.987,5.183l-1.608-0.956c1.262-3.147,3.432-6.275,6.884-8.066
					c0.865-0.43,1.738-0.874,2.72-1.016c0.959-0.231,1.928-0.43,2.917-0.354l1.477,0.048l1.428,0.303
					c0.975,0.159,1.862,0.525,2.73,0.937c3.465,1.63,6.189,4.451,7.746,7.789c1.597,3.305,1.917,7.279,0.621,10.601
					L782.832,1023.433z"/>
				<path style="fill:#3C1C16;" d="M923.032,1008.663c0.236,6.737,4.161,12.067,8.767,11.906c4.606-0.161,8.148-5.753,7.912-12.49
					c-0.236-6.737-4.161-12.067-8.767-11.906C926.338,996.334,922.796,1001.926,923.032,1008.663z"/>
				<path style="fill:#3C1C16;" d="M850.379,1011.209c0.236,6.737,4.161,12.067,8.767,11.906c4.606-0.161,8.148-5.753,7.912-12.49
					c-0.236-6.737-4.161-12.067-8.767-11.906C853.685,998.88,850.143,1004.472,850.379,1011.209z"/>
				<path style="fill:#3C1C16;" d="M922.111,1077.248c-3.169,3.994-6.997,7.732-11.976,10.2c-5.016,2.419-11.166,2.732-16.446,1.172
					c-5.332-1.521-9.878-4.409-13.947-7.616c-4.122-3.182-7.637-6.949-10.833-10.928l1.513-1.563
					c4.148,2.867,8.039,5.935,12.162,8.514c4.075,2.606,8.27,5.009,12.638,6.271c4.363,1.298,8.783,1.229,13.069-0.227
					c4.262-1.586,8.274-4.413,12.3-7.38L922.111,1077.248z"/>
				<path style="fill:#3C1C16;" d="M947.629,987.854c-3.247-2.243-6.266-4.367-9.344-5.736c-3.094-1.323-6.057-2.017-9.121-1.665
					c-3.057,0.288-6.203,1.369-9.449,2.783c-3.264,1.421-6.461,3.33-10.133,4.955l-1-1.05c1.996-3.525,4.619-6.671,7.961-9.182
					c3.323-2.487,7.443-4.414,12.058-4.764c4.614-0.445,9.376,1.217,12.77,3.901c3.466,2.657,5.908,6.097,7.398,9.861
					L947.629,987.854z"/>
				<path style="fill:#3C1C16;" d="M874.838,990.404c-3.493-2.483-6.936-4.384-10.497-5.515c-3.566-1.086-7.159-1.511-10.775-1.094
					c-3.607,0.395-7.215,1.418-10.832,2.907c-3.623,1.5-7.177,3.443-11.131,5.33l-1.001-1.05c2.255-3.833,5.372-7.146,9.142-9.757
					c3.767-2.6,8.326-4.347,13.133-4.78c4.794-0.471,9.817,0.587,13.926,3.002c4.135,2.358,7.422,5.929,9.175,10.06L874.838,990.404
					z"/>
				<path style="opacity:0.5;fill:#FC8879;" d="M804.475,1057.803c0.515,14.706,12.855,26.21,27.561,25.695
					c14.706-0.515,26.21-12.855,25.695-27.561c-0.515-14.706-12.855-26.21-27.561-25.695S803.96,1043.097,804.475,1057.803z"/>
				<path style="opacity:0.5;fill:#FC8879;" d="M963.83,1027.901c-1.436,17.566-4.212,35.922-9.142,52.41
					c-11.248-2.8-19.744-12.803-20.174-24.937c-0.526-14.718,10.985-27.043,25.679-27.569
					C961.413,1027.757,962.633,1027.805,963.83,1027.901z"/>
				<path style="opacity:0.5;fill:#FC8879;" d="M892.961,1003.398c0.119-1.258,1.857-1.415,2.228-0.207
					c5.958,19.434,25.309,33.643,22.214,39.347c-2.18,4.017-10.367,8.564-16.106,11.371c-3.03,1.482-6.66-0.311-7.299-3.638
					C891.227,1035.843,891.388,1019.968,892.961,1003.398z"/>
				<path style="fill:#3C1C16;" d="M897.105,1001.428c1.333,5.693,3.932,10.864,7.084,15.718c3.169,4.866,6.88,9.381,10.633,14.136
					c0.948,1.191,1.859,2.428,2.758,3.744c0.887,1.336,1.79,2.691,2.482,4.568c0.322,0.93,0.641,2.091,0.35,3.611
					c-0.419,1.719-1.135,2.299-1.7,3.101c-1.239,1.388-2.542,2.408-3.883,3.317c-5.336,3.564-11.006,5.755-16.862,7.57l-0.832-2.01
					c2.557-1.518,5.178-2.952,7.648-4.57c2.494-1.553,4.972-3.157,7.134-4.915c1.059-0.889,2.077-1.8,2.788-2.7
					c0.29-0.406,0.624-1.003,0.478-0.778c0.011,0.033-0.044-0.33-0.232-0.794c-0.779-1.991-2.784-4.443-4.511-6.754
					c-3.623-4.706-7.426-9.608-10.342-15.112c-2.974-5.435-5.043-11.617-5.154-17.879L897.105,1001.428z"/>
			</g>
			<g>
				<path style="fill:#3C1C16;" d="M757.273,1081.104c-1.686,3.716-2.238,7.835-1.988,11.893c0.278,4.072,1.349,8.083,2.858,11.903
					c3.222,7.594,7.516,15.024,11.286,22.686c3.849,7.633,7.218,15.76,8.762,24.482c0.736,4.358,0.975,8.828,0.636,13.282
					c-0.3,2.213-0.511,4.416-1.095,6.665c-0.635,2.199-1.36,4.392-2.465,6.422c-2.072,4.101-5.227,7.767-9.247,10.271
					c-3.986,2.572-8.934,3.665-13.64,3.197c-4.769-0.597-8.767-2.329-12.761-3.925c-3.969-1.654-7.849-3.385-11.706-5.117
					c-7.714-3.401-15.514-6.699-23.607-8.208c-4.02-0.751-8.144-0.991-11.981,0.01c-1.894,0.54-3.677,1.396-5.259,2.569
					c-1.588,1.177-2.874,2.735-4.02,4.407l-1.616-0.943c1.113-1.917,2.429-3.777,4.169-5.273c1.754-1.461,3.793-2.58,5.953-3.317
					c4.367-1.388,8.943-1.345,13.283-0.756c8.706,1.336,16.798,4.488,24.711,7.662l11.743,4.874
					c3.874,1.527,7.837,3.085,11.544,3.481c3.751,0.307,7.524-0.553,10.68-2.633c3.178-2.018,5.741-5.067,7.548-8.491
					c0.955-1.697,1.579-3.564,2.147-5.429c0.508-1.866,0.724-3.9,1.022-5.892c0.341-4.022,0.17-8.085-0.466-12.112
					c-1.343-8.065-4.483-15.839-7.983-23.486c-3.481-7.7-7.562-15.115-10.678-23.3c-1.407-4.149-2.347-8.496-2.431-12.926
					c-0.086-4.415,0.806-8.929,2.929-12.84L757.273,1081.104z"/>
				<path style="fill:#3C1C16;" d="M758.616,858.4c7.175-3.237,14.695-5.558,22.268-7.545c7.572-2.024,15.267-3.522,23.006-4.734
					c7.747-1.161,15.556-1.983,23.411-2.212c3.927-0.099,7.862-0.086,11.797,0.108c3.929,0.257,7.87,0.701,11.737,1.512
					l-0.263,1.852c-3.851-0.119-7.67-0.25-11.517-0.02c-3.837,0.086-7.678,0.348-11.509,0.721
					c-7.664,0.697-15.318,1.624-22.949,2.749c-7.633,1.117-15.226,2.502-22.806,3.962c-3.79,0.73-7.557,1.574-11.307,2.474
					c-3.78,0.813-7.478,1.877-11.213,2.885L758.616,858.4z"/>
				<path style="fill:#3C1C16;" d="M820.325,932.283c3.196-1.693,6.57-2.71,9.963-3.541c3.4-0.789,6.825-1.478,10.275-1.934
					c6.9-0.939,13.857-1.318,20.813-1.314c13.917-0.004,27.836,1.945,41.326,5.592c13.441,3.765,26.455,9.682,37.633,18.248
					c5.544,4.312,10.679,9.194,14.993,14.736c4.264,5.57,7.894,11.6,10.641,17.997l-1.69,0.803
					c-6.499-11.948-15.414-22.454-26.443-30.185c-5.474-3.892-11.279-7.334-17.403-10.151c-6.116-2.839-12.53-5.002-19.016-6.884
					c-12.994-3.773-26.548-5.573-40.119-6.116c-6.791-0.271-13.605-0.105-20.37,0.494c-6.723,0.599-13.623,1.469-19.752,3.922
					L820.325,932.283z"/>
			</g>
		</g>
		<g>
			<g>
				<path style="fill:#3C1C16;" d="M349.465,1305.34l25.704,8.331c2.216,0.718,3.744,2.684,3.895,5.008
					c0.152,2.322-1.111,4.471-3.216,5.471l-28.072,13.311c0.001,0,0.048,0.382,0.048,0.382l39.268,7.824
					c1.47,0.295,2.433,1.728,2.139,3.204c-0.293,1.473-1.727,2.431-3.202,2.138l-39.269-7.824c-2.429-0.491-4.197-2.381-4.503-4.845
					c-0.305-2.461,0.944-4.737,3.185-5.8l28.07-13.311l-0.025-0.377l-25.704-8.331c-1.431-0.464-2.215-1.998-1.751-3.43
					C346.499,1305.659,348.034,1304.876,349.465,1305.34z"/>
			</g>
			<g>
				<path style="fill:#3C1C16;" d="M283.095,1269.928l22.827,7.399c1.968,0.638,3.325,2.384,3.459,4.448
					c0.135,2.062-0.987,3.97-2.856,4.859l-24.931,11.821c0.001,0,0.043,0.339,0.043,0.339l34.874,6.948
					c1.306,0.262,2.16,1.534,1.9,2.845c-0.26,1.308-1.534,2.159-2.844,1.899l-34.874-6.948c-2.158-0.436-3.728-2.114-3.999-4.302
					c-0.271-2.186,0.838-4.207,2.829-5.151l24.929-11.821l-0.022-0.335l-22.827-7.399c-1.271-0.412-1.967-1.775-1.555-3.046
					C280.461,1270.212,281.825,1269.517,283.095,1269.928z"/>
			</g>
			<g>
				<path style="fill:#3C1C16;" d="M420.873,1359.591l18.099,5.866c1.56,0.506,2.636,1.89,2.743,3.527
					c0.107,1.635-0.782,3.148-2.264,3.852l-19.767,9.373c0.001,0,0.034,0.269,0.034,0.269l27.65,5.509
					c1.035,0.208,1.713,1.217,1.506,2.256c-0.206,1.037-1.216,1.712-2.255,1.505l-27.65-5.509c-1.711-0.346-2.956-1.677-3.171-3.411
					c-0.215-1.733,0.665-3.336,2.243-4.084l19.766-9.373l-0.017-0.265l-18.099-5.866c-1.007-0.327-1.56-1.407-1.233-2.415
					C418.784,1359.816,419.865,1359.265,420.873,1359.591z"/>
			</g>
		</g>
		<g>
			<path style="fill:#FFFFFF;stroke:#1F3C88;stroke-width:3.75;stroke-miterlimit:10;" d="M1552.214,1217.586h-80.329
				c-13.14,0-23.892-10.751-23.892-23.891v-72.331c0-13.14,10.751-23.891,23.892-23.891h80.329c13.14,0,23.891,10.751,23.891,23.891
				v72.331C1576.105,1206.834,1565.354,1217.586,1552.214,1217.586z"/>
			<polygon style="fill:#1F3C88;" points="1512.049,1241.321 1488.764,1217.586 1535.335,1217.586 			"/>
			<g>
				<path style="fill:#1F3C88;" d="M1510.006,1191.563c-1.24,0-2.429-0.544-3.24-1.499l-23.286-27.38
					c-1.523-1.79-1.306-4.475,0.483-5.996c1.792-1.523,4.478-1.301,5.996,0.483l19.307,22.7l30.066-54.185
					c1.143-2.056,3.735-2.793,5.784-1.658c2.056,1.14,2.798,3.73,1.658,5.784l-33.047,59.558c-0.679,1.221-1.912,2.031-3.301,2.17
					C1510.287,1191.555,1510.145,1191.563,1510.006,1191.563z"/>
			</g>
		</g>
		<g>
			<g>
				<path style="fill:#EE6F57;" d="M323.901,1480.259c-35.673,8.45-75.239,20.16-92.159,56.123
					c-15.983,33.971,0.652,66.966,32.762,83.032c21.727,10.871,104.523,29.189,70.143,69.369
					c-22.215,25.961-60.786,17.932-86.152,2.603c-13.215-7.986-25.258,12.7-12.079,20.664c28.844,17.43,62.047,23.819,93.42,9.411
					c34.051-15.638,47.451-55.729,21.473-85.056c-13.321-15.039-32.136-22.105-50.629-28.469
					c-17.488-6.018-40.389-12.743-48.88-31.182c-7.991-17.354,2.495-37.188,15.808-48.61c17.226-14.779,41.186-19.723,62.656-24.808
					C345.243,1499.787,338.901,1476.706,323.901,1480.259L323.901,1480.259z"/>
			</g>
			<g>
				<path style="fill:#EE6F57;" d="M651.782,1524.024c40.554,2.364,43.465-50.454,43.465-50.454s-27.743-14.08-53.74,3.382
					L651.782,1524.024z"/>
				<path style="fill:#3C1C16;" d="M654.073,1508.025c16.151-0.257,24.096-20.558,24.096-20.558s-11.905-7.28-26.897,0.173
					L654.073,1508.025z"/>
			</g>
			<g>
				<path style="fill:#EE6F57;" d="M537.246,1475.138c-28.12-29.316,10.171-65.812,10.171-65.812s28.718,11.966,32.308,43.077
					L537.246,1475.138z"/>
				<path style="fill:#3C1C16;" d="M547.245,1462.873c-9.813-11.879,0-30.214,0-30.214s12.654,4.132,16.527,19.626L547.245,1462.873
					z"/>
			</g>
			<path style="fill:#EE6F57;" d="M595.287,1604.825c-1.375,3.2-4.375,5.375-7.825,5.9c-27.425,4.225-34.125-3.35-34.125-3.35
				s-21.825,12.15-73.125-2.3c-1.275,2.375-3.85,4.3-6.8,5.25c-7.85,2.575-38.325-0.075-58.175-2.15
				c-12-1.275-47.15,1.55-47.15,1.55c-32.025,0-68.4-8.55-82.475-40.675c-17.825-40.65,0.925-89.375,31.15-118.475
				c32.25-31.1,75.275-33.9,114.4-13.525c94.9,49.45,102.075,33.325,126.425,12.825l16.425,124.625
				c5.375,1.875,10.1,4.45,13.5,8.025c2.325,2.45,4.1,4.725,5.4,6.85C597.162,1596.225,596.762,1601.375,595.287,1604.825z"/>
			<path style="opacity:0.3;fill:#3C1C16;" d="M529.988,1475.138c-38.051,22.362-39.301,93.195,34.158,100.111l8.417-32.124
				L529.988,1475.138z"/>
			<path style="fill:#EE6F57;" d="M661.762,1527.8c-7.725,27.15-20.475,42.7-33.55,51.35c-12.175,8.125-24.575,10.25-33.525,10.25
				c-8.05,0-16.05-1.275-23.7-3.7c-29.1-9.15-52.875-34.65-52.875-68.15c0-42.3,30.725-74.725,69.4-74.725
				C631.787,1442.825,675.512,1479.375,661.762,1527.8z"/>
			<path style="opacity:0.3;fill:#3C1C16;" d="M628.212,1579.15c-12.175,8.125-24.575,10.25-33.525,10.25
				c-0.6,0-1.175,0-1.775-0.025c-1.3-2.125-3.075-4.4-5.4-6.85c-3.4-3.575-8.125-6.15-13.5-8.025
				c11.875-2.425,18.75,0.75,18.75,0.75s21.875-10.875,35.4,3.85C628.187,1579.125,628.187,1579.125,628.212,1579.15z"/>
			<path style="fill:#EE6F57;" d="M586.919,1591.26c-3.85,5.544-3.163,13.257,2.199,17.357c1.244,0.951,2.561,1.586,3.863,1.586
				h38.141c1.824,0,2.796-1.951,3.289-4.488c1.484-7.631-1.718-15.379-7.669-20.382
				C614.438,1574.989,598.044,1575.239,586.919,1591.26z"/>
			<g>
				<path style="fill:#3C1C16;" d="M518.101,1570.762c7.727-0.338,15.434-0.025,23.131,0.672c7.698,0.682,15.355,1.956,22.914,3.815
					c3.777,0.94,7.5,2.146,11.139,3.621c3.624,1.493,7.22,3.183,10.491,5.487c3.253,2.291,6.246,5.175,8.258,8.758
					c1.974,3.602,2.634,7.873,1.944,11.785l-1.395-0.15c0.14-3.714-0.693-7.371-2.711-10.361c-1.929-3.032-4.73-5.482-7.846-7.429
					c-6.255-3.928-13.462-6.403-20.769-8.266c-7.299-1.991-14.832-3.165-22.37-4.247c-7.549-1.017-15.171-1.759-22.787-2.281
					V1570.762z"/>
			</g>
			<g>
				<path style="fill:#3C1C16;" d="M390.798,1495.464c7.63,1.235,15.225,3.917,21.579,8.739c3.084,2.476,5.926,5.416,7.89,8.924
					c2.013,3.458,3.458,7.247,4.253,11.151c0.753,3.907,1.045,7.88,0.905,11.822c-0.187,3.938-0.715,7.833-1.463,11.673
					c-1.582,7.662-4.033,15.088-7.072,22.24c-1.504,3.586-3.201,7.081-5.054,10.513l-0.711,1.286l-0.373,0.651l-0.025,0.042
					c0.167,0.563-1.6-4.733-0.83-2.484l0.082,0.033l0.165,0.066l0.329,0.132l2.643,1.036c1.767,0.68,3.557,1.297,5.352,1.899
					c7.195,2.378,14.611,4.058,22.107,5.239c7.466,1.063,15.303,1.899,22.811,3.791c3.766,0.952,7.513,2.076,11.092,3.773
					c1.79,0.822,3.533,1.872,5.054,3.305c0.722,0.742,1.453,1.62,1.726,2.765c0.402,1.121,0.045,2.356-0.425,3.334l-1.236-0.665
					c0.751-1.503,0.06-3.039-1.275-4.173c-1.321-1.133-2.945-2.047-4.672-2.741c-3.43-1.45-7.124-2.377-10.827-3.153
					c-7.45-1.656-14.943-2.244-22.692-3.131c-7.701-0.989-15.302-2.75-22.716-5.091c-1.849-0.602-3.693-1.219-5.515-1.901
					l-2.726-1.04l-0.34-0.133l-0.17-0.066l-0.085-0.033c0.751,2.235-1.077-3.061-0.875-2.531l0.021-0.036l0.336-0.601l0.671-1.239
					c1.767-3.336,3.368-6.78,4.888-10.248c3.021-6.948,5.46-14.153,7.043-21.516c0.75-3.687,1.283-7.409,1.493-11.14
					c0.132-3.728,0.013-7.454-0.613-11.102c-1.288-7.264-4.915-14.085-10.694-18.76c-5.711-4.754-12.924-7.59-20.321-9.253
					L390.798,1495.464z"/>
			</g>
			<path style="fill:#3C1C16;" d="M607.997,1505.749c2.672,4.916,6.292,9.32,11.125,10.827c2.395,0.759,4.999,0.952,7.69,0.652
				c1.34-0.125,2.685-0.493,4.07-0.692c1.347-0.395,2.708-0.795,4.14-1.111l0.688,1.394c-1.25,0.825-2.57,1.572-3.906,2.314
				c-1.435,0.519-2.844,1.194-4.379,1.521c-3.043,0.776-6.411,0.744-9.582-0.225c-3.18-0.998-5.94-3.121-7.819-5.69
				c-1.889-2.583-3.126-5.473-3.528-8.587L607.997,1505.749z"/>
			<path style="fill:#3C1C16;" d="M564.484,1486.961c2.283,5.108,5.551,9.78,10.252,11.657c2.329,0.942,4.91,1.336,7.616,1.246
				c1.346-0.02,2.715-0.283,4.112-0.375c1.374-0.289,2.762-0.582,4.214-0.786l0.577,1.443c-1.311,0.726-2.684,1.368-4.074,2.005
				c-1.471,0.406-2.928,0.97-4.484,1.177c-3.094,0.538-6.45,0.245-9.535-0.968c-3.093-1.242-5.681-3.572-7.354-6.28
				c-1.683-2.721-2.692-5.699-2.852-8.834L564.484,1486.961z"/>
		</g>
		<g>
			<polygon style="fill:#8CBFBE;" points="1488.476,902.232 1530.723,902.232 1496.985,683.83 1454.739,683.83 			"/>
			<polygon style="fill:#C6EAE9;" points="1530.759,902.232 1573.005,902.232 1539.268,683.83 1497.021,683.83 			"/>
			<g>
				<rect x="1588.886" y="801.903" style="fill:#8CBFBE;" width="155.912" height="100.296"/>
				<rect x="1633.877" y="834.488" style="fill:#FFFFFF;" width="65.93" height="17.563"/>
			</g>
			<rect x="1381.374" y="617.821" style="fill:#C6EAE9;" width="73.365" height="284.377"/>
			<rect x="1341.867" y="902.198" style="fill:#8CBFBE;" width="439.076" height="31.58"/>
		</g>
		<g>
			
				<ellipse transform="matrix(0.7071 -0.7071 0.7071 0.7071 -49.9433 862.0455)" style="fill:#FFFFFF;stroke:#708CD5;stroke-width:5;stroke-miterlimit:10;" cx="1015.609" cy="491.31" rx="141.145" ry="141.145"/>
			<g>
				<polygon style="fill:#102048;" points="1071.43,520.617 1011.112,491.94 1077.011,433.895 1080.316,437.648 1020.106,490.68 
					1073.578,516.1 				"/>
			</g>
		</g>
		<g>
			<g>
				<path style="fill:#C6EAE9;" d="M567.039,753.763H347.155c-17.045,0-30.862-13.818-30.862-30.862V599.279
					c0-17.045,13.817-30.862,30.862-30.862h219.884c17.045,0,30.862,13.818,30.862,30.862v123.622
					C597.901,739.946,584.084,753.763,567.039,753.763z"/>
				<g>
					<rect x="351.923" y="614.935" style="fill:#8CBFBE;" width="210.348" height="17.519"/>
					<rect x="351.923" y="652.331" style="opacity:0.8;fill:#FFFFFF;" width="210.348" height="17.519"/>
					<rect x="351.923" y="689.726" style="opacity:0.8;fill:#FFFFFF;" width="210.348" height="17.519"/>
				</g>
			</g>
			<polygon style="fill:#FBC343;" points="387.466,941.324 347.486,910.056 427.446,910.056 			"/>
			<path style="fill:#FBC343;" d="M438.227,910.082H218.343c-17.045,0-30.862-13.818-30.862-30.862V755.598
				c0-17.045,13.817-30.862,30.862-30.862h219.884c17.045,0,30.862,13.818,30.862,30.862V879.22
				C469.089,896.264,455.271,910.082,438.227,910.082z"/>
			<g style="opacity:0.8;">
				<rect x="247.049" y="830.504" style="fill:#FFFFFF;" width="27.261" height="33.695"/>
				<rect x="290.821" y="792.993" style="fill:#FFFFFF;" width="27.262" height="71.206"/>
				<rect x="336.54" y="809.163" style="fill:#FFFFFF;" width="27.262" height="55.036"/>
				<rect x="382.259" y="770.619" style="fill:#FFFFFF;" width="27.262" height="93.58"/>
			</g>
		</g>
	</g>
</g>
</svg>
